<?xml version="1.0" encoding="UTF-8" standalone="no"?>
<!DOCTYPE svg PUBLIC "-//W3C//DTD SVG 1.1//EN"
 "http://www.w3.org/Graphics/SVG/1.1/DTD/svg11.dtd">
<!-- Generated by graphviz version 2.43.0 (0)
 -->
<!-- Title: QueryLoad Pages: 1 -->
<svg width="1023pt" height="514pt"
 viewBox="0.00 0.00 1023.00 514.00" xmlns="http://www.w3.org/2000/svg" xmlns:xlink="http://www.w3.org/1999/xlink">
<g id="graph0" class="graph" transform="scale(1 1) rotate(0) translate(4 510)">
<title>QueryLoad</title>
<!-- Node1 -->
<g id="Node000001" class="node">
<title>Node1</title>
<g id="a_Node000001"><a xlink:title=" ">
<polygon fill="#999999" stroke="#666666" points="896.5,-506 827.5,-506 827.5,-487 896.5,-487 896.5,-506"/>
<text text-anchor="middle" x="862" y="-494" font-family="Helvetica,sans-Serif" font-size="10.00">QueryLoad</text>
</a>
</g>
</g>
<!-- Node2 -->
<g id="Node000002" class="node">
<title>Node2</title>
<g id="a_Node000002"><a xlink:href="classfr_1_1inria_1_1corese_1_1core_1_1load_1_1Load.html" target="_top" xlink:title="Translate an RDF/XML document into a Graph use ARP.">
<polygon fill="white" stroke="#666666" points="703.5,-467 663.5,-467 663.5,-448 703.5,-448 703.5,-467"/>
<text text-anchor="middle" x="683.5" y="-455" font-family="Helvetica,sans-Serif" font-size="10.00">Load</text>
</a>
</g>
</g>
<!-- Node2&#45;&gt;Node1 -->
<g id="edge1_Node000001_Node000002" class="edge">
<title>Node2&#45;&gt;Node1</title>
<g id="a_edge1_Node000001_Node000002"><a xlink:title=" ">
<path fill="none" stroke="#63b8ff" d="M713.57,-465.09C722.07,-467.24 731.39,-469.53 740,-471.5 769.38,-478.24 802.95,-485.11 827.27,-489.94"/>
<polygon fill="#63b8ff" stroke="#63b8ff" points="714.27,-461.65 703.71,-462.56 712.54,-468.43 714.27,-461.65"/>
</a>
</g>
</g>
<!-- Node6 -->
<g id="Node000006" class="node">
<title>Node6</title>
<g id="a_Node000006"><a xlink:href="classfr_1_1inria_1_1corese_1_1core_1_1load_1_1CreateTriple.html" target="_top" xlink:title=" ">
<polygon fill="white" stroke="#666666" points="899.5,-413 824.5,-413 824.5,-394 899.5,-394 899.5,-413"/>
<text text-anchor="middle" x="862" y="-401" font-family="Helvetica,sans-Serif" font-size="10.00">CreateTriple</text>
</a>
</g>
</g>
<!-- Node2&#45;&gt;Node6 -->
<g id="edge6_Node000006_Node000002" class="edge">
<title>Node2&#45;&gt;Node6</title>
<g id="a_edge6_Node000006_Node000002"><a xlink:title=" ">
<path fill="none" stroke="#9a32cd" stroke-dasharray="5,2" d="M712.66,-443.58C721.29,-439.65 730.92,-435.6 740,-432.5 767.8,-423 800.21,-415.41 824.49,-410.38"/>
<polygon fill="#9a32cd" stroke="#9a32cd" points="710.98,-440.5 703.41,-447.92 713.95,-446.84 710.98,-440.5"/>
</a>
</g>
<text text-anchor="middle" x="765.5" y="-435.5" font-family="Helvetica,sans-Serif" font-size="10.00" fill="grey"> load</text>
</g>
<!-- Node3 -->
<g id="Node000003" class="node">
<title>Node3</title>
<g id="a_Node000003"><a xlink:title=" ">
<polygon fill="white" stroke="#bfbfbf" points="512.5,-486 436.5,-486 436.5,-467 512.5,-467 512.5,-486"/>
<text text-anchor="middle" x="474.5" y="-474" font-family="Helvetica,sans-Serif" font-size="10.00">RDFListener</text>
</a>
</g>
</g>
<!-- Node3&#45;&gt;Node2 -->
<g id="edge2_Node000002_Node000003" class="edge">
<title>Node3&#45;&gt;Node2</title>
<g id="a_edge2_Node000002_Node000003"><a xlink:title=" ">
<path fill="none" stroke="#63b8ff" d="M522.5,-472.19C566.94,-468.11 631.41,-462.19 663.24,-459.27"/>
<polygon fill="#63b8ff" stroke="#63b8ff" points="522.15,-468.7 512.51,-473.1 522.79,-475.67 522.15,-468.7"/>
</a>
</g>
</g>
<!-- Node4 -->
<g id="Node000004" class="node">
<title>Node4</title>
<g id="a_Node000004"><a xlink:title=" ">
<polygon fill="white" stroke="#bfbfbf" points="499.5,-449 449.5,-449 449.5,-430 499.5,-430 499.5,-449"/>
<text text-anchor="middle" x="474.5" y="-437" font-family="Helvetica,sans-Serif" font-size="10.00">Loader</text>
</a>
</g>
</g>
<!-- Node4&#45;&gt;Node2 -->
<g id="edge3_Node000002_Node000004" class="edge">
<title>Node4&#45;&gt;Node2</title>
<g id="a_edge3_Node000002_Node000004"><a xlink:title=" ">
<path fill="none" stroke="#63b8ff" d="M509.86,-442.49C553.82,-446.31 628.45,-452.8 663.39,-455.84"/>
<polygon fill="#63b8ff" stroke="#63b8ff" points="509.92,-438.98 499.65,-441.6 509.31,-445.95 509.92,-438.98"/>
</a>
</g>
</g>
<!-- Node5 -->
<g id="Node000005" class="node">
<title>Node5</title>
<g id="a_Node000005"><a xlink:href="classfr_1_1inria_1_1corese_1_1core_1_1load_1_1BuildImpl.html" target="_top" xlink:title="Graph creation Methods are public, Design to be refined.">
<polygon fill="white" stroke="#666666" points="1015,-351 952,-351 952,-332 1015,-332 1015,-351"/>
<text text-anchor="middle" x="983.5" y="-339" font-family="Helvetica,sans-Serif" font-size="10.00">BuildImpl</text>
</a>
</g>
</g>
<!-- Node5&#45;&gt;Node2 -->
<g id="edge4_Node000002_Node000005" class="edge">
<title>Node5&#45;&gt;Node2</title>
<g id="a_edge4_Node000002_Node000005"><a xlink:title=" ">
<path fill="none" stroke="#9a32cd" stroke-dasharray="5,2" d="M972.41,-360.04C961.07,-378.98 940.81,-407.66 915,-422.5 845.35,-462.55 745.13,-461.54 703.62,-459.06"/>
<polygon fill="#9a32cd" stroke="#9a32cd" points="975.58,-361.56 977.52,-351.14 969.5,-358.08 975.58,-361.56"/>
</a>
</g>
<text text-anchor="middle" x="862" y="-457.5" font-family="Helvetica,sans-Serif" font-size="10.00" fill="grey"> build</text>
</g>
<!-- Node6&#45;&gt;Node5 -->
<g id="edge5_Node000005_Node000006" class="edge">
<title>Node6&#45;&gt;Node5</title>
<g id="a_edge5_Node000005_Node000006"><a xlink:title=" ">
<path fill="none" stroke="#63b8ff" d="M906.65,-390.56C915.91,-387.15 925.47,-383.11 934,-378.5 948.16,-370.85 962.61,-359.24 972,-351.07"/>
<polygon fill="#63b8ff" stroke="#63b8ff" points="905.43,-387.27 897.15,-393.88 907.75,-393.88 905.43,-387.27"/>
</a>
</g>
</g>
<!-- Node7 -->
<g id="Node000007" class="node">
<title>Node7</title>
<g id="a_Node000007"><a xlink:href="classfr_1_1inria_1_1corese_1_1core_1_1Graph.html" target="_top" xlink:title="Graph Manager Edges are stored in an index An index is a table: predicate &#45;&gt; List&lt;Edge&gt; Edge List are...">
<polygon fill="white" stroke="#666666" points="706.5,-191 660.5,-191 660.5,-172 706.5,-172 706.5,-191"/>
<text text-anchor="middle" x="683.5" y="-179" font-family="Helvetica,sans-Serif" font-size="10.00">Graph</text>
</a>
</g>
</g>
<!-- Node7&#45;&gt;Node5 -->
<g id="edge32_Node000005_Node000007" class="edge">
<title>Node7&#45;&gt;Node5</title>
<g id="a_edge32_Node000005_Node000007"><a xlink:title=" ">
<path fill="none" stroke="#9a32cd" stroke-dasharray="5,2" d="M693.1,-200.53C709.81,-234.95 750.25,-306.85 809,-337.5 854.28,-361.12 915.66,-355.22 951.97,-348.53"/>
<polygon fill="#9a32cd" stroke="#9a32cd" points="696.1,-198.69 688.68,-191.13 689.77,-201.67 696.1,-198.69"/>
</a>
</g>
<text text-anchor="middle" x="862" y="-356.5" font-family="Helvetica,sans-Serif" font-size="10.00" fill="grey"> graph</text>
</g>
<!-- Node7&#45;&gt;Node6 -->
<g id="edge7_Node000006_Node000007" class="edge">
<title>Node7&#45;&gt;Node6</title>
<g id="a_edge7_Node000006_Node000007"><a xlink:title=" ">
<path fill="none" stroke="#9a32cd" stroke-dasharray="5,2" d="M684.02,-201.42C684.21,-240.72 690.53,-328.5 740,-375.5 762.43,-396.81 797.74,-403.03 824.43,-404.38"/>
<polygon fill="#9a32cd" stroke="#9a32cd" points="687.52,-201.31 684.1,-191.28 680.52,-201.25 687.52,-201.31"/>
</a>
</g>
<text text-anchor="middle" x="765.5" y="-402.5" font-family="Helvetica,sans-Serif" font-size="10.00" fill="grey"> graph</text>
</g>
<!-- Node18 -->
<g id="Node000018" class="node">
<title>Node18</title>
<g id="a_Node000018"><a xlink:href="classfr_1_1inria_1_1corese_1_1core_1_1Workflow.html" target="_top" xlink:title="Manage a set of inference engines Loop until no inference is performed It is automatically called whe...">
<polygon fill="white" stroke="#666666" points="893,-89 831,-89 831,-70 893,-70 893,-89"/>
<text text-anchor="middle" x="862" y="-77" font-family="Helvetica,sans-Serif" font-size="10.00">Workflow</text>
</a>
</g>
</g>
<!-- Node7&#45;&gt;Node18 -->
<g id="edge20_Node000018_Node000007" class="edge">
<title>Node7&#45;&gt;Node18</title>
<g id="a_edge20_Node000018_Node000007"><a xlink:title=" ">
<path fill="none" stroke="#9a32cd" stroke-dasharray="5,2" d="M700.82,-164.64C711.33,-154.42 725.67,-141.65 740,-132.5 769.58,-113.62 807.02,-98.38 832.36,-89.17"/>
<polygon fill="#9a32cd" stroke="#9a32cd" points="698.2,-162.31 693.59,-171.85 703.14,-167.26 698.2,-162.31"/>
</a>
</g>
<text text-anchor="middle" x="765.5" y="-135.5" font-family="Helvetica,sans-Serif" font-size="10.00" fill="grey"> graph</text>
</g>
<!-- Node23 -->
<g id="Node000023" class="node">
<title>Node23</title>
<g id="a_Node000023"><a xlink:href="classfr_1_1inria_1_1corese_1_1core_1_1EdgeFactory.html" target="_top" xlink:title=" ">
<polygon fill="white" stroke="#bfbfbf" points="900,-165 824,-165 824,-146 900,-146 900,-165"/>
<text text-anchor="middle" x="862" y="-153" font-family="Helvetica,sans-Serif" font-size="10.00">EdgeFactory</text>
</a>
</g>
</g>
<!-- Node7&#45;&gt;Node23 -->
<g id="edge26_Node000023_Node000007" class="edge">
<title>Node7&#45;&gt;Node23</title>
<g id="a_edge26_Node000023_Node000007"><a xlink:title=" ">
<path fill="none" stroke="#9a32cd" stroke-dasharray="5,2" d="M706.5,-166.34C716.29,-160.48 728.25,-154.47 740,-151.5 767.51,-144.54 799.65,-146.03 823.89,-149"/>
<polygon fill="#9a32cd" stroke="#9a32cd" points="704.43,-163.51 697.85,-171.82 708.17,-169.43 704.43,-163.51"/>
</a>
</g>
<text text-anchor="middle" x="765.5" y="-154.5" font-family="Helvetica,sans-Serif" font-size="10.00" fill="grey"> graph</text>
</g>
<!-- Node24 -->
<g id="Node000024" class="node">
<title>Node24</title>
<g id="a_Node000024"><a xlink:href="classfr_1_1inria_1_1corese_1_1core_1_1DataStore.html" target="_top" xlink:title="Simple DataStore to define what is the default graph By default it is the union of named graphs It ca...">
<polygon fill="white" stroke="#666666" points="894.5,-217 829.5,-217 829.5,-198 894.5,-198 894.5,-217"/>
<text text-anchor="middle" x="862" y="-205" font-family="Helvetica,sans-Serif" font-size="10.00">DataStore</text>
</a>
</g>
</g>
<!-- Node7&#45;&gt;Node24 -->
<g id="edge28_Node000024_Node000007" class="edge">
<title>Node7&#45;&gt;Node24</title>
<g id="a_edge28_Node000024_Node000007"><a xlink:title=" ">
<path fill="none" stroke="#9a32cd" stroke-dasharray="5,2" d="M705.73,-196.72C715.64,-202.91 727.9,-209.35 740,-212.5 769.6,-220.21 804.64,-217.54 829.38,-213.8"/>
<polygon fill="#9a32cd" stroke="#9a32cd" points="707.63,-193.78 697.36,-191.2 703.78,-199.63 707.63,-193.78"/>
</a>
</g>
<text text-anchor="middle" x="765.5" y="-220.5" font-family="Helvetica,sans-Serif" font-size="10.00" fill="grey"> graph</text>
</g>
<!-- Node8 -->
<g id="Node000008" class="node">
<title>Node8</title>
<g id="a_Node000008"><a xlink:href="classfr_1_1inria_1_1corese_1_1core_1_1GraphObject.html" target="_top" xlink:title=" ">
<polygon fill="white" stroke="#666666" points="513,-301 436,-301 436,-282 513,-282 513,-301"/>
<text text-anchor="middle" x="474.5" y="-289" font-family="Helvetica,sans-Serif" font-size="10.00">GraphObject</text>
</a>
</g>
</g>
<!-- Node8&#45;&gt;Node7 -->
<g id="edge8_Node000007_Node000008" class="edge">
<title>Node8&#45;&gt;Node7</title>
<g id="a_edge8_Node000007_Node000008"><a xlink:title=" ">
<path fill="none" stroke="#63b8ff" d="M522.9,-283.28C554.27,-276.27 595.32,-263.97 627,-243.5 648.6,-229.54 666.99,-205.02 676.2,-191.37"/>
<polygon fill="#63b8ff" stroke="#63b8ff" points="522.12,-279.87 513.07,-285.38 523.58,-286.71 522.12,-279.87"/>
</a>
</g>
</g>
<!-- Node9 -->
<g id="Node000009" class="node">
<title>Node9</title>
<g id="a_Node000009"><a xlink:title=" ">
<polygon fill="white" stroke="#bfbfbf" points="323.5,-301 240.5,-301 240.5,-282 323.5,-282 323.5,-301"/>
<text text-anchor="middle" x="282" y="-289" font-family="Helvetica,sans-Serif" font-size="10.00">PointerObject</text>
</a>
</g>
</g>
<!-- Node9&#45;&gt;Node8 -->
<g id="edge9_Node000008_Node000009" class="edge">
<title>Node9&#45;&gt;Node8</title>
<g id="a_edge9_Node000008_Node000009"><a xlink:title=" ">
<path fill="none" stroke="#63b8ff" d="M333.96,-291.5C366.05,-291.5 406.78,-291.5 435.93,-291.5"/>
<polygon fill="#63b8ff" stroke="#63b8ff" points="333.87,-288 323.87,-291.5 333.87,-295 333.87,-288"/>
</a>
</g>
</g>
<!-- Node10 -->
<g id="Node000010" class="node">
<title>Node10</title>
<g id="a_Node000010"><a xlink:title=" ">
<polygon fill="white" stroke="#bfbfbf" points="525,-264 424,-264 424,-245 525,-245 525,-264"/>
<text text-anchor="middle" x="474.5" y="-252" font-family="Helvetica,sans-Serif" font-size="10.00">Iterable&lt; Edge &gt;</text>
</a>
</g>
</g>
<!-- Node10&#45;&gt;Node7 -->
<g id="edge10_Node000007_Node000010" class="edge">
<title>Node10&#45;&gt;Node7</title>
<g id="a_edge10_Node000007_Node000010"><a xlink:title=" ">
<path fill="none" stroke="#63b8ff" d="M535.06,-244.12C563.57,-238.02 597.78,-229 627,-216.5 642.71,-209.78 659.06,-198.92 669.91,-191.08"/>
<polygon fill="#63b8ff" stroke="#63b8ff" points="534.31,-240.7 525.23,-246.16 535.73,-247.56 534.31,-240.7"/>
</a>
</g>
</g>
<!-- Node11 -->
<g id="Node000011" class="node">
<title>Node11</title>
<g id="a_Node000011"><a xlink:href="interfacefr_1_1inria_1_1corese_1_1core_1_1sparql_1_1api_1_1Graph.html" target="_top" xlink:title=" ">
<polygon fill="white" stroke="#666666" points="497.5,-227 451.5,-227 451.5,-208 497.5,-208 497.5,-227"/>
<text text-anchor="middle" x="474.5" y="-215" font-family="Helvetica,sans-Serif" font-size="10.00">Graph</text>
</a>
</g>
</g>
<!-- Node11&#45;&gt;Node7 -->
<g id="edge11_Node000007_Node000011" class="edge">
<title>Node11&#45;&gt;Node7</title>
<g id="a_edge11_Node000007_Node000011"><a xlink:title=" ">
<path fill="none" stroke="#63b8ff" d="M507.85,-213.78C538.64,-210.01 586.19,-203.59 627,-195.5 638.11,-193.3 650.33,-190.28 660.47,-187.61"/>
<polygon fill="#63b8ff" stroke="#63b8ff" points="507.21,-210.33 497.7,-215 508.05,-217.28 507.21,-210.33"/>
</a>
</g>
</g>
<!-- Node12 -->
<g id="Node000012" class="node">
<title>Node12</title>
<g id="a_Node000012"><a xlink:href="interfacefr_1_1inria_1_1corese_1_1core_1_1kgram_1_1api_1_1core_1_1Graph.html" target="_top" xlink:title=" ">
<polygon fill="white" stroke="#bfbfbf" points="305,-227 259,-227 259,-208 305,-208 305,-227"/>
<text text-anchor="middle" x="282" y="-215" font-family="Helvetica,sans-Serif" font-size="10.00">Graph</text>
</a>
</g>
</g>
<!-- Node12&#45;&gt;Node11 -->
<g id="edge12_Node000011_Node000012" class="edge">
<title>Node12&#45;&gt;Node11</title>
<g id="a_edge12_Node000011_Node000012"><a xlink:title=" ">
<path fill="none" stroke="#63b8ff" d="M315.44,-217.5C354.19,-217.5 417.95,-217.5 451.42,-217.5"/>
<polygon fill="#63b8ff" stroke="#63b8ff" points="315.23,-214 305.23,-217.5 315.23,-221 315.23,-214"/>
</a>
</g>
</g>
<!-- Node13 -->
<g id="Node000013" class="node">
<title>Node13</title>
<g id="a_Node000013"><a xlink:title=" ">
<polygon fill="white" stroke="#bfbfbf" points="508,-190 441,-190 441,-171 508,-171 508,-190"/>
<text text-anchor="middle" x="474.5" y="-178" font-family="Helvetica,sans-Serif" font-size="10.00">Graphable</text>
</a>
</g>
</g>
<!-- Node13&#45;&gt;Node7 -->
<g id="edge13_Node000007_Node000013" class="edge">
<title>Node13&#45;&gt;Node7</title>
<g id="a_edge13_Node000007_Node000013"><a xlink:title=" ">
<path fill="none" stroke="#63b8ff" d="M518.52,-180.71C561.73,-180.92 626.62,-181.23 660.36,-181.39"/>
<polygon fill="#63b8ff" stroke="#63b8ff" points="518.32,-177.21 508.3,-180.66 518.28,-184.21 518.32,-177.21"/>
</a>
</g>
</g>
<!-- Node14 -->
<g id="Node000014" class="node">
<title>Node14</title>
<g id="a_Node000014"><a xlink:title=" ">
<polygon fill="white" stroke="#bfbfbf" points="508.5,-153 440.5,-153 440.5,-134 508.5,-134 508.5,-153"/>
<text text-anchor="middle" x="474.5" y="-141" font-family="Helvetica,sans-Serif" font-size="10.00">TripleStore</text>
</a>
</g>
</g>
<!-- Node14&#45;&gt;Node7 -->
<g id="edge14_Node000007_Node000014" class="edge">
<title>Node14&#45;&gt;Node7</title>
<g id="a_edge14_Node000007_Node000014"><a xlink:title=" ">
<path fill="none" stroke="#63b8ff" d="M518.72,-151.43C561.98,-159.38 626.81,-171.28 660.46,-177.45"/>
<polygon fill="#63b8ff" stroke="#63b8ff" points="519.23,-147.97 508.76,-149.61 517.96,-154.85 519.23,-147.97"/>
</a>
</g>
</g>
<!-- Node15 -->
<g id="Node000015" class="node">
<title>Node15</title>
<g id="a_Node000015"><a xlink:href="classfr_1_1inria_1_1corese_1_1core_1_1NodeGraphIndex.html" target="_top" xlink:title="Manage Nodes of a graph, for each graph name.">
<polygon fill="white" stroke="#666666" points="523.5,-116 425.5,-116 425.5,-97 523.5,-97 523.5,-116"/>
<text text-anchor="middle" x="474.5" y="-104" font-family="Helvetica,sans-Serif" font-size="10.00">NodeGraphIndex</text>
</a>
</g>
</g>
<!-- Node15&#45;&gt;Node7 -->
<g id="edge15_Node000007_Node000015" class="edge">
<title>Node15&#45;&gt;Node7</title>
<g id="a_edge15_Node000007_Node000015"><a xlink:title=" ">
<path fill="none" stroke="#9a32cd" stroke-dasharray="5,2" d="M533.72,-114.99C562.62,-120.53 597.56,-129.25 627,-142.5 643.75,-150.04 660.7,-162.87 671.38,-171.75"/>
<polygon fill="#9a32cd" stroke="#9a32cd" points="534.23,-111.53 523.76,-113.17 532.97,-118.41 534.23,-111.53"/>
</a>
</g>
<text text-anchor="middle" x="585" y="-145.5" font-family="Helvetica,sans-Serif" font-size="10.00" fill="grey"> nodeGraphIndex</text>
</g>
<!-- Node16 -->
<g id="Node000016" class="node">
<title>Node16</title>
<g id="a_Node000016"><a xlink:title=" ">
<polygon fill="white" stroke="#bfbfbf" points="360,-116 204,-116 204,-97 360,-97 360,-116"/>
<text text-anchor="middle" x="282" y="-104" font-family="Helvetica,sans-Serif" font-size="10.00">NodeGraphIndex.GraphTable</text>
</a>
</g>
</g>
<!-- Node16&#45;&gt;Node15 -->
<g id="edge16_Node000015_Node000016" class="edge">
<title>Node16&#45;&gt;Node15</title>
<g id="a_edge16_Node000015_Node000016"><a xlink:title=" ">
<path fill="none" stroke="#9a32cd" stroke-dasharray="5,2" d="M370.37,-106.5C389.33,-106.5 408.71,-106.5 425.47,-106.5"/>
<polygon fill="#9a32cd" stroke="#9a32cd" points="370.21,-103 360.21,-106.5 370.21,-110 370.21,-103"/>
</a>
</g>
<text text-anchor="middle" x="392" y="-109.5" font-family="Helvetica,sans-Serif" font-size="10.00" fill="grey"> table</text>
</g>
<!-- Node17 -->
<g id="Node000017" class="node">
<title>Node17</title>
<g id="a_Node000017"><a xlink:title=" ">
<polygon fill="white" stroke="#bfbfbf" points="167,-116 0,-116 0,-97 167,-97 167,-116"/>
<text text-anchor="middle" x="83.5" y="-104" font-family="Helvetica,sans-Serif" font-size="10.00">HashMap&lt; Node, NodeTable &gt;</text>
</a>
</g>
</g>
<!-- Node17&#45;&gt;Node16 -->
<g id="edge17_Node000016_Node000017" class="edge">
<title>Node17&#45;&gt;Node16</title>
<g id="a_edge17_Node000016_Node000017"><a xlink:title=" ">
<path fill="none" stroke="#63b8ff" d="M177.3,-106.5C186.23,-106.5 195.22,-106.5 203.97,-106.5"/>
<polygon fill="#63b8ff" stroke="#63b8ff" points="177.26,-103 167.26,-106.5 177.26,-110 177.26,-103"/>
</a>
</g>
</g>
<!-- Node18&#45;&gt;Node7 -->
<g id="edge18_Node000007_Node000018" class="edge">
<title>Node18&#45;&gt;Node7</title>
<g id="a_edge18_Node000007_Node000018"><a xlink:title=" ">
<path fill="none" stroke="#9a32cd" stroke-dasharray="5,2" d="M820.99,-70.1C795.99,-66.47 764.1,-66.11 740,-80.5 705.82,-100.91 691.24,-150.62 686.44,-171.74"/>
<polygon fill="#9a32cd" stroke="#9a32cd" points="820.45,-73.56 830.89,-71.76 821.61,-66.65 820.45,-73.56"/>
</a>
</g>
<text text-anchor="middle" x="765.5" y="-83.5" font-family="Helvetica,sans-Serif" font-size="10.00" fill="grey"> manager</text>
</g>
<!-- Node19 -->
<g id="Node000019" class="node">
<title>Node19</title>
<g id="a_Node000019"><a xlink:title=" ">
<polygon fill="white" stroke="#bfbfbf" points="708.5,-56 658.5,-56 658.5,-37 708.5,-37 708.5,-56"/>
<text text-anchor="middle" x="683.5" y="-44" font-family="Helvetica,sans-Serif" font-size="10.00">Engine</text>
</a>
</g>
</g>
<!-- Node19&#45;&gt;Node18 -->
<g id="edge19_Node000018_Node000019" class="edge">
<title>Node19&#45;&gt;Node18</title>
<g id="a_edge19_Node000018_Node000019"><a xlink:title=" ">
<path fill="none" stroke="#63b8ff" d="M718.8,-49.82C739.77,-52.15 767.07,-55.7 791,-60.5 804.21,-63.15 818.61,-66.9 830.89,-70.37"/>
<polygon fill="#63b8ff" stroke="#63b8ff" points="719.08,-46.33 708.76,-48.75 718.33,-53.3 719.08,-46.33"/>
</a>
</g>
</g>
<!-- Node20 -->
<g id="Node000020" class="node">
<title>Node20</title>
<g id="a_Node000020"><a xlink:href="classfr_1_1inria_1_1corese_1_1core_1_1EventManager.html" target="_top" xlink:title="Event Manager for consistency and trace Update and Inference are tracked Debug mode traces events Sho...">
<polygon fill="white" stroke="#666666" points="518,-53 431,-53 431,-34 518,-34 518,-53"/>
<text text-anchor="middle" x="474.5" y="-41" font-family="Helvetica,sans-Serif" font-size="10.00">EventManager</text>
</a>
</g>
</g>
<!-- Node20&#45;&gt;Node7 -->
<g id="edge21_Node000007_Node000020" class="edge">
<title>Node20&#45;&gt;Node7</title>
<g id="a_edge21_Node000007_Node000020"><a xlink:title=" ">
<path fill="none" stroke="#9a32cd" stroke-dasharray="5,2" d="M526.88,-55.84C558.13,-65.19 597.57,-80.43 627,-103.5 651.59,-122.77 670,-155.8 678.04,-171.99"/>
<polygon fill="#9a32cd" stroke="#9a32cd" points="527.62,-52.41 517.04,-53.01 525.68,-59.14 527.62,-52.41"/>
</a>
</g>
<text text-anchor="middle" x="585" y="-106.5" font-family="Helvetica,sans-Serif" font-size="10.00" fill="grey"> eventManager</text>
</g>
<!-- Node22 -->
<g id="Node000022" class="node">
<title>Node22</title>
<g id="a_Node000022"><a xlink:href="classfr_1_1inria_1_1corese_1_1core_1_1EventLogger.html" target="_top" xlink:title=" ">
<polygon fill="white" stroke="#666666" points="722,-19 645,-19 645,0 722,0 722,-19"/>
<text text-anchor="middle" x="683.5" y="-7" font-family="Helvetica,sans-Serif" font-size="10.00">EventLogger</text>
</a>
</g>
</g>
<!-- Node20&#45;&gt;Node22 -->
<g id="edge24_Node000022_Node000020" class="edge">
<title>Node20&#45;&gt;Node22</title>
<g id="a_edge24_Node000022_Node000020"><a xlink:title=" ">
<path fill="none" stroke="#9a32cd" stroke-dasharray="5,2" d="M528.06,-36.77C557.28,-32.8 594.24,-27.41 627,-21.5 632.82,-20.45 638.96,-19.23 644.95,-17.98"/>
<polygon fill="#9a32cd" stroke="#9a32cd" points="527.52,-33.31 518.07,-38.11 528.45,-40.25 527.52,-33.31"/>
</a>
</g>
<text text-anchor="middle" x="585" y="-37.5" font-family="Helvetica,sans-Serif" font-size="10.00" fill="grey"> mgr</text>
</g>
<!-- Node21 -->
<g id="Node000021" class="node">
<title>Node21</title>
<g id="a_Node000021"><a xlink:href="interfacefr_1_1inria_1_1corese_1_1core_1_1EventHandler.html" target="_top" xlink:title=" ">
<polygon fill="white" stroke="#bfbfbf" points="323.5,-53 240.5,-53 240.5,-34 323.5,-34 323.5,-53"/>
<text text-anchor="middle" x="282" y="-41" font-family="Helvetica,sans-Serif" font-size="10.00">EventHandler</text>
</a>
</g>
</g>
<!-- Node21&#45;&gt;Node20 -->
<g id="edge22_Node000020_Node000021" class="edge">
<title>Node21&#45;&gt;Node20</title>
<g id="a_edge22_Node000020_Node000021"><a xlink:title=" ">
<path fill="none" stroke="#63b8ff" d="M334.2,-43.5C364.38,-43.5 402.13,-43.5 430.72,-43.5"/>
<polygon fill="#63b8ff" stroke="#63b8ff" points="333.87,-40 323.87,-43.5 333.87,-47 333.87,-40"/>
</a>
</g>
</g>
<!-- Node22&#45;&gt;Node20 -->
<g id="edge23_Node000020_Node000022" class="edge">
<title>Node22&#45;&gt;Node20</title>
<g id="a_edge23_Node000020_Node000022"><a xlink:title=" ">
<path fill="none" stroke="#9a32cd" stroke-dasharray="5,2" d="M634.9,-4.65C607.64,-3.16 573,-3.45 543,-10.5 523.57,-15.07 503.26,-25.96 490.05,-33.99"/>
<polygon fill="#9a32cd" stroke="#9a32cd" points="634.75,-8.15 644.96,-5.3 635.2,-1.16 634.75,-8.15"/>
</a>
</g>
<text text-anchor="middle" x="585" y="-13.5" font-family="Helvetica,sans-Serif" font-size="10.00" fill="grey"> log</text>
</g>
<!-- Node23&#45;&gt;Node7 -->
<g id="edge25_Node000007_Node000023" class="edge">
<title>Node23&#45;&gt;Node7</title>
<g id="a_edge25_Node000007_Node000023"><a xlink:title=" ">
<path fill="none" stroke="#9a32cd" stroke-dasharray="5,2" d="M813.83,-162.45C779.17,-167.55 733.62,-174.26 706.85,-178.21"/>
<polygon fill="#9a32cd" stroke="#9a32cd" points="814.37,-165.91 823.75,-160.99 813.35,-158.98 814.37,-165.91"/>
</a>
</g>
<text text-anchor="middle" x="765.5" y="-176.5" font-family="Helvetica,sans-Serif" font-size="10.00" fill="grey"> fac</text>
</g>
<!-- Node24&#45;&gt;Node7 -->
<g id="edge27_Node000007_Node000024" class="edge">
<title>Node24&#45;&gt;Node7</title>
<g id="a_edge27_Node000007_Node000024"><a xlink:title=" ">
<path fill="none" stroke="#9a32cd" stroke-dasharray="5,2" d="M819.31,-201.36C784.11,-196.17 735.05,-188.95 706.85,-184.79"/>
<polygon fill="#9a32cd" stroke="#9a32cd" points="818.89,-204.83 829.3,-202.83 819.91,-197.91 818.89,-204.83"/>
</a>
</g>
<text text-anchor="middle" x="765.5" y="-200.5" font-family="Helvetica,sans-Serif" font-size="10.00" fill="grey"> dataStore</text>
</g>
<!-- Node25 -->
<g id="Node000025" class="node">
<title>Node25</title>
<g id="a_Node000025"><a xlink:href="interfacefr_1_1inria_1_1corese_1_1core_1_1load_1_1Build.html" target="_top" xlink:title="Translate an RDF/XML document into a Graph.">
<polygon fill="white" stroke="#666666" points="882.5,-328 841.5,-328 841.5,-309 882.5,-309 882.5,-328"/>
<text text-anchor="middle" x="862" y="-316" font-family="Helvetica,sans-Serif" font-size="10.00">Build</text>
</a>
</g>
</g>
<!-- Node25&#45;&gt;Node5 -->
<g id="edge29_Node000005_Node000025" class="edge">
<title>Node25&#45;&gt;Node5</title>
<g id="a_edge29_Node000005_Node000025"><a xlink:title=" ">
<path fill="none" stroke="#63b8ff" d="M892.72,-324.22C910.77,-327.69 933.77,-332.12 951.97,-335.62"/>
<polygon fill="#63b8ff" stroke="#63b8ff" points="893.21,-320.75 882.73,-322.3 891.89,-327.62 893.21,-320.75"/>
</a>
</g>
</g>
<!-- Node26 -->
<g id="Node000026" class="node">
<title>Node26</title>
<g id="a_Node000026"><a xlink:title=" ">
<polygon fill="white" stroke="#bfbfbf" points="915,-291 809,-291 809,-272 915,-272 915,-291"/>
<text text-anchor="middle" x="862" y="-279" font-family="Helvetica,sans-Serif" font-size="10.00">StatementHandler</text>
</a>
</g>
</g>
<!-- Node26&#45;&gt;Node5 -->
<g id="edge30_Node000005_Node000026" class="edge">
<title>Node26&#45;&gt;Node5</title>
<g id="a_edge30_Node000005_Node000026"><a xlink:title=" ">
<path fill="none" stroke="#63b8ff" d="M901.97,-294.79C906.42,-296.59 910.84,-298.5 915,-300.5 934.28,-309.77 955.13,-322.96 968.47,-331.86"/>
<polygon fill="#63b8ff" stroke="#63b8ff" points="902.89,-291.39 892.3,-291.07 900.37,-297.93 902.89,-291.39"/>
</a>
</g>
</g>
<!-- Node27 -->
<g id="Node000027" class="node">
<title>Node27</title>
<g id="a_Node000027"><a xlink:title=" ">
<polygon fill="white" stroke="#bfbfbf" points="901,-254 823,-254 823,-235 901,-235 901,-254"/>
<text text-anchor="middle" x="862" y="-242" font-family="Helvetica,sans-Serif" font-size="10.00">ErrorHandler</text>
</a>
</g>
</g>
<!-- Node27&#45;&gt;Node5 -->
<g id="edge31_Node000005_Node000027" class="edge">
<title>Node27&#45;&gt;Node5</title>
<g id="a_edge31_Node000005_Node000027"><a xlink:title=" ">
<path fill="none" stroke="#63b8ff" d="M907.99,-258.3C910.43,-259.59 912.78,-260.99 915,-262.5 943.02,-281.61 966.29,-315.26 976.67,-331.78"/>
<polygon fill="#63b8ff" stroke="#63b8ff" points="909.44,-255.12 898.9,-254.09 906.5,-261.47 909.44,-255.12"/>
</a>
</g>
</g>
</g>
</svg>
