<?xml version="1.0" encoding="UTF-8" standalone="no"?>
<!DOCTYPE svg PUBLIC "-//W3C//DTD SVG 1.1//EN"
 "http://www.w3.org/Graphics/SVG/1.1/DTD/svg11.dtd">
<!-- Generated by graphviz version 2.43.0 (0)
 -->
<!-- Title: QueryResultFormat Pages: 1 -->
<svg width="411pt" height="137pt"
 viewBox="0.00 0.00 411.00 137.00" xmlns="http://www.w3.org/2000/svg" xmlns:xlink="http://www.w3.org/1999/xlink">

<svg id="main" version="1.1" xmlns="http://www.w3.org/2000/svg" xmlns:xlink="http://www.w3.org/1999/xlink" xml:space="preserve" onload="init(evt)">
<style type="text/css"><![CDATA[
.node, .edge {opacity: 0.7;}
.node.selected, .edge.selected {opacity: 1;}
.edge:hover path { stroke: red; }
.edge:hover polygon { stroke: red; fill: red; }
]]></style>
<script type="application/ecmascript" xlink:href="svg.min.js"/>
<svg id="graph" class="graph">
<g id="graph0" class="graph" transform="scale(1 1) rotate(0) translate(4 133)">
<title>QueryResultFormat</title>
<!-- Node1 -->
<g id="Node000001" class="node">
<title>Node1</title>
<g id="a_Node000001"><a xlink:title="Root class for Result Format.">
<polygon fill="#999999" stroke="#666666" points="256,-129 145,-129 145,-110 256,-110 256,-129"/>
<text text-anchor="middle" x="200.5" y="-117" font-family="Helvetica,sans-Serif" font-size="10.00">QueryResultFormat</text>
</a>
</g>
</g>
<!-- Node2 -->
<g id="Node000002" class="node">
<title>Node2</title>
<g id="a_Node000002"><a xlink:href="classfr_1_1inria_1_1corese_1_1core_1_1print_1_1CSVFormat.html" target="_top" xlink:title=" ">
<polygon fill="white" stroke="#bfbfbf" points="71,-74 0,-74 0,-55 71,-55 71,-74"/>
<text text-anchor="middle" x="35.5" y="-62" font-family="Helvetica,sans-Serif" font-size="10.00">CSVFormat</text>
</a>
</g>
</g>
<!-- Node1&#45;&gt;Node2 -->
<g id="edge1_Node000001_Node000002" class="edge">
<title>Node1&#45;&gt;Node2</title>
<g id="a_edge1_Node000001_Node000002"><a xlink:title=" ">
<path fill="none" stroke="#63b8ff" d="M164.07,-106.8C133.28,-96.91 89.88,-82.97 62.22,-74.08"/>
<polygon fill="#63b8ff" stroke="#63b8ff" points="163.4,-110.26 173.99,-109.98 165.54,-103.59 163.4,-110.26"/>
</a>
</g>
</g>
<!-- Node4 -->
<g id="Node000004" class="node">
<title>Node4</title>
<g id="a_Node000004"><a xlink:href="classfr_1_1inria_1_1corese_1_1core_1_1print_1_1MarkdownFormat.html" target="_top" xlink:title="Format the results of a SPARQL query in Markdown.">
<polygon fill="white" stroke="#666666" points="191.5,-74 89.5,-74 89.5,-55 191.5,-55 191.5,-74"/>
<text text-anchor="middle" x="140.5" y="-62" font-family="Helvetica,sans-Serif" font-size="10.00">MarkdownFormat</text>
</a>
</g>
</g>
<!-- Node1&#45;&gt;Node4 -->
<g id="edge3_Node000001_Node000004" class="edge">
<title>Node1&#45;&gt;Node4</title>
<g id="a_edge3_Node000001_Node000004"><a xlink:title=" ">
<path fill="none" stroke="#63b8ff" d="M183.32,-103.32C172.62,-93.87 159.24,-82.06 150.32,-74.17"/>
<polygon fill="#63b8ff" stroke="#63b8ff" points="181.05,-105.99 190.86,-109.98 185.68,-100.74 181.05,-105.99"/>
</a>
</g>
</g>
<!-- Node5 -->
<g id="Node000005" class="node">
<title>Node5</title>
<g id="a_Node000005"><a xlink:href="classfr_1_1inria_1_1corese_1_1core_1_1print_1_1RDFResultFormat.html" target="_top" xlink:title="Generate Turtle W3C RDF Format for Mappings (bindings in RDF)">
<polygon fill="white" stroke="#666666" points="311.5,-74 209.5,-74 209.5,-55 311.5,-55 311.5,-74"/>
<text text-anchor="middle" x="260.5" y="-62" font-family="Helvetica,sans-Serif" font-size="10.00">RDFResultFormat</text>
</a>
</g>
</g>
<!-- Node1&#45;&gt;Node5 -->
<g id="edge4_Node000001_Node000005" class="edge">
<title>Node1&#45;&gt;Node5</title>
<g id="a_edge4_Node000001_Node000005"><a xlink:title=" ">
<path fill="none" stroke="#63b8ff" d="M217.68,-103.32C228.38,-93.87 241.76,-82.06 250.68,-74.17"/>
<polygon fill="#63b8ff" stroke="#63b8ff" points="215.32,-100.74 210.14,-109.98 219.95,-105.99 215.32,-100.74"/>
</a>
</g>
</g>
<!-- Node6 -->
<g id="Node000006" class="node">
<title>Node6</title>
<g id="a_Node000006"><a xlink:href="classfr_1_1inria_1_1corese_1_1core_1_1print_1_1XMLFormat.html" target="_top" xlink:title="SPARQL XML Result Format for KGRAM Mappings.">
<polygon fill="white" stroke="#666666" points="401.5,-74 329.5,-74 329.5,-55 401.5,-55 401.5,-74"/>
<text text-anchor="middle" x="365.5" y="-62" font-family="Helvetica,sans-Serif" font-size="10.00">XMLFormat</text>
</a>
</g>
</g>
<!-- Node1&#45;&gt;Node6 -->
<g id="edge5_Node000001_Node000006" class="edge">
<title>Node1&#45;&gt;Node6</title>
<g id="a_edge5_Node000001_Node000006"><a xlink:title=" ">
<path fill="none" stroke="#63b8ff" d="M236.93,-106.8C267.72,-96.91 311.12,-82.97 338.78,-74.08"/>
<polygon fill="#63b8ff" stroke="#63b8ff" points="235.46,-103.59 227.01,-109.98 237.6,-110.26 235.46,-103.59"/>
</a>
</g>
</g>
<!-- Node3 -->
<g id="Node000003" class="node">
<title>Node3</title>
<g id="a_Node000003"><a xlink:href="classfr_1_1inria_1_1corese_1_1core_1_1print_1_1TSVFormat.html" target="_top" xlink:title=" ">
<polygon fill="white" stroke="#bfbfbf" points="70.5,-19 0.5,-19 0.5,0 70.5,0 70.5,-19"/>
<text text-anchor="middle" x="35.5" y="-7" font-family="Helvetica,sans-Serif" font-size="10.00">TSVFormat</text>
</a>
</g>
</g>
<!-- Node2&#45;&gt;Node3 -->
<g id="edge2_Node000002_Node000003" class="edge">
<title>Node2&#45;&gt;Node3</title>
<g id="a_edge2_Node000002_Node000003"><a xlink:title=" ">
<path fill="none" stroke="#63b8ff" d="M35.5,-44.66C35.5,-35.93 35.5,-25.99 35.5,-19.09"/>
<polygon fill="#63b8ff" stroke="#63b8ff" points="32,-44.75 35.5,-54.75 39,-44.75 32,-44.75"/>
</a>
</g>
</g>
<!-- Node7 -->
<g id="Node000007" class="node">
<title>Node7</title>
<g id="a_Node000007"><a xlink:href="classfr_1_1inria_1_1corese_1_1core_1_1print_1_1JSONFormat.html" target="_top" xlink:title="SPARQL JSON Result Format for KGRAM Mappings.">
<polygon fill="white" stroke="#666666" points="403,-19 328,-19 328,0 403,0 403,-19"/>
<text text-anchor="middle" x="365.5" y="-7" font-family="Helvetica,sans-Serif" font-size="10.00">JSONFormat</text>
</a>
</g>
</g>
<!-- Node6&#45;&gt;Node7 -->
<g id="edge6_Node000006_Node000007" class="edge">
<title>Node6&#45;&gt;Node7</title>
<g id="a_edge6_Node000006_Node000007"><a xlink:title=" ">
<path fill="none" stroke="#63b8ff" d="M365.5,-44.66C365.5,-35.93 365.5,-25.99 365.5,-19.09"/>
<polygon fill="#63b8ff" stroke="#63b8ff" points="362,-44.75 365.5,-54.75 369,-44.75 362,-44.75"/>
</a>
</g>
</g>
</g>
</svg>
</svg>

<style type='text/css'>
<![CDATA[
[data-mouse-over-selected='false'] { opacity: 0.7; }
[data-mouse-over-selected='true']  { opacity: 1.0; }
]]>
</style>
<script type="application/ecmascript"><![CDATA[
document.addEventListener('DOMContentLoaded', (event) => {
  highlightEdges();
  highlightAdjacentNodes();
});
]]></script>
</svg>
