<?xml version="1.0" encoding="UTF-8" standalone="no"?>
<!DOCTYPE svg PUBLIC "-//W3C//DTD SVG 1.1//EN"
 "http://www.w3.org/Graphics/SVG/1.1/DTD/svg11.dtd">
<!-- Generated by graphviz version 2.43.0 (0)
 -->
<!-- Title: Load Pages: 1 -->
<svg width="1127pt" height="508pt"
 viewBox="0.00 0.00 1127.00 507.50" xmlns="http://www.w3.org/2000/svg" xmlns:xlink="http://www.w3.org/1999/xlink">
<g id="graph0" class="graph" transform="scale(1 1) rotate(0) translate(4 503.5)">
<title>Load</title>
<!-- Node1 -->
<g id="Node000001" class="node">
<title>Node1</title>
<g id="a_Node000001"><a xlink:title="Translate an RDF/XML document into a Graph use ARP.">
<polygon fill="#999999" stroke="#666666" points="1119,-411 1079,-411 1079,-392 1119,-392 1119,-411"/>
<text text-anchor="middle" x="1099" y="-399" font-family="Helvetica,sans-Serif" font-size="10.00">Load</text>
</a>
</g>
</g>
<!-- Node2 -->
<g id="Node000002" class="node">
<title>Node2</title>
<g id="a_Node000002"><a xlink:title=" ">
<polygon fill="white" stroke="#bfbfbf" points="512.5,-488 436.5,-488 436.5,-469 512.5,-469 512.5,-488"/>
<text text-anchor="middle" x="474.5" y="-476" font-family="Helvetica,sans-Serif" font-size="10.00">RDFListener</text>
</a>
</g>
</g>
<!-- Node2&#45;&gt;Node1 -->
<g id="edge1_Node000001_Node000002" class="edge">
<title>Node2&#45;&gt;Node1</title>
<g id="a_edge1_Node000001_Node000002"><a xlink:title=" ">
<path fill="none" stroke="#63b8ff" d="M522.69,-486.03C564.56,-492.05 627.44,-499.5 682.5,-499.5 682.5,-499.5 682.5,-499.5 984.5,-499.5 1038.13,-499.5 1078.94,-436.04 1092.84,-411.25"/>
<polygon fill="#63b8ff" stroke="#63b8ff" points="523.18,-482.56 512.78,-484.57 522.16,-489.49 523.18,-482.56"/>
</a>
</g>
</g>
<!-- Node6 -->
<g id="Node000006" class="node">
<title>Node6</title>
<g id="a_Node000006"><a xlink:href="classfr_1_1inria_1_1corese_1_1core_1_1load_1_1Load.html" target="_top" xlink:title="Translate an RDF/XML document into a Graph use ARP.">
<polygon fill="white" stroke="#666666" points="703.5,-458 663.5,-458 663.5,-439 703.5,-439 703.5,-458"/>
<text text-anchor="middle" x="683.5" y="-446" font-family="Helvetica,sans-Serif" font-size="10.00">Load</text>
</a>
</g>
</g>
<!-- Node2&#45;&gt;Node6 -->
<g id="edge6_Node000006_Node000002" class="edge">
<title>Node2&#45;&gt;Node6</title>
<g id="a_edge6_Node000006_Node000002"><a xlink:title=" ">
<path fill="none" stroke="#63b8ff" d="M522.5,-471.69C566.94,-465.25 631.41,-455.9 663.24,-451.29"/>
<polygon fill="#63b8ff" stroke="#63b8ff" points="521.9,-468.24 512.51,-473.14 522.91,-475.17 521.9,-468.24"/>
</a>
</g>
</g>
<!-- Node3 -->
<g id="Node000003" class="node">
<title>Node3</title>
<g id="a_Node000003"><a xlink:title=" ">
<polygon fill="white" stroke="#bfbfbf" points="499.5,-420 449.5,-420 449.5,-401 499.5,-401 499.5,-420"/>
<text text-anchor="middle" x="474.5" y="-408" font-family="Helvetica,sans-Serif" font-size="10.00">Loader</text>
</a>
</g>
</g>
<!-- Node3&#45;&gt;Node1 -->
<g id="edge2_Node000001_Node000003" class="edge">
<title>Node3&#45;&gt;Node1</title>
<g id="a_edge2_Node000001_Node000003"><a xlink:title=" ">
<path fill="none" stroke="#63b8ff" d="M509.72,-408.1C550.75,-405.43 621.61,-401.5 682.5,-401.5 682.5,-401.5 682.5,-401.5 984.5,-401.5 1017.6,-401.5 1056.14,-401.5 1078.72,-401.5"/>
<polygon fill="#63b8ff" stroke="#63b8ff" points="509.45,-404.61 499.71,-408.76 509.91,-411.6 509.45,-404.61"/>
</a>
</g>
</g>
<!-- Node3&#45;&gt;Node6 -->
<g id="edge7_Node000006_Node000003" class="edge">
<title>Node3&#45;&gt;Node6</title>
<g id="a_edge7_Node000006_Node000003"><a xlink:title=" ">
<path fill="none" stroke="#63b8ff" d="M509.58,-416.76C553.5,-424.82 628.37,-438.56 663.39,-444.99"/>
<polygon fill="#63b8ff" stroke="#63b8ff" points="510.12,-413.3 499.65,-414.93 508.85,-420.18 510.12,-413.3"/>
</a>
</g>
</g>
<!-- Node4 -->
<g id="Node000004" class="node">
<title>Node4</title>
<g id="a_Node000004"><a xlink:href="classfr_1_1inria_1_1corese_1_1core_1_1load_1_1BuildImpl.html" target="_top" xlink:title="Graph creation Methods are public, Design to be refined.">
<polygon fill="white" stroke="#666666" points="1015,-299 952,-299 952,-280 1015,-280 1015,-299"/>
<text text-anchor="middle" x="983.5" y="-287" font-family="Helvetica,sans-Serif" font-size="10.00">BuildImpl</text>
</a>
</g>
</g>
<!-- Node4&#45;&gt;Node1 -->
<g id="edge3_Node000001_Node000004" class="edge">
<title>Node4&#45;&gt;Node1</title>
<g id="a_edge3_Node000001_Node000004"><a xlink:title=" ">
<path fill="none" stroke="#9a32cd" stroke-dasharray="5,2" d="M1001.57,-306.35C1025.73,-330.19 1069.1,-372.98 1088.35,-391.98"/>
<polygon fill="#9a32cd" stroke="#9a32cd" points="1003.75,-303.58 994.18,-299.05 998.84,-308.56 1003.75,-303.58"/>
</a>
</g>
<text text-anchor="middle" x="1047" y="-365.5" font-family="Helvetica,sans-Serif" font-size="10.00" fill="grey"> build</text>
</g>
<!-- Node4&#45;&gt;Node6 -->
<g id="edge8_Node000006_Node000004" class="edge">
<title>Node4&#45;&gt;Node6</title>
<g id="a_edge8_Node000006_Node000004"><a xlink:title=" ">
<path fill="none" stroke="#9a32cd" stroke-dasharray="5,2" d="M972.81,-308.02C961.36,-328.38 940.6,-360.9 915,-381.5 868.03,-419.3 849.19,-420.72 791,-436.5 761.19,-444.58 725.26,-447.23 703.68,-448.09"/>
<polygon fill="#9a32cd" stroke="#9a32cd" points="975.95,-309.57 977.66,-299.12 969.8,-306.22 975.95,-309.57"/>
</a>
</g>
<text text-anchor="middle" x="862" y="-434.5" font-family="Helvetica,sans-Serif" font-size="10.00" fill="grey"> build</text>
</g>
<!-- Node5 -->
<g id="Node000005" class="node">
<title>Node5</title>
<g id="a_Node000005"><a xlink:href="classfr_1_1inria_1_1corese_1_1core_1_1load_1_1CreateTriple.html" target="_top" xlink:title=" ">
<polygon fill="white" stroke="#666666" points="899.5,-373 824.5,-373 824.5,-354 899.5,-354 899.5,-373"/>
<text text-anchor="middle" x="862" y="-361" font-family="Helvetica,sans-Serif" font-size="10.00">CreateTriple</text>
</a>
</g>
</g>
<!-- Node5&#45;&gt;Node4 -->
<g id="edge4_Node000004_Node000005" class="edge">
<title>Node5&#45;&gt;Node4</title>
<g id="a_edge4_Node000004_Node000005"><a xlink:title=" ">
<path fill="none" stroke="#63b8ff" d="M903.54,-350.21C907.5,-348.46 911.38,-346.56 915,-344.5 937.6,-331.65 960.3,-311.24 972.77,-299.23"/>
<polygon fill="#63b8ff" stroke="#63b8ff" points="902.22,-346.97 894.28,-353.99 904.86,-353.45 902.22,-346.97"/>
</a>
</g>
</g>
<!-- Node6&#45;&gt;Node5 -->
<g id="edge5_Node000005_Node000006" class="edge">
<title>Node6&#45;&gt;Node5</title>
<g id="a_edge5_Node000005_Node000006"><a xlink:title=" ">
<path fill="none" stroke="#9a32cd" stroke-dasharray="5,2" d="M713.18,-434.69C749.2,-417.34 810.06,-388.03 841.26,-373.01"/>
<polygon fill="#9a32cd" stroke="#9a32cd" points="711.22,-431.75 703.72,-439.24 714.25,-438.06 711.22,-431.75"/>
</a>
</g>
<text text-anchor="middle" x="765.5" y="-424.5" font-family="Helvetica,sans-Serif" font-size="10.00" fill="grey"> load</text>
</g>
<!-- Node7 -->
<g id="Node000007" class="node">
<title>Node7</title>
<g id="a_Node000007"><a xlink:href="classfr_1_1inria_1_1corese_1_1core_1_1Graph.html" target="_top" xlink:title="Graph Manager Edges are stored in an index An index is a table: predicate &#45;&gt; List&lt;Edge&gt; Edge List are...">
<polygon fill="white" stroke="#666666" points="706.5,-182 660.5,-182 660.5,-163 706.5,-163 706.5,-182"/>
<text text-anchor="middle" x="683.5" y="-170" font-family="Helvetica,sans-Serif" font-size="10.00">Graph</text>
</a>
</g>
</g>
<!-- Node7&#45;&gt;Node4 -->
<g id="edge34_Node000004_Node000007" class="edge">
<title>Node7&#45;&gt;Node4</title>
<g id="a_edge34_Node000004_Node000007"><a xlink:title=" ">
<path fill="none" stroke="#9a32cd" stroke-dasharray="5,2" d="M713.37,-158.81C759.76,-139 852.05,-108.84 915,-148.5 962.76,-178.59 977.47,-252.87 981.31,-279.66"/>
<polygon fill="#9a32cd" stroke="#9a32cd" points="711.67,-155.73 703.93,-162.97 714.5,-162.14 711.67,-155.73"/>
</a>
</g>
<text text-anchor="middle" x="862" y="-151.5" font-family="Helvetica,sans-Serif" font-size="10.00" fill="grey"> graph</text>
</g>
<!-- Node7&#45;&gt;Node5 -->
<g id="edge9_Node000005_Node000007" class="edge">
<title>Node7&#45;&gt;Node5</title>
<g id="a_edge9_Node000005_Node000007"><a xlink:title=" ">
<path fill="none" stroke="#9a32cd" stroke-dasharray="5,2" d="M686.43,-192.32C690.56,-224.13 703.13,-286.63 740,-322.5 762.74,-344.62 797.83,-354.82 824.38,-359.51"/>
<polygon fill="#9a32cd" stroke="#9a32cd" points="689.87,-191.63 685.26,-182.1 682.91,-192.43 689.87,-191.63"/>
</a>
</g>
<text text-anchor="middle" x="765.5" y="-354.5" font-family="Helvetica,sans-Serif" font-size="10.00" fill="grey"> graph</text>
</g>
<!-- Node18 -->
<g id="Node000018" class="node">
<title>Node18</title>
<g id="a_Node000018"><a xlink:href="classfr_1_1inria_1_1corese_1_1core_1_1Workflow.html" target="_top" xlink:title="Manage a set of inference engines Loop until no inference is performed It is automatically called whe...">
<polygon fill="white" stroke="#666666" points="893,-89 831,-89 831,-70 893,-70 893,-89"/>
<text text-anchor="middle" x="862" y="-77" font-family="Helvetica,sans-Serif" font-size="10.00">Workflow</text>
</a>
</g>
</g>
<!-- Node7&#45;&gt;Node18 -->
<g id="edge22_Node000018_Node000007" class="edge">
<title>Node7&#45;&gt;Node18</title>
<g id="a_edge22_Node000018_Node000007"><a xlink:title=" ">
<path fill="none" stroke="#9a32cd" stroke-dasharray="5,2" d="M689.7,-152.93C696.85,-130.38 712.14,-94.41 740,-78.5 767.64,-62.72 804.94,-65.97 830.79,-71.25"/>
<polygon fill="#9a32cd" stroke="#9a32cd" points="686.27,-152.19 686.82,-162.77 692.99,-154.16 686.27,-152.19"/>
</a>
</g>
<text text-anchor="middle" x="765.5" y="-81.5" font-family="Helvetica,sans-Serif" font-size="10.00" fill="grey"> graph</text>
</g>
<!-- Node23 -->
<g id="Node000023" class="node">
<title>Node23</title>
<g id="a_Node000023"><a xlink:href="classfr_1_1inria_1_1corese_1_1core_1_1EdgeFactory.html" target="_top" xlink:title=" ">
<polygon fill="white" stroke="#bfbfbf" points="900,-336 824,-336 824,-317 900,-317 900,-336"/>
<text text-anchor="middle" x="862" y="-324" font-family="Helvetica,sans-Serif" font-size="10.00">EdgeFactory</text>
</a>
</g>
</g>
<!-- Node7&#45;&gt;Node23 -->
<g id="edge28_Node000023_Node000007" class="edge">
<title>Node7&#45;&gt;Node23</title>
<g id="a_edge28_Node000023_Node000007"><a xlink:title=" ">
<path fill="none" stroke="#9a32cd" stroke-dasharray="5,2" d="M690.15,-191.88C697.88,-215.28 713.86,-254.48 740,-278.5 763.46,-300.06 797.79,-312.43 823.89,-319.2"/>
<polygon fill="#9a32cd" stroke="#9a32cd" points="693.41,-190.58 687.09,-182.07 686.73,-192.66 693.41,-190.58"/>
</a>
</g>
<text text-anchor="middle" x="765.5" y="-310.5" font-family="Helvetica,sans-Serif" font-size="10.00" fill="grey"> graph</text>
</g>
<!-- Node24 -->
<g id="Node000024" class="node">
<title>Node24</title>
<g id="a_Node000024"><a xlink:href="classfr_1_1inria_1_1corese_1_1core_1_1DataStore.html" target="_top" xlink:title="Simple DataStore to define what is the default graph By default it is the union of named graphs It ca...">
<polygon fill="white" stroke="#666666" points="894.5,-188 829.5,-188 829.5,-169 894.5,-169 894.5,-188"/>
<text text-anchor="middle" x="862" y="-176" font-family="Helvetica,sans-Serif" font-size="10.00">DataStore</text>
</a>
</g>
</g>
<!-- Node7&#45;&gt;Node24 -->
<g id="edge30_Node000024_Node000007" class="edge">
<title>Node7&#45;&gt;Node24</title>
<g id="a_edge30_Node000024_Node000007"><a xlink:title=" ">
<path fill="none" stroke="#9a32cd" stroke-dasharray="5,2" d="M716.69,-180.67C724.28,-182.26 732.38,-183.69 740,-184.5 770.22,-187.73 804.88,-185.4 829.33,-182.76"/>
<polygon fill="#9a32cd" stroke="#9a32cd" points="717.26,-177.21 706.74,-178.44 715.73,-184.04 717.26,-177.21"/>
</a>
</g>
<text text-anchor="middle" x="765.5" y="-189.5" font-family="Helvetica,sans-Serif" font-size="10.00" fill="grey"> graph</text>
</g>
<!-- Node8 -->
<g id="Node000008" class="node">
<title>Node8</title>
<g id="a_Node000008"><a xlink:href="classfr_1_1inria_1_1corese_1_1core_1_1GraphObject.html" target="_top" xlink:title=" ">
<polygon fill="white" stroke="#666666" points="513,-293 436,-293 436,-274 513,-274 513,-293"/>
<text text-anchor="middle" x="474.5" y="-281" font-family="Helvetica,sans-Serif" font-size="10.00">GraphObject</text>
</a>
</g>
</g>
<!-- Node8&#45;&gt;Node7 -->
<g id="edge10_Node000007_Node000008" class="edge">
<title>Node8&#45;&gt;Node7</title>
<g id="a_edge10_Node000007_Node000008"><a xlink:title=" ">
<path fill="none" stroke="#63b8ff" d="M522.9,-274.92C554.28,-267.68 595.32,-255.11 627,-234.5 648.56,-220.48 666.97,-195.98 676.19,-182.35"/>
<polygon fill="#63b8ff" stroke="#63b8ff" points="522.09,-271.51 513.07,-277.09 523.59,-278.35 522.09,-271.51"/>
</a>
</g>
</g>
<!-- Node9 -->
<g id="Node000009" class="node">
<title>Node9</title>
<g id="a_Node000009"><a xlink:title=" ">
<polygon fill="white" stroke="#bfbfbf" points="323.5,-293 240.5,-293 240.5,-274 323.5,-274 323.5,-293"/>
<text text-anchor="middle" x="282" y="-281" font-family="Helvetica,sans-Serif" font-size="10.00">PointerObject</text>
</a>
</g>
</g>
<!-- Node9&#45;&gt;Node8 -->
<g id="edge11_Node000008_Node000009" class="edge">
<title>Node9&#45;&gt;Node8</title>
<g id="a_edge11_Node000008_Node000009"><a xlink:title=" ">
<path fill="none" stroke="#63b8ff" d="M333.96,-283.5C366.05,-283.5 406.78,-283.5 435.93,-283.5"/>
<polygon fill="#63b8ff" stroke="#63b8ff" points="333.87,-280 323.87,-283.5 333.87,-287 333.87,-280"/>
</a>
</g>
</g>
<!-- Node10 -->
<g id="Node000010" class="node">
<title>Node10</title>
<g id="a_Node000010"><a xlink:title=" ">
<polygon fill="white" stroke="#bfbfbf" points="525,-256 424,-256 424,-237 525,-237 525,-256"/>
<text text-anchor="middle" x="474.5" y="-244" font-family="Helvetica,sans-Serif" font-size="10.00">Iterable&lt; Edge &gt;</text>
</a>
</g>
</g>
<!-- Node10&#45;&gt;Node7 -->
<g id="edge12_Node000007_Node000010" class="edge">
<title>Node10&#45;&gt;Node7</title>
<g id="a_edge12_Node000007_Node000010"><a xlink:title=" ">
<path fill="none" stroke="#63b8ff" d="M535.05,-235.66C563.56,-229.34 597.78,-220.11 627,-207.5 642.69,-200.73 659.05,-189.88 669.9,-182.05"/>
<polygon fill="#63b8ff" stroke="#63b8ff" points="534.26,-232.24 525.22,-237.77 535.73,-239.09 534.26,-232.24"/>
</a>
</g>
</g>
<!-- Node11 -->
<g id="Node000011" class="node">
<title>Node11</title>
<g id="a_Node000011"><a xlink:href="interfacefr_1_1inria_1_1corese_1_1core_1_1sparql_1_1api_1_1Graph.html" target="_top" xlink:title=" ">
<polygon fill="white" stroke="#666666" points="497.5,-219 451.5,-219 451.5,-200 497.5,-200 497.5,-219"/>
<text text-anchor="middle" x="474.5" y="-207" font-family="Helvetica,sans-Serif" font-size="10.00">Graph</text>
</a>
</g>
</g>
<!-- Node11&#45;&gt;Node7 -->
<g id="edge13_Node000007_Node000011" class="edge">
<title>Node11&#45;&gt;Node7</title>
<g id="a_edge13_Node000007_Node000011"><a xlink:title=" ">
<path fill="none" stroke="#63b8ff" d="M507.85,-205.51C538.63,-201.49 586.18,-194.73 627,-186.5 638.11,-184.26 650.33,-181.24 660.47,-178.58"/>
<polygon fill="#63b8ff" stroke="#63b8ff" points="507.17,-202.07 497.7,-206.81 508.06,-209.01 507.17,-202.07"/>
</a>
</g>
</g>
<!-- Node12 -->
<g id="Node000012" class="node">
<title>Node12</title>
<g id="a_Node000012"><a xlink:href="interfacefr_1_1inria_1_1corese_1_1core_1_1kgram_1_1api_1_1core_1_1Graph.html" target="_top" xlink:title=" ">
<polygon fill="white" stroke="#bfbfbf" points="305,-219 259,-219 259,-200 305,-200 305,-219"/>
<text text-anchor="middle" x="282" y="-207" font-family="Helvetica,sans-Serif" font-size="10.00">Graph</text>
</a>
</g>
</g>
<!-- Node12&#45;&gt;Node11 -->
<g id="edge14_Node000011_Node000012" class="edge">
<title>Node12&#45;&gt;Node11</title>
<g id="a_edge14_Node000011_Node000012"><a xlink:title=" ">
<path fill="none" stroke="#63b8ff" d="M315.44,-209.5C354.19,-209.5 417.95,-209.5 451.42,-209.5"/>
<polygon fill="#63b8ff" stroke="#63b8ff" points="315.23,-206 305.23,-209.5 315.23,-213 315.23,-206"/>
</a>
</g>
</g>
<!-- Node13 -->
<g id="Node000013" class="node">
<title>Node13</title>
<g id="a_Node000013"><a xlink:title=" ">
<polygon fill="white" stroke="#bfbfbf" points="508,-182 441,-182 441,-163 508,-163 508,-182"/>
<text text-anchor="middle" x="474.5" y="-170" font-family="Helvetica,sans-Serif" font-size="10.00">Graphable</text>
</a>
</g>
</g>
<!-- Node13&#45;&gt;Node7 -->
<g id="edge15_Node000007_Node000013" class="edge">
<title>Node13&#45;&gt;Node7</title>
<g id="a_edge15_Node000007_Node000013"><a xlink:title=" ">
<path fill="none" stroke="#63b8ff" d="M518.52,-172.5C561.73,-172.5 626.62,-172.5 660.36,-172.5"/>
<polygon fill="#63b8ff" stroke="#63b8ff" points="518.3,-169 508.3,-172.5 518.3,-176 518.3,-169"/>
</a>
</g>
</g>
<!-- Node14 -->
<g id="Node000014" class="node">
<title>Node14</title>
<g id="a_Node000014"><a xlink:title=" ">
<polygon fill="white" stroke="#bfbfbf" points="508.5,-145 440.5,-145 440.5,-126 508.5,-126 508.5,-145"/>
<text text-anchor="middle" x="474.5" y="-133" font-family="Helvetica,sans-Serif" font-size="10.00">TripleStore</text>
</a>
</g>
</g>
<!-- Node14&#45;&gt;Node7 -->
<g id="edge16_Node000007_Node000014" class="edge">
<title>Node14&#45;&gt;Node7</title>
<g id="a_edge16_Node000007_Node000014"><a xlink:title=" ">
<path fill="none" stroke="#63b8ff" d="M518.72,-143.23C561.98,-150.96 626.81,-162.55 660.46,-168.56"/>
<polygon fill="#63b8ff" stroke="#63b8ff" points="519.22,-139.76 508.76,-141.44 517.99,-146.65 519.22,-139.76"/>
</a>
</g>
</g>
<!-- Node15 -->
<g id="Node000015" class="node">
<title>Node15</title>
<g id="a_Node000015"><a xlink:href="classfr_1_1inria_1_1corese_1_1core_1_1NodeGraphIndex.html" target="_top" xlink:title="Manage Nodes of a graph, for each graph name.">
<polygon fill="white" stroke="#666666" points="523.5,-108 425.5,-108 425.5,-89 523.5,-89 523.5,-108"/>
<text text-anchor="middle" x="474.5" y="-96" font-family="Helvetica,sans-Serif" font-size="10.00">NodeGraphIndex</text>
</a>
</g>
</g>
<!-- Node15&#45;&gt;Node7 -->
<g id="edge17_Node000007_Node000015" class="edge">
<title>Node15&#45;&gt;Node7</title>
<g id="a_edge17_Node000007_Node000015"><a xlink:title=" ">
<path fill="none" stroke="#9a32cd" stroke-dasharray="5,2" d="M533.65,-107.15C562.53,-112.72 597.48,-121.43 627,-134.5 643.44,-141.78 660.19,-154.05 670.92,-162.68"/>
<polygon fill="#9a32cd" stroke="#9a32cd" points="534.17,-103.68 523.7,-105.3 532.9,-110.57 534.17,-103.68"/>
</a>
</g>
<text text-anchor="middle" x="585" y="-137.5" font-family="Helvetica,sans-Serif" font-size="10.00" fill="grey"> nodeGraphIndex</text>
</g>
<!-- Node16 -->
<g id="Node000016" class="node">
<title>Node16</title>
<g id="a_Node000016"><a xlink:title=" ">
<polygon fill="white" stroke="#bfbfbf" points="360,-108 204,-108 204,-89 360,-89 360,-108"/>
<text text-anchor="middle" x="282" y="-96" font-family="Helvetica,sans-Serif" font-size="10.00">NodeGraphIndex.GraphTable</text>
</a>
</g>
</g>
<!-- Node16&#45;&gt;Node15 -->
<g id="edge18_Node000015_Node000016" class="edge">
<title>Node16&#45;&gt;Node15</title>
<g id="a_edge18_Node000015_Node000016"><a xlink:title=" ">
<path fill="none" stroke="#9a32cd" stroke-dasharray="5,2" d="M370.37,-98.5C389.33,-98.5 408.71,-98.5 425.47,-98.5"/>
<polygon fill="#9a32cd" stroke="#9a32cd" points="370.21,-95 360.21,-98.5 370.21,-102 370.21,-95"/>
</a>
</g>
<text text-anchor="middle" x="392" y="-101.5" font-family="Helvetica,sans-Serif" font-size="10.00" fill="grey"> table</text>
</g>
<!-- Node17 -->
<g id="Node000017" class="node">
<title>Node17</title>
<g id="a_Node000017"><a xlink:title=" ">
<polygon fill="white" stroke="#bfbfbf" points="167,-108 0,-108 0,-89 167,-89 167,-108"/>
<text text-anchor="middle" x="83.5" y="-96" font-family="Helvetica,sans-Serif" font-size="10.00">HashMap&lt; Node, NodeTable &gt;</text>
</a>
</g>
</g>
<!-- Node17&#45;&gt;Node16 -->
<g id="edge19_Node000016_Node000017" class="edge">
<title>Node17&#45;&gt;Node16</title>
<g id="a_edge19_Node000016_Node000017"><a xlink:title=" ">
<path fill="none" stroke="#63b8ff" d="M177.3,-98.5C186.23,-98.5 195.22,-98.5 203.97,-98.5"/>
<polygon fill="#63b8ff" stroke="#63b8ff" points="177.26,-95 167.26,-98.5 177.26,-102 177.26,-95"/>
</a>
</g>
</g>
<!-- Node18&#45;&gt;Node7 -->
<g id="edge20_Node000007_Node000018" class="edge">
<title>Node18&#45;&gt;Node7</title>
<g id="a_edge20_Node000007_Node000018"><a xlink:title=" ">
<path fill="none" stroke="#9a32cd" stroke-dasharray="5,2" d="M820.78,-85.64C796.15,-90.69 764.71,-99.53 740,-114.5 719.02,-127.21 700.65,-149.86 691.23,-162.77"/>
<polygon fill="#9a32cd" stroke="#9a32cd" points="821.73,-89.02 830.89,-83.7 820.41,-82.15 821.73,-89.02"/>
</a>
</g>
<text text-anchor="middle" x="765.5" y="-117.5" font-family="Helvetica,sans-Serif" font-size="10.00" fill="grey"> manager</text>
</g>
<!-- Node19 -->
<g id="Node000019" class="node">
<title>Node19</title>
<g id="a_Node000019"><a xlink:title=" ">
<polygon fill="white" stroke="#bfbfbf" points="708.5,-56 658.5,-56 658.5,-37 708.5,-37 708.5,-56"/>
<text text-anchor="middle" x="683.5" y="-44" font-family="Helvetica,sans-Serif" font-size="10.00">Engine</text>
</a>
</g>
</g>
<!-- Node19&#45;&gt;Node18 -->
<g id="edge21_Node000018_Node000019" class="edge">
<title>Node19&#45;&gt;Node18</title>
<g id="a_edge21_Node000018_Node000019"><a xlink:title=" ">
<path fill="none" stroke="#63b8ff" d="M718.8,-49.82C739.77,-52.15 767.07,-55.7 791,-60.5 804.21,-63.15 818.61,-66.9 830.89,-70.37"/>
<polygon fill="#63b8ff" stroke="#63b8ff" points="719.08,-46.33 708.76,-48.75 718.33,-53.3 719.08,-46.33"/>
</a>
</g>
</g>
<!-- Node20 -->
<g id="Node000020" class="node">
<title>Node20</title>
<g id="a_Node000020"><a xlink:href="classfr_1_1inria_1_1corese_1_1core_1_1EventManager.html" target="_top" xlink:title="Event Manager for consistency and trace Update and Inference are tracked Debug mode traces events Sho...">
<polygon fill="white" stroke="#666666" points="518,-52 431,-52 431,-33 518,-33 518,-52"/>
<text text-anchor="middle" x="474.5" y="-40" font-family="Helvetica,sans-Serif" font-size="10.00">EventManager</text>
</a>
</g>
</g>
<!-- Node20&#45;&gt;Node7 -->
<g id="edge23_Node000007_Node000020" class="edge">
<title>Node20&#45;&gt;Node7</title>
<g id="a_edge23_Node000007_Node000020"><a xlink:title=" ">
<path fill="none" stroke="#9a32cd" stroke-dasharray="5,2" d="M528.1,-52.56C559.13,-60.42 597.89,-73.76 627,-95.5 651.69,-113.94 669.92,-146.52 677.96,-162.75"/>
<polygon fill="#9a32cd" stroke="#9a32cd" points="528.87,-49.14 518.32,-50.19 527.22,-55.95 528.87,-49.14"/>
</a>
</g>
<text text-anchor="middle" x="585" y="-98.5" font-family="Helvetica,sans-Serif" font-size="10.00" fill="grey"> eventManager</text>
</g>
<!-- Node22 -->
<g id="Node000022" class="node">
<title>Node22</title>
<g id="a_Node000022"><a xlink:href="classfr_1_1inria_1_1corese_1_1core_1_1EventLogger.html" target="_top" xlink:title=" ">
<polygon fill="white" stroke="#666666" points="722,-19 645,-19 645,0 722,0 722,-19"/>
<text text-anchor="middle" x="683.5" y="-7" font-family="Helvetica,sans-Serif" font-size="10.00">EventLogger</text>
</a>
</g>
</g>
<!-- Node20&#45;&gt;Node22 -->
<g id="edge26_Node000022_Node000020" class="edge">
<title>Node20&#45;&gt;Node22</title>
<g id="a_edge26_Node000022_Node000020"><a xlink:title=" ">
<path fill="none" stroke="#9a32cd" stroke-dasharray="5,2" d="M497.68,-27.55C510.36,-19.92 526.9,-11.43 543,-7.5 576.77,0.73 616.51,-0.89 644.92,-3.91"/>
<polygon fill="#9a32cd" stroke="#9a32cd" points="495.8,-24.6 489.19,-32.88 499.52,-30.53 495.8,-24.6"/>
</a>
</g>
<text text-anchor="middle" x="585" y="-10.5" font-family="Helvetica,sans-Serif" font-size="10.00" fill="grey"> mgr</text>
</g>
<!-- Node21 -->
<g id="Node000021" class="node">
<title>Node21</title>
<g id="a_Node000021"><a xlink:href="interfacefr_1_1inria_1_1corese_1_1core_1_1EventHandler.html" target="_top" xlink:title=" ">
<polygon fill="white" stroke="#bfbfbf" points="323.5,-52 240.5,-52 240.5,-33 323.5,-33 323.5,-52"/>
<text text-anchor="middle" x="282" y="-40" font-family="Helvetica,sans-Serif" font-size="10.00">EventHandler</text>
</a>
</g>
</g>
<!-- Node21&#45;&gt;Node20 -->
<g id="edge24_Node000020_Node000021" class="edge">
<title>Node21&#45;&gt;Node20</title>
<g id="a_edge24_Node000020_Node000021"><a xlink:title=" ">
<path fill="none" stroke="#63b8ff" d="M334.2,-42.5C364.38,-42.5 402.13,-42.5 430.72,-42.5"/>
<polygon fill="#63b8ff" stroke="#63b8ff" points="333.87,-39 323.87,-42.5 333.87,-46 333.87,-39"/>
</a>
</g>
</g>
<!-- Node22&#45;&gt;Node20 -->
<g id="edge25_Node000020_Node000022" class="edge">
<title>Node22&#45;&gt;Node20</title>
<g id="a_edge25_Node000020_Node000022"><a xlink:title=" ">
<path fill="none" stroke="#9a32cd" stroke-dasharray="5,2" d="M635.05,-19.07C632.33,-19.57 629.63,-20.05 627,-20.5 590.33,-26.79 548.46,-32.78 518.04,-36.92"/>
<polygon fill="#9a32cd" stroke="#9a32cd" points="635.75,-22.5 644.93,-17.22 634.46,-15.62 635.75,-22.5"/>
</a>
</g>
<text text-anchor="middle" x="585" y="-36.5" font-family="Helvetica,sans-Serif" font-size="10.00" fill="grey"> log</text>
</g>
<!-- Node23&#45;&gt;Node7 -->
<g id="edge27_Node000007_Node000023" class="edge">
<title>Node23&#45;&gt;Node7</title>
<g id="a_edge27_Node000007_Node000023"><a xlink:title=" ">
<path fill="none" stroke="#9a32cd" stroke-dasharray="5,2" d="M815.1,-312.28C812.93,-310.84 810.88,-309.25 809,-307.5 794.72,-294.22 802.53,-283.22 791,-267.5 764.04,-230.73 720.82,-197.74 698.64,-182.09"/>
<polygon fill="#9a32cd" stroke="#9a32cd" points="813.48,-315.39 823.92,-317.17 816.87,-309.26 813.48,-315.39"/>
</a>
</g>
<text text-anchor="middle" x="765.5" y="-270.5" font-family="Helvetica,sans-Serif" font-size="10.00" fill="grey"> fac</text>
</g>
<!-- Node24&#45;&gt;Node7 -->
<g id="edge29_Node000007_Node000024" class="edge">
<title>Node24&#45;&gt;Node7</title>
<g id="a_edge29_Node000007_Node000024"><a xlink:title=" ">
<path fill="none" stroke="#9a32cd" stroke-dasharray="5,2" d="M819.14,-175.08C809.88,-174.45 800.11,-173.87 791,-173.5 761.81,-172.32 728.08,-172.22 706.54,-172.31"/>
<polygon fill="#9a32cd" stroke="#9a32cd" points="819.09,-178.59 829.31,-175.82 819.59,-171.61 819.09,-178.59"/>
</a>
</g>
<text text-anchor="middle" x="765.5" y="-176.5" font-family="Helvetica,sans-Serif" font-size="10.00" fill="grey"> dataStore</text>
</g>
<!-- Node25 -->
<g id="Node000025" class="node">
<title>Node25</title>
<g id="a_Node000025"><a xlink:href="interfacefr_1_1inria_1_1corese_1_1core_1_1load_1_1Build.html" target="_top" xlink:title="Translate an RDF/XML document into a Graph.">
<polygon fill="white" stroke="#666666" points="882.5,-299 841.5,-299 841.5,-280 882.5,-280 882.5,-299"/>
<text text-anchor="middle" x="862" y="-287" font-family="Helvetica,sans-Serif" font-size="10.00">Build</text>
</a>
</g>
</g>
<!-- Node25&#45;&gt;Node4 -->
<g id="edge31_Node000004_Node000025" class="edge">
<title>Node25&#45;&gt;Node4</title>
<g id="a_edge31_Node000004_Node000025"><a xlink:title=" ">
<path fill="none" stroke="#63b8ff" d="M892.97,-289.5C910.99,-289.5 933.85,-289.5 951.97,-289.5"/>
<polygon fill="#63b8ff" stroke="#63b8ff" points="892.73,-286 882.73,-289.5 892.73,-293 892.73,-286"/>
</a>
</g>
</g>
<!-- Node26 -->
<g id="Node000026" class="node">
<title>Node26</title>
<g id="a_Node000026"><a xlink:title=" ">
<polygon fill="white" stroke="#bfbfbf" points="915,-262 809,-262 809,-243 915,-243 915,-262"/>
<text text-anchor="middle" x="862" y="-250" font-family="Helvetica,sans-Serif" font-size="10.00">StatementHandler</text>
</a>
</g>
</g>
<!-- Node26&#45;&gt;Node4 -->
<g id="edge32_Node000004_Node000026" class="edge">
<title>Node26&#45;&gt;Node4</title>
<g id="a_edge32_Node000004_Node000026"><a xlink:title=" ">
<path fill="none" stroke="#63b8ff" d="M903.33,-264.99C919.18,-269.89 937.07,-275.43 951.83,-280"/>
<polygon fill="#63b8ff" stroke="#63b8ff" points="904.36,-261.64 893.77,-262.03 902.29,-268.33 904.36,-261.64"/>
</a>
</g>
</g>
<!-- Node27 -->
<g id="Node000027" class="node">
<title>Node27</title>
<g id="a_Node000027"><a xlink:title=" ">
<polygon fill="white" stroke="#bfbfbf" points="901,-225 823,-225 823,-206 901,-206 901,-225"/>
<text text-anchor="middle" x="862" y="-213" font-family="Helvetica,sans-Serif" font-size="10.00">ErrorHandler</text>
</a>
</g>
</g>
<!-- Node27&#45;&gt;Node4 -->
<g id="edge33_Node000004_Node000027" class="edge">
<title>Node27&#45;&gt;Node4</title>
<g id="a_edge33_Node000004_Node000027"><a xlink:title=" ">
<path fill="none" stroke="#63b8ff" d="M905.54,-228.78C908.8,-230.24 912,-231.81 915,-233.5 938.09,-246.5 960.97,-267.7 973.27,-279.95"/>
<polygon fill="#63b8ff" stroke="#63b8ff" points="906.82,-225.52 896.23,-225 904.18,-232.01 906.82,-225.52"/>
</a>
</g>
</g>
</g>
</svg>
