<?xml version="1.0" encoding="UTF-8" standalone="no"?>
<!DOCTYPE svg PUBLIC "-//W3C//DTD SVG 1.1//EN"
 "http://www.w3.org/Graphics/SVG/1.1/DTD/svg11.dtd">
<!-- Generated by graphviz version 2.43.0 (0)
 -->
<!-- Title: CreateTriple Pages: 1 -->
<svg width="1023pt" height="461pt"
 viewBox="0.00 0.00 1023.00 460.50" xmlns="http://www.w3.org/2000/svg" xmlns:xlink="http://www.w3.org/1999/xlink">
<g id="graph0" class="graph" transform="scale(1 1) rotate(0) translate(4 456.5)">
<title>CreateTriple</title>
<!-- Node1 -->
<g id="Node000001" class="node">
<title>Node1</title>
<g id="a_Node000001"><a xlink:title=" ">
<polygon fill="#999999" stroke="#666666" points="899.5,-410 824.5,-410 824.5,-391 899.5,-391 899.5,-410"/>
<text text-anchor="middle" x="862" y="-398" font-family="Helvetica,sans-Serif" font-size="10.00">CreateTriple</text>
</a>
</g>
</g>
<!-- Node2 -->
<g id="Node000002" class="node">
<title>Node2</title>
<g id="a_Node000002"><a xlink:href="classfr_1_1inria_1_1corese_1_1core_1_1load_1_1Load.html" target="_top" xlink:title="Translate an RDF/XML document into a Graph use ARP.">
<polygon fill="white" stroke="#666666" points="703.5,-420 663.5,-420 663.5,-401 703.5,-401 703.5,-420"/>
<text text-anchor="middle" x="683.5" y="-408" font-family="Helvetica,sans-Serif" font-size="10.00">Load</text>
</a>
</g>
</g>
<!-- Node2&#45;&gt;Node1 -->
<g id="edge1_Node000001_Node000002" class="edge">
<title>Node2&#45;&gt;Node1</title>
<g id="a_edge1_Node000001_Node000002"><a xlink:title=" ">
<path fill="none" stroke="#9a32cd" stroke-dasharray="5,2" d="M714.08,-408.82C744.4,-407.11 791.64,-404.43 824.33,-402.58"/>
<polygon fill="#9a32cd" stroke="#9a32cd" points="713.51,-405.35 703.72,-409.41 713.91,-412.34 713.51,-405.35"/>
</a>
</g>
<text text-anchor="middle" x="765.5" y="-409.5" font-family="Helvetica,sans-Serif" font-size="10.00" fill="grey"> load</text>
</g>
<!-- Node6 -->
<g id="Node000006" class="node">
<title>Node6</title>
<g id="a_Node000006"><a xlink:href="classfr_1_1inria_1_1corese_1_1core_1_1load_1_1CreateTriple.html" target="_top" xlink:title=" ">
<polygon fill="white" stroke="#666666" points="899.5,-373 824.5,-373 824.5,-354 899.5,-354 899.5,-373"/>
<text text-anchor="middle" x="862" y="-361" font-family="Helvetica,sans-Serif" font-size="10.00">CreateTriple</text>
</a>
</g>
</g>
<!-- Node2&#45;&gt;Node6 -->
<g id="edge6_Node000006_Node000002" class="edge">
<title>Node2&#45;&gt;Node6</title>
<g id="a_edge6_Node000006_Node000002"><a xlink:title=" ">
<path fill="none" stroke="#9a32cd" stroke-dasharray="5,2" d="M713.07,-398.75C721.64,-395.48 731.12,-392.12 740,-389.5 767.93,-381.27 800.19,-374.47 824.37,-369.89"/>
<polygon fill="#9a32cd" stroke="#9a32cd" points="711.56,-395.59 703.52,-402.49 714.11,-402.1 711.56,-395.59"/>
</a>
</g>
<text text-anchor="middle" x="765.5" y="-392.5" font-family="Helvetica,sans-Serif" font-size="10.00" fill="grey"> load</text>
</g>
<!-- Node3 -->
<g id="Node000003" class="node">
<title>Node3</title>
<g id="a_Node000003"><a xlink:title=" ">
<polygon fill="white" stroke="#bfbfbf" points="512.5,-402 436.5,-402 436.5,-383 512.5,-383 512.5,-402"/>
<text text-anchor="middle" x="474.5" y="-390" font-family="Helvetica,sans-Serif" font-size="10.00">RDFListener</text>
</a>
</g>
</g>
<!-- Node3&#45;&gt;Node2 -->
<g id="edge2_Node000002_Node000003" class="edge">
<title>Node3&#45;&gt;Node2</title>
<g id="a_edge2_Node000002_Node000003"><a xlink:title=" ">
<path fill="none" stroke="#63b8ff" d="M522.5,-396.59C566.94,-400.45 631.41,-406.06 663.24,-408.83"/>
<polygon fill="#63b8ff" stroke="#63b8ff" points="522.77,-393.1 512.51,-395.72 522.17,-400.07 522.77,-393.1"/>
</a>
</g>
</g>
<!-- Node4 -->
<g id="Node000004" class="node">
<title>Node4</title>
<g id="a_Node000004"><a xlink:title=" ">
<polygon fill="white" stroke="#bfbfbf" points="499.5,-439 449.5,-439 449.5,-420 499.5,-420 499.5,-439"/>
<text text-anchor="middle" x="474.5" y="-427" font-family="Helvetica,sans-Serif" font-size="10.00">Loader</text>
</a>
</g>
</g>
<!-- Node4&#45;&gt;Node2 -->
<g id="edge3_Node000002_Node000004" class="edge">
<title>Node4&#45;&gt;Node2</title>
<g id="a_edge3_Node000002_Node000004"><a xlink:title=" ">
<path fill="none" stroke="#63b8ff" d="M509.86,-426.35C553.82,-422.31 628.45,-415.46 663.39,-412.25"/>
<polygon fill="#63b8ff" stroke="#63b8ff" points="509.29,-422.88 499.65,-427.28 509.93,-429.85 509.29,-422.88"/>
</a>
</g>
</g>
<!-- Node5 -->
<g id="Node000005" class="node">
<title>Node5</title>
<g id="a_Node000005"><a xlink:href="classfr_1_1inria_1_1corese_1_1core_1_1load_1_1BuildImpl.html" target="_top" xlink:title="Graph creation Methods are public, Design to be refined.">
<polygon fill="white" stroke="#666666" points="1015,-280 952,-280 952,-261 1015,-261 1015,-280"/>
<text text-anchor="middle" x="983.5" y="-268" font-family="Helvetica,sans-Serif" font-size="10.00">BuildImpl</text>
</a>
</g>
</g>
<!-- Node5&#45;&gt;Node2 -->
<g id="edge4_Node000002_Node000005" class="edge">
<title>Node5&#45;&gt;Node2</title>
<g id="a_edge4_Node000002_Node000005"><a xlink:title=" ">
<path fill="none" stroke="#9a32cd" stroke-dasharray="5,2" d="M980.18,-290.33C975.09,-323.69 959.6,-390.23 915,-419.5 848.37,-463.23 746.05,-433.53 703.78,-418.14"/>
<polygon fill="#9a32cd" stroke="#9a32cd" points="983.7,-290.41 981.57,-280.03 976.76,-289.47 983.7,-290.41"/>
</a>
</g>
<text text-anchor="middle" x="862" y="-444.5" font-family="Helvetica,sans-Serif" font-size="10.00" fill="grey"> build</text>
</g>
<!-- Node6&#45;&gt;Node5 -->
<g id="edge5_Node000005_Node000006" class="edge">
<title>Node6&#45;&gt;Node5</title>
<g id="a_edge5_Node000005_Node000006"><a xlink:title=" ">
<path fill="none" stroke="#63b8ff" d="M907.82,-349.69C910.31,-348.4 912.73,-347.01 915,-345.5 942.15,-327.49 965.48,-296.06 976.21,-280.22"/>
<polygon fill="#63b8ff" stroke="#63b8ff" points="906.21,-346.58 898.55,-353.91 909.1,-352.95 906.21,-346.58"/>
</a>
</g>
</g>
<!-- Node7 -->
<g id="Node000007" class="node">
<title>Node7</title>
<g id="a_Node000007"><a xlink:href="classfr_1_1inria_1_1corese_1_1core_1_1Graph.html" target="_top" xlink:title="Graph Manager Edges are stored in an index An index is a table: predicate &#45;&gt; List&lt;Edge&gt; Edge List are...">
<polygon fill="white" stroke="#666666" points="706.5,-199 660.5,-199 660.5,-180 706.5,-180 706.5,-199"/>
<text text-anchor="middle" x="683.5" y="-187" font-family="Helvetica,sans-Serif" font-size="10.00">Graph</text>
</a>
</g>
</g>
<!-- Node7&#45;&gt;Node1 -->
<g id="edge33_Node000001_Node000007" class="edge">
<title>Node7&#45;&gt;Node1</title>
<g id="a_edge33_Node000001_Node000007"><a xlink:title=" ">
<path fill="none" stroke="#9a32cd" stroke-dasharray="5,2" d="M689.49,-209.01C697.1,-236.05 713.56,-285.52 740,-320.5 757.54,-343.7 770.11,-341.26 791,-361.5 799.83,-370.05 798.84,-375.58 809,-382.5 813.9,-385.83 819.47,-388.61 825.11,-390.9"/>
<polygon fill="#9a32cd" stroke="#9a32cd" points="692.83,-207.96 686.85,-199.21 686.07,-209.78 692.83,-207.96"/>
</a>
</g>
<text text-anchor="middle" x="765.5" y="-364.5" font-family="Helvetica,sans-Serif" font-size="10.00" fill="grey"> graph</text>
</g>
<!-- Node7&#45;&gt;Node5 -->
<g id="edge32_Node000005_Node000007" class="edge">
<title>Node7&#45;&gt;Node5</title>
<g id="a_edge32_Node000005_Node000007"><a xlink:title=" ">
<path fill="none" stroke="#9a32cd" stroke-dasharray="5,2" d="M709.26,-174.93C753.67,-150.88 848.46,-109.27 915,-148.5 957.75,-173.7 975.32,-236.77 980.62,-260.9"/>
<polygon fill="#9a32cd" stroke="#9a32cd" points="707.36,-171.98 700.33,-179.9 710.77,-178.1 707.36,-171.98"/>
</a>
</g>
<text text-anchor="middle" x="862" y="-151.5" font-family="Helvetica,sans-Serif" font-size="10.00" fill="grey"> graph</text>
</g>
<!-- Node7&#45;&gt;Node6 -->
<g id="edge7_Node000006_Node000007" class="edge">
<title>Node7&#45;&gt;Node6</title>
<g id="a_edge7_Node000006_Node000007"><a xlink:title=" ">
<path fill="none" stroke="#9a32cd" stroke-dasharray="5,2" d="M691.29,-208.69C699.74,-230.15 716.04,-264.74 740,-286.5 758.41,-303.22 773.07,-292.27 791,-309.5 803.9,-321.89 795.55,-333.7 809,-345.5 813.45,-349.41 818.8,-352.48 824.34,-354.89"/>
<polygon fill="#9a32cd" stroke="#9a32cd" points="694.47,-207.2 687.68,-199.06 687.92,-209.66 694.47,-207.2"/>
</a>
</g>
<text text-anchor="middle" x="765.5" y="-312.5" font-family="Helvetica,sans-Serif" font-size="10.00" fill="grey"> graph</text>
</g>
<!-- Node18 -->
<g id="Node000018" class="node">
<title>Node18</title>
<g id="a_Node000018"><a xlink:href="classfr_1_1inria_1_1corese_1_1core_1_1Workflow.html" target="_top" xlink:title="Manage a set of inference engines Loop until no inference is performed It is automatically called whe...">
<polygon fill="white" stroke="#666666" points="893,-89 831,-89 831,-70 893,-70 893,-89"/>
<text text-anchor="middle" x="862" y="-77" font-family="Helvetica,sans-Serif" font-size="10.00">Workflow</text>
</a>
</g>
</g>
<!-- Node7&#45;&gt;Node18 -->
<g id="edge20_Node000018_Node000007" class="edge">
<title>Node7&#45;&gt;Node18</title>
<g id="a_edge20_Node000018_Node000007"><a xlink:title=" ">
<path fill="none" stroke="#9a32cd" stroke-dasharray="5,2" d="M693.74,-170.82C703.12,-153.72 719.21,-128.96 740,-114.5 754.68,-104.29 799.96,-92.85 830.77,-85.91"/>
<polygon fill="#9a32cd" stroke="#9a32cd" points="690.54,-169.38 689,-179.86 696.74,-172.62 690.54,-169.38"/>
</a>
</g>
<text text-anchor="middle" x="765.5" y="-117.5" font-family="Helvetica,sans-Serif" font-size="10.00" fill="grey"> graph</text>
</g>
<!-- Node23 -->
<g id="Node000023" class="node">
<title>Node23</title>
<g id="a_Node000023"><a xlink:href="classfr_1_1inria_1_1corese_1_1core_1_1EdgeFactory.html" target="_top" xlink:title=" ">
<polygon fill="white" stroke="#bfbfbf" points="900,-336 824,-336 824,-317 900,-317 900,-336"/>
<text text-anchor="middle" x="862" y="-324" font-family="Helvetica,sans-Serif" font-size="10.00">EdgeFactory</text>
</a>
</g>
</g>
<!-- Node7&#45;&gt;Node23 -->
<g id="edge26_Node000023_Node000007" class="edge">
<title>Node7&#45;&gt;Node23</title>
<g id="a_edge26_Node000023_Node000007"><a xlink:title=" ">
<path fill="none" stroke="#9a32cd" stroke-dasharray="5,2" d="M716.4,-196.67C740.31,-203.66 772.03,-216.68 791,-239.5 811.26,-263.87 787.48,-285.23 809,-308.5 813.09,-312.92 818.31,-316.25 823.87,-318.77"/>
<polygon fill="#9a32cd" stroke="#9a32cd" points="717.27,-193.27 706.7,-194.03 715.43,-200.03 717.27,-193.27"/>
</a>
</g>
<text text-anchor="middle" x="765.5" y="-242.5" font-family="Helvetica,sans-Serif" font-size="10.00" fill="grey"> graph</text>
</g>
<!-- Node24 -->
<g id="Node000024" class="node">
<title>Node24</title>
<g id="a_Node000024"><a xlink:href="classfr_1_1inria_1_1corese_1_1core_1_1DataStore.html" target="_top" xlink:title="Simple DataStore to define what is the default graph By default it is the union of named graphs It ca...">
<polygon fill="white" stroke="#666666" points="894.5,-188 829.5,-188 829.5,-169 894.5,-169 894.5,-188"/>
<text text-anchor="middle" x="862" y="-176" font-family="Helvetica,sans-Serif" font-size="10.00">DataStore</text>
</a>
</g>
</g>
<!-- Node7&#45;&gt;Node24 -->
<g id="edge28_Node000024_Node000007" class="edge">
<title>Node7&#45;&gt;Node24</title>
<g id="a_edge28_Node000024_Node000007"><a xlink:title=" ">
<path fill="none" stroke="#9a32cd" stroke-dasharray="5,2" d="M716.2,-177.34C723.88,-174.92 732.14,-172.74 740,-171.5 770.14,-166.74 804.95,-169.61 829.48,-173.01"/>
<polygon fill="#9a32cd" stroke="#9a32cd" points="714.88,-174.09 706.52,-180.6 717.12,-180.72 714.88,-174.09"/>
</a>
</g>
<text text-anchor="middle" x="765.5" y="-174.5" font-family="Helvetica,sans-Serif" font-size="10.00" fill="grey"> graph</text>
</g>
<!-- Node8 -->
<g id="Node000008" class="node">
<title>Node8</title>
<g id="a_Node000008"><a xlink:href="classfr_1_1inria_1_1corese_1_1core_1_1GraphObject.html" target="_top" xlink:title=" ">
<polygon fill="white" stroke="#666666" points="513,-196 436,-196 436,-177 513,-177 513,-196"/>
<text text-anchor="middle" x="474.5" y="-184" font-family="Helvetica,sans-Serif" font-size="10.00">GraphObject</text>
</a>
</g>
</g>
<!-- Node8&#45;&gt;Node7 -->
<g id="edge8_Node000007_Node000008" class="edge">
<title>Node8&#45;&gt;Node7</title>
<g id="a_edge8_Node000007_Node000008"><a xlink:title=" ">
<path fill="none" stroke="#63b8ff" d="M523.73,-187.2C566.82,-187.82 627.99,-188.71 660.39,-189.18"/>
<polygon fill="#63b8ff" stroke="#63b8ff" points="523.52,-183.7 513.47,-187.05 523.42,-190.69 523.52,-183.7"/>
</a>
</g>
</g>
<!-- Node9 -->
<g id="Node000009" class="node">
<title>Node9</title>
<g id="a_Node000009"><a xlink:title=" ">
<polygon fill="white" stroke="#bfbfbf" points="323.5,-196 240.5,-196 240.5,-177 323.5,-177 323.5,-196"/>
<text text-anchor="middle" x="282" y="-184" font-family="Helvetica,sans-Serif" font-size="10.00">PointerObject</text>
</a>
</g>
</g>
<!-- Node9&#45;&gt;Node8 -->
<g id="edge9_Node000008_Node000009" class="edge">
<title>Node9&#45;&gt;Node8</title>
<g id="a_edge9_Node000008_Node000009"><a xlink:title=" ">
<path fill="none" stroke="#63b8ff" d="M333.96,-186.5C366.05,-186.5 406.78,-186.5 435.93,-186.5"/>
<polygon fill="#63b8ff" stroke="#63b8ff" points="333.87,-183 323.87,-186.5 333.87,-190 333.87,-183"/>
</a>
</g>
</g>
<!-- Node10 -->
<g id="Node000010" class="node">
<title>Node10</title>
<g id="a_Node000010"><a xlink:title=" ">
<polygon fill="white" stroke="#bfbfbf" points="525,-159 424,-159 424,-140 525,-140 525,-159"/>
<text text-anchor="middle" x="474.5" y="-147" font-family="Helvetica,sans-Serif" font-size="10.00">Iterable&lt; Edge &gt;</text>
</a>
</g>
</g>
<!-- Node10&#45;&gt;Node7 -->
<g id="edge10_Node000007_Node000010" class="edge">
<title>Node10&#45;&gt;Node7</title>
<g id="a_edge10_Node000007_Node000010"><a xlink:title=" ">
<path fill="none" stroke="#63b8ff" d="M534.67,-160.93C576.69,-169.05 630.72,-179.49 660.44,-185.24"/>
<polygon fill="#63b8ff" stroke="#63b8ff" points="535.3,-157.49 524.82,-159.03 533.97,-164.36 535.3,-157.49"/>
</a>
</g>
</g>
<!-- Node11 -->
<g id="Node000011" class="node">
<title>Node11</title>
<g id="a_Node000011"><a xlink:href="interfacefr_1_1inria_1_1corese_1_1core_1_1sparql_1_1api_1_1Graph.html" target="_top" xlink:title=" ">
<polygon fill="white" stroke="#666666" points="497.5,-122 451.5,-122 451.5,-103 497.5,-103 497.5,-122"/>
<text text-anchor="middle" x="474.5" y="-110" font-family="Helvetica,sans-Serif" font-size="10.00">Graph</text>
</a>
</g>
</g>
<!-- Node11&#45;&gt;Node7 -->
<g id="edge11_Node000007_Node000011" class="edge">
<title>Node11&#45;&gt;Node7</title>
<g id="a_edge11_Node000007_Node000011"><a xlink:title=" ">
<path fill="none" stroke="#63b8ff" d="M507.34,-120.84C538.4,-129.38 586.72,-143.75 627,-160.5 640.45,-166.09 655.03,-173.78 665.86,-179.83"/>
<polygon fill="#63b8ff" stroke="#63b8ff" points="508.07,-117.41 497.5,-118.17 506.24,-124.16 508.07,-117.41"/>
</a>
</g>
</g>
<!-- Node12 -->
<g id="Node000012" class="node">
<title>Node12</title>
<g id="a_Node000012"><a xlink:href="interfacefr_1_1inria_1_1corese_1_1core_1_1kgram_1_1api_1_1core_1_1Graph.html" target="_top" xlink:title=" ">
<polygon fill="white" stroke="#bfbfbf" points="305,-122 259,-122 259,-103 305,-103 305,-122"/>
<text text-anchor="middle" x="282" y="-110" font-family="Helvetica,sans-Serif" font-size="10.00">Graph</text>
</a>
</g>
</g>
<!-- Node12&#45;&gt;Node11 -->
<g id="edge12_Node000011_Node000012" class="edge">
<title>Node12&#45;&gt;Node11</title>
<g id="a_edge12_Node000011_Node000012"><a xlink:title=" ">
<path fill="none" stroke="#63b8ff" d="M315.44,-112.5C354.19,-112.5 417.95,-112.5 451.42,-112.5"/>
<polygon fill="#63b8ff" stroke="#63b8ff" points="315.23,-109 305.23,-112.5 315.23,-116 315.23,-109"/>
</a>
</g>
</g>
<!-- Node13 -->
<g id="Node000013" class="node">
<title>Node13</title>
<g id="a_Node000013"><a xlink:title=" ">
<polygon fill="white" stroke="#bfbfbf" points="508,-307 441,-307 441,-288 508,-288 508,-307"/>
<text text-anchor="middle" x="474.5" y="-295" font-family="Helvetica,sans-Serif" font-size="10.00">Graphable</text>
</a>
</g>
</g>
<!-- Node13&#45;&gt;Node7 -->
<g id="edge13_Node000007_Node000013" class="edge">
<title>Node13&#45;&gt;Node7</title>
<g id="a_edge13_Node000007_Node000013"><a xlink:title=" ">
<path fill="none" stroke="#63b8ff" d="M518.14,-292.21C550.11,-286.69 593.88,-275.75 627,-254.5 649.48,-240.08 667.79,-213.8 676.67,-199.47"/>
<polygon fill="#63b8ff" stroke="#63b8ff" points="517.52,-288.76 508.2,-293.81 518.63,-295.67 517.52,-288.76"/>
</a>
</g>
</g>
<!-- Node14 -->
<g id="Node000014" class="node">
<title>Node14</title>
<g id="a_Node000014"><a xlink:title=" ">
<polygon fill="white" stroke="#bfbfbf" points="508.5,-270 440.5,-270 440.5,-251 508.5,-251 508.5,-270"/>
<text text-anchor="middle" x="474.5" y="-258" font-family="Helvetica,sans-Serif" font-size="10.00">TripleStore</text>
</a>
</g>
</g>
<!-- Node14&#45;&gt;Node7 -->
<g id="edge14_Node000007_Node000014" class="edge">
<title>Node14&#45;&gt;Node7</title>
<g id="a_edge14_Node000007_Node000014"><a xlink:title=" ">
<path fill="none" stroke="#63b8ff" d="M518.67,-256.09C549.78,-251.8 592.23,-243.63 627,-228.5 644.06,-221.08 661.2,-207.96 671.83,-199.01"/>
<polygon fill="#63b8ff" stroke="#63b8ff" points="518.05,-252.64 508.58,-257.4 518.95,-259.58 518.05,-252.64"/>
</a>
</g>
</g>
<!-- Node15 -->
<g id="Node000015" class="node">
<title>Node15</title>
<g id="a_Node000015"><a xlink:href="classfr_1_1inria_1_1corese_1_1core_1_1NodeGraphIndex.html" target="_top" xlink:title="Manage Nodes of a graph, for each graph name.">
<polygon fill="white" stroke="#666666" points="523.5,-233 425.5,-233 425.5,-214 523.5,-214 523.5,-233"/>
<text text-anchor="middle" x="474.5" y="-221" font-family="Helvetica,sans-Serif" font-size="10.00">NodeGraphIndex</text>
</a>
</g>
</g>
<!-- Node15&#45;&gt;Node7 -->
<g id="edge15_Node000007_Node000015" class="edge">
<title>Node15&#45;&gt;Node7</title>
<g id="a_edge15_Node000007_Node000015"><a xlink:title=" ">
<path fill="none" stroke="#9a32cd" stroke-dasharray="5,2" d="M533.74,-214.57C561.93,-210.17 596.25,-204.71 627,-199.5 638,-197.64 650.21,-195.45 660.37,-193.6"/>
<polygon fill="#9a32cd" stroke="#9a32cd" points="532.99,-211.14 523.65,-216.14 534.06,-218.06 532.99,-211.14"/>
</a>
</g>
<text text-anchor="middle" x="585" y="-216.5" font-family="Helvetica,sans-Serif" font-size="10.00" fill="grey"> nodeGraphIndex</text>
</g>
<!-- Node16 -->
<g id="Node000016" class="node">
<title>Node16</title>
<g id="a_Node000016"><a xlink:title=" ">
<polygon fill="white" stroke="#bfbfbf" points="360,-233 204,-233 204,-214 360,-214 360,-233"/>
<text text-anchor="middle" x="282" y="-221" font-family="Helvetica,sans-Serif" font-size="10.00">NodeGraphIndex.GraphTable</text>
</a>
</g>
</g>
<!-- Node16&#45;&gt;Node15 -->
<g id="edge16_Node000015_Node000016" class="edge">
<title>Node16&#45;&gt;Node15</title>
<g id="a_edge16_Node000015_Node000016"><a xlink:title=" ">
<path fill="none" stroke="#9a32cd" stroke-dasharray="5,2" d="M370.37,-223.5C389.33,-223.5 408.71,-223.5 425.47,-223.5"/>
<polygon fill="#9a32cd" stroke="#9a32cd" points="370.21,-220 360.21,-223.5 370.21,-227 370.21,-220"/>
</a>
</g>
<text text-anchor="middle" x="392" y="-226.5" font-family="Helvetica,sans-Serif" font-size="10.00" fill="grey"> table</text>
</g>
<!-- Node17 -->
<g id="Node000017" class="node">
<title>Node17</title>
<g id="a_Node000017"><a xlink:title=" ">
<polygon fill="white" stroke="#bfbfbf" points="167,-233 0,-233 0,-214 167,-214 167,-233"/>
<text text-anchor="middle" x="83.5" y="-221" font-family="Helvetica,sans-Serif" font-size="10.00">HashMap&lt; Node, NodeTable &gt;</text>
</a>
</g>
</g>
<!-- Node17&#45;&gt;Node16 -->
<g id="edge17_Node000016_Node000017" class="edge">
<title>Node17&#45;&gt;Node16</title>
<g id="a_edge17_Node000016_Node000017"><a xlink:title=" ">
<path fill="none" stroke="#63b8ff" d="M177.3,-223.5C186.23,-223.5 195.22,-223.5 203.97,-223.5"/>
<polygon fill="#63b8ff" stroke="#63b8ff" points="177.26,-220 167.26,-223.5 177.26,-227 177.26,-220"/>
</a>
</g>
</g>
<!-- Node18&#45;&gt;Node7 -->
<g id="edge18_Node000007_Node000018" class="edge">
<title>Node18&#45;&gt;Node7</title>
<g id="a_edge18_Node000007_Node000018"><a xlink:title=" ">
<path fill="none" stroke="#9a32cd" stroke-dasharray="5,2" d="M820.83,-69.84C795.78,-66.11 763.87,-65.73 740,-80.5 703.7,-102.96 690.19,-157.34 686.06,-179.68"/>
<polygon fill="#9a32cd" stroke="#9a32cd" points="820.31,-73.3 830.76,-71.54 821.5,-66.4 820.31,-73.3"/>
</a>
</g>
<text text-anchor="middle" x="765.5" y="-83.5" font-family="Helvetica,sans-Serif" font-size="10.00" fill="grey"> manager</text>
</g>
<!-- Node19 -->
<g id="Node000019" class="node">
<title>Node19</title>
<g id="a_Node000019"><a xlink:title=" ">
<polygon fill="white" stroke="#bfbfbf" points="708.5,-56 658.5,-56 658.5,-37 708.5,-37 708.5,-56"/>
<text text-anchor="middle" x="683.5" y="-44" font-family="Helvetica,sans-Serif" font-size="10.00">Engine</text>
</a>
</g>
</g>
<!-- Node19&#45;&gt;Node18 -->
<g id="edge19_Node000018_Node000019" class="edge">
<title>Node19&#45;&gt;Node18</title>
<g id="a_edge19_Node000018_Node000019"><a xlink:title=" ">
<path fill="none" stroke="#63b8ff" d="M718.8,-49.82C739.77,-52.15 767.07,-55.7 791,-60.5 804.21,-63.15 818.61,-66.9 830.89,-70.37"/>
<polygon fill="#63b8ff" stroke="#63b8ff" points="719.08,-46.33 708.76,-48.75 718.33,-53.3 719.08,-46.33"/>
</a>
</g>
</g>
<!-- Node20 -->
<g id="Node000020" class="node">
<title>Node20</title>
<g id="a_Node000020"><a xlink:href="classfr_1_1inria_1_1corese_1_1core_1_1EventManager.html" target="_top" xlink:title="Event Manager for consistency and trace Update and Inference are tracked Debug mode traces events Sho...">
<polygon fill="white" stroke="#666666" points="518,-53 431,-53 431,-34 518,-34 518,-53"/>
<text text-anchor="middle" x="474.5" y="-41" font-family="Helvetica,sans-Serif" font-size="10.00">EventManager</text>
</a>
</g>
</g>
<!-- Node20&#45;&gt;Node7 -->
<g id="edge21_Node000007_Node000020" class="edge">
<title>Node20&#45;&gt;Node7</title>
<g id="a_edge21_Node000007_Node000020"><a xlink:title=" ">
<path fill="none" stroke="#9a32cd" stroke-dasharray="5,2" d="M513.84,-56.56C546.26,-68.87 592.77,-89.58 627,-117.5 649.5,-135.86 668.33,-165.02 677.14,-179.97"/>
<polygon fill="#9a32cd" stroke="#9a32cd" points="514.85,-53.2 504.26,-53.01 512.42,-59.77 514.85,-53.2"/>
</a>
</g>
<text text-anchor="middle" x="585" y="-120.5" font-family="Helvetica,sans-Serif" font-size="10.00" fill="grey"> eventManager</text>
</g>
<!-- Node22 -->
<g id="Node000022" class="node">
<title>Node22</title>
<g id="a_Node000022"><a xlink:href="classfr_1_1inria_1_1corese_1_1core_1_1EventLogger.html" target="_top" xlink:title=" ">
<polygon fill="white" stroke="#666666" points="722,-19 645,-19 645,0 722,0 722,-19"/>
<text text-anchor="middle" x="683.5" y="-7" font-family="Helvetica,sans-Serif" font-size="10.00">EventLogger</text>
</a>
</g>
</g>
<!-- Node20&#45;&gt;Node22 -->
<g id="edge24_Node000022_Node000020" class="edge">
<title>Node20&#45;&gt;Node22</title>
<g id="a_edge24_Node000022_Node000020"><a xlink:title=" ">
<path fill="none" stroke="#9a32cd" stroke-dasharray="5,2" d="M497.68,-28.55C510.36,-20.92 526.9,-12.43 543,-8.5 576.77,-0.27 616.51,-1.58 644.92,-4.32"/>
<polygon fill="#9a32cd" stroke="#9a32cd" points="495.8,-25.6 489.19,-33.88 499.52,-31.53 495.8,-25.6"/>
</a>
</g>
<text text-anchor="middle" x="585" y="-11.5" font-family="Helvetica,sans-Serif" font-size="10.00" fill="grey"> mgr</text>
</g>
<!-- Node21 -->
<g id="Node000021" class="node">
<title>Node21</title>
<g id="a_Node000021"><a xlink:href="interfacefr_1_1inria_1_1corese_1_1core_1_1EventHandler.html" target="_top" xlink:title=" ">
<polygon fill="white" stroke="#bfbfbf" points="323.5,-53 240.5,-53 240.5,-34 323.5,-34 323.5,-53"/>
<text text-anchor="middle" x="282" y="-41" font-family="Helvetica,sans-Serif" font-size="10.00">EventHandler</text>
</a>
</g>
</g>
<!-- Node21&#45;&gt;Node20 -->
<g id="edge22_Node000020_Node000021" class="edge">
<title>Node21&#45;&gt;Node20</title>
<g id="a_edge22_Node000020_Node000021"><a xlink:title=" ">
<path fill="none" stroke="#63b8ff" d="M334.2,-43.5C364.38,-43.5 402.13,-43.5 430.72,-43.5"/>
<polygon fill="#63b8ff" stroke="#63b8ff" points="333.87,-40 323.87,-43.5 333.87,-47 333.87,-40"/>
</a>
</g>
</g>
<!-- Node22&#45;&gt;Node20 -->
<g id="edge23_Node000020_Node000022" class="edge">
<title>Node22&#45;&gt;Node20</title>
<g id="a_edge23_Node000020_Node000022"><a xlink:title=" ">
<path fill="none" stroke="#9a32cd" stroke-dasharray="5,2" d="M635.07,-19.98C632.34,-20.51 629.64,-21.02 627,-21.5 590.38,-28.11 548.51,-34.07 518.07,-38.11"/>
<polygon fill="#9a32cd" stroke="#9a32cd" points="635.84,-23.4 644.95,-17.98 634.46,-16.53 635.84,-23.4"/>
</a>
</g>
<text text-anchor="middle" x="585" y="-37.5" font-family="Helvetica,sans-Serif" font-size="10.00" fill="grey"> log</text>
</g>
<!-- Node23&#45;&gt;Node7 -->
<g id="edge25_Node000007_Node000023" class="edge">
<title>Node23&#45;&gt;Node7</title>
<g id="a_edge25_Node000007_Node000023"><a xlink:title=" ">
<path fill="none" stroke="#9a32cd" stroke-dasharray="5,2" d="M814.69,-312.65C812.69,-311.39 810.78,-310 809,-308.5 796.25,-297.71 803.25,-286.86 791,-275.5 772.77,-258.6 760,-267.27 740,-252.5 719.13,-237.09 700.45,-212.65 691,-199.19"/>
<polygon fill="#9a32cd" stroke="#9a32cd" points="813.45,-315.95 823.92,-317.51 816.71,-309.76 813.45,-315.95"/>
</a>
</g>
<text text-anchor="middle" x="765.5" y="-278.5" font-family="Helvetica,sans-Serif" font-size="10.00" fill="grey"> fac</text>
</g>
<!-- Node24&#45;&gt;Node7 -->
<g id="edge27_Node000007_Node000024" class="edge">
<title>Node24&#45;&gt;Node7</title>
<g id="a_edge27_Node000007_Node000024"><a xlink:title=" ">
<path fill="none" stroke="#9a32cd" stroke-dasharray="5,2" d="M819.13,-182.35C809.87,-183.13 800.11,-183.9 791,-184.5 761.82,-186.43 728.09,-187.89 706.54,-188.71"/>
<polygon fill="#9a32cd" stroke="#9a32cd" points="819.65,-185.82 829.31,-181.48 819.05,-178.85 819.65,-185.82"/>
</a>
</g>
<text text-anchor="middle" x="765.5" y="-190.5" font-family="Helvetica,sans-Serif" font-size="10.00" fill="grey"> dataStore</text>
</g>
<!-- Node25 -->
<g id="Node000025" class="node">
<title>Node25</title>
<g id="a_Node000025"><a xlink:href="interfacefr_1_1inria_1_1corese_1_1core_1_1load_1_1Build.html" target="_top" xlink:title="Translate an RDF/XML document into a Graph.">
<polygon fill="white" stroke="#666666" points="882.5,-299 841.5,-299 841.5,-280 882.5,-280 882.5,-299"/>
<text text-anchor="middle" x="862" y="-287" font-family="Helvetica,sans-Serif" font-size="10.00">Build</text>
</a>
</g>
</g>
<!-- Node25&#45;&gt;Node5 -->
<g id="edge29_Node000005_Node000025" class="edge">
<title>Node25&#45;&gt;Node5</title>
<g id="a_edge29_Node000005_Node000025"><a xlink:title=" ">
<path fill="none" stroke="#63b8ff" d="M892.72,-284.77C910.77,-281.9 933.77,-278.25 951.97,-275.35"/>
<polygon fill="#63b8ff" stroke="#63b8ff" points="892.06,-281.34 882.73,-286.36 893.16,-288.25 892.06,-281.34"/>
</a>
</g>
</g>
<!-- Node26 -->
<g id="Node000026" class="node">
<title>Node26</title>
<g id="a_Node000026"><a xlink:title=" ">
<polygon fill="white" stroke="#bfbfbf" points="915,-262 809,-262 809,-243 915,-243 915,-262"/>
<text text-anchor="middle" x="862" y="-250" font-family="Helvetica,sans-Serif" font-size="10.00">StatementHandler</text>
</a>
</g>
</g>
<!-- Node26&#45;&gt;Node5 -->
<g id="edge30_Node000005_Node000026" class="edge">
<title>Node26&#45;&gt;Node5</title>
<g id="a_edge30_Node000005_Node000026"><a xlink:title=" ">
<path fill="none" stroke="#63b8ff" d="M925.15,-261.86C934.45,-263.26 943.67,-264.65 951.91,-265.89"/>
<polygon fill="#63b8ff" stroke="#63b8ff" points="925.48,-258.37 915.07,-260.34 924.43,-265.29 925.48,-258.37"/>
</a>
</g>
</g>
<!-- Node27 -->
<g id="Node000027" class="node">
<title>Node27</title>
<g id="a_Node000027"><a xlink:title=" ">
<polygon fill="white" stroke="#bfbfbf" points="901,-225 823,-225 823,-206 901,-206 901,-225"/>
<text text-anchor="middle" x="862" y="-213" font-family="Helvetica,sans-Serif" font-size="10.00">ErrorHandler</text>
</a>
</g>
</g>
<!-- Node27&#45;&gt;Node5 -->
<g id="edge31_Node000005_Node000027" class="edge">
<title>Node27&#45;&gt;Node5</title>
<g id="a_edge31_Node000005_Node000027"><a xlink:title=" ">
<path fill="none" stroke="#63b8ff" d="M902.89,-228.54C907.02,-230.11 911.12,-231.78 915,-233.5 933.33,-241.63 953.35,-252.93 966.79,-260.9"/>
<polygon fill="#63b8ff" stroke="#63b8ff" points="903.9,-225.18 893.31,-225.03 901.49,-231.75 903.9,-225.18"/>
</a>
</g>
</g>
</g>
</svg>
