<?xml version="1.0" encoding="UTF-8" standalone="no"?>
<!DOCTYPE svg PUBLIC "-//W3C//DTD SVG 1.1//EN"
 "http://www.w3.org/Graphics/SVG/1.1/DTD/svg11.dtd">
<!-- Generated by graphviz version 2.43.0 (0)
 -->
<!-- Title: CreateImpl Pages: 1 -->
<svg width="1370pt" height="462pt"
 viewBox="0.00 0.00 1370.00 462.00" xmlns="http://www.w3.org/2000/svg" xmlns:xlink="http://www.w3.org/1999/xlink">
<g id="graph0" class="graph" transform="scale(1 1) rotate(0) translate(4 458)">
<title>CreateImpl</title>
<!-- Node1 -->
<g id="Node000001" class="node">
<title>Node1</title>
<g id="a_Node000001"><a xlink:title="Create Edge on the fly for Turtle parser.">
<polygon fill="#999999" stroke="#666666" points="1362,-94 1291,-94 1291,-75 1362,-75 1362,-94"/>
<text text-anchor="middle" x="1326.5" y="-82" font-family="Helvetica,sans-Serif" font-size="10.00">CreateImpl</text>
</a>
</g>
</g>
<!-- Node2 -->
<g id="Node000002" class="node">
<title>Node2</title>
<g id="a_Node000002"><a xlink:href="classfr_1_1inria_1_1corese_1_1core_1_1load_1_1CreateTriple.html" target="_top" xlink:title=" ">
<polygon fill="white" stroke="#666666" points="899.5,-156 824.5,-156 824.5,-137 899.5,-137 899.5,-156"/>
<text text-anchor="middle" x="862" y="-144" font-family="Helvetica,sans-Serif" font-size="10.00">CreateTriple</text>
</a>
</g>
</g>
<!-- Node2&#45;&gt;Node1 -->
<g id="edge1_Node000001_Node000002" class="edge">
<title>Node2&#45;&gt;Node1</title>
<g id="a_edge1_Node000001_Node000002"><a xlink:title=" ">
<path fill="none" stroke="#63b8ff" d="M910.01,-143.21C986.57,-137.36 1142.73,-123.36 1273,-98.5 1279.39,-97.28 1286.15,-95.7 1292.62,-94.04"/>
<polygon fill="#63b8ff" stroke="#63b8ff" points="909.45,-139.74 899.74,-143.98 909.98,-146.72 909.45,-139.74"/>
</a>
</g>
</g>
<!-- Node6 -->
<g id="Node000006" class="node">
<title>Node6</title>
<g id="a_Node000006"><a xlink:href="classfr_1_1inria_1_1corese_1_1core_1_1load_1_1BuildImpl.html" target="_top" xlink:title="Graph creation Methods are public, Design to be refined.">
<polygon fill="white" stroke="#666666" points="1037.5,-357 974.5,-357 974.5,-338 1037.5,-338 1037.5,-357"/>
<text text-anchor="middle" x="1006" y="-345" font-family="Helvetica,sans-Serif" font-size="10.00">BuildImpl</text>
</a>
</g>
</g>
<!-- Node2&#45;&gt;Node6 -->
<g id="edge6_Node000006_Node000002" class="edge">
<title>Node2&#45;&gt;Node6</title>
<g id="a_edge6_Node000006_Node000002"><a xlink:title=" ">
<path fill="none" stroke="#63b8ff" d="M896.63,-161.12C903.57,-165.5 910.21,-170.93 915,-177.5 935.96,-206.25 917.67,-223.39 933,-255.5 949.08,-289.18 979.24,-321.97 994.93,-337.75"/>
<polygon fill="#63b8ff" stroke="#63b8ff" points="898.23,-158.01 887.8,-156.13 894.78,-164.1 898.23,-158.01"/>
</a>
</g>
</g>
<!-- Node3 -->
<g id="Node000003" class="node">
<title>Node3</title>
<g id="a_Node000003"><a xlink:href="classfr_1_1inria_1_1corese_1_1core_1_1load_1_1Load.html" target="_top" xlink:title="Translate an RDF/XML document into a Graph use ARP.">
<polygon fill="white" stroke="#666666" points="1194.5,-208 1154.5,-208 1154.5,-189 1194.5,-189 1194.5,-208"/>
<text text-anchor="middle" x="1174.5" y="-196" font-family="Helvetica,sans-Serif" font-size="10.00">Load</text>
</a>
</g>
</g>
<!-- Node3&#45;&gt;Node1 -->
<g id="edge37_Node000001_Node000003" class="edge">
<title>Node3&#45;&gt;Node1</title>
<g id="a_edge37_Node000001_Node000003"><a xlink:title=" ">
<path fill="none" stroke="#9a32cd" stroke-dasharray="5,2" d="M1202.56,-183.83C1222.77,-172.35 1250.65,-155.37 1273,-137.5 1289.99,-123.91 1307.29,-105.33 1317.18,-94.16"/>
<polygon fill="#9a32cd" stroke="#9a32cd" points="1200.6,-180.92 1193.58,-188.86 1204.02,-187.03 1200.6,-180.92"/>
</a>
</g>
<text text-anchor="middle" x="1258" y="-160.5" font-family="Helvetica,sans-Serif" font-size="10.00" fill="grey"> load</text>
</g>
<!-- Node3&#45;&gt;Node2 -->
<g id="edge2_Node000002_Node000003" class="edge">
<title>Node3&#45;&gt;Node2</title>
<g id="a_edge2_Node000002_Node000003"><a xlink:title=" ">
<path fill="none" stroke="#9a32cd" stroke-dasharray="5,2" d="M1144.75,-209.42C1101.08,-224.19 1016.33,-245.63 952,-217.5 929.81,-207.8 933.82,-192.75 915,-177.5 904.87,-169.3 892.36,-161.77 882.14,-156.18"/>
<polygon fill="#9a32cd" stroke="#9a32cd" points="1146.15,-212.64 1154.43,-206.03 1143.83,-206.03 1146.15,-212.64"/>
</a>
</g>
<text text-anchor="middle" x="1006" y="-233.5" font-family="Helvetica,sans-Serif" font-size="10.00" fill="grey"> load</text>
</g>
<!-- Node4 -->
<g id="Node000004" class="node">
<title>Node4</title>
<g id="a_Node000004"><a xlink:title=" ">
<polygon fill="white" stroke="#bfbfbf" points="1044,-208 968,-208 968,-189 1044,-189 1044,-208"/>
<text text-anchor="middle" x="1006" y="-196" font-family="Helvetica,sans-Serif" font-size="10.00">RDFListener</text>
</a>
</g>
</g>
<!-- Node4&#45;&gt;Node3 -->
<g id="edge3_Node000003_Node000004" class="edge">
<title>Node4&#45;&gt;Node3</title>
<g id="a_edge3_Node000003_Node000004"><a xlink:title=" ">
<path fill="none" stroke="#63b8ff" d="M1054.76,-198.5C1087.87,-198.5 1130.21,-198.5 1154.35,-198.5"/>
<polygon fill="#63b8ff" stroke="#63b8ff" points="1054.37,-195 1044.37,-198.5 1054.37,-202 1054.37,-195"/>
</a>
</g>
</g>
<!-- Node5 -->
<g id="Node000005" class="node">
<title>Node5</title>
<g id="a_Node000005"><a xlink:title=" ">
<polygon fill="white" stroke="#bfbfbf" points="1031,-171 981,-171 981,-152 1031,-152 1031,-171"/>
<text text-anchor="middle" x="1006" y="-159" font-family="Helvetica,sans-Serif" font-size="10.00">Loader</text>
</a>
</g>
</g>
<!-- Node5&#45;&gt;Node3 -->
<g id="edge4_Node000003_Node000005" class="edge">
<title>Node5&#45;&gt;Node3</title>
<g id="a_edge4_Node000003_Node000005"><a xlink:title=" ">
<path fill="none" stroke="#63b8ff" d="M1041.24,-169.11C1075.47,-176.72 1126.88,-188.14 1154.44,-194.26"/>
<polygon fill="#63b8ff" stroke="#63b8ff" points="1041.73,-165.63 1031.21,-166.88 1040.21,-172.47 1041.73,-165.63"/>
</a>
</g>
</g>
<!-- Node6&#45;&gt;Node3 -->
<g id="edge5_Node000003_Node000006" class="edge">
<title>Node6&#45;&gt;Node3</title>
<g id="a_edge5_Node000003_Node000006"><a xlink:title=" ">
<path fill="none" stroke="#9a32cd" stroke-dasharray="5,2" d="M1025.51,-330.93C1060.42,-299.7 1134.95,-233 1162.75,-208.12"/>
<polygon fill="#9a32cd" stroke="#9a32cd" points="1023.04,-328.45 1017.92,-337.72 1027.71,-333.66 1023.04,-328.45"/>
</a>
</g>
<text text-anchor="middle" x="1092" y="-284.5" font-family="Helvetica,sans-Serif" font-size="10.00" fill="grey"> build</text>
</g>
<!-- Node7 -->
<g id="Node000007" class="node">
<title>Node7</title>
<g id="a_Node000007"><a xlink:href="interfacefr_1_1inria_1_1corese_1_1core_1_1load_1_1Build.html" target="_top" xlink:title="Translate an RDF/XML document into a Graph.">
<polygon fill="white" stroke="#666666" points="882.5,-454 841.5,-454 841.5,-435 882.5,-435 882.5,-454"/>
<text text-anchor="middle" x="862" y="-442" font-family="Helvetica,sans-Serif" font-size="10.00">Build</text>
</a>
</g>
</g>
<!-- Node7&#45;&gt;Node6 -->
<g id="edge7_Node000006_Node000007" class="edge">
<title>Node7&#45;&gt;Node6</title>
<g id="a_edge7_Node000006_Node000007"><a xlink:title=" ">
<path fill="none" stroke="#63b8ff" d="M892.26,-436.58C899.92,-433.93 907.99,-430.57 915,-426.5 948.79,-406.85 981.49,-373.45 996.47,-357.1"/>
<polygon fill="#63b8ff" stroke="#63b8ff" points="891.01,-433.31 882.55,-439.68 893.14,-439.98 891.01,-433.31"/>
</a>
</g>
</g>
<!-- Node8 -->
<g id="Node000008" class="node">
<title>Node8</title>
<g id="a_Node000008"><a xlink:title=" ">
<polygon fill="white" stroke="#bfbfbf" points="915,-417 809,-417 809,-398 915,-398 915,-417"/>
<text text-anchor="middle" x="862" y="-405" font-family="Helvetica,sans-Serif" font-size="10.00">StatementHandler</text>
</a>
</g>
</g>
<!-- Node8&#45;&gt;Node6 -->
<g id="edge8_Node000006_Node000008" class="edge">
<title>Node8&#45;&gt;Node6</title>
<g id="a_edge8_Node000006_Node000008"><a xlink:title=" ">
<path fill="none" stroke="#63b8ff" d="M901.95,-394.51C906.38,-392.89 910.8,-391.2 915,-389.5 939.93,-379.4 967.9,-366.01 985.94,-357.1"/>
<polygon fill="#63b8ff" stroke="#63b8ff" points="900.59,-391.28 892.35,-397.93 902.94,-397.87 900.59,-391.28"/>
</a>
</g>
</g>
<!-- Node9 -->
<g id="Node000009" class="node">
<title>Node9</title>
<g id="a_Node000009"><a xlink:title=" ">
<polygon fill="white" stroke="#bfbfbf" points="901,-380 823,-380 823,-361 901,-361 901,-380"/>
<text text-anchor="middle" x="862" y="-368" font-family="Helvetica,sans-Serif" font-size="10.00">ErrorHandler</text>
</a>
</g>
</g>
<!-- Node9&#45;&gt;Node6 -->
<g id="edge9_Node000006_Node000009" class="edge">
<title>Node9&#45;&gt;Node6</title>
<g id="a_edge9_Node000006_Node000009"><a xlink:title=" ">
<path fill="none" stroke="#63b8ff" d="M911.07,-362.71C932.05,-359.32 956.01,-355.43 974.48,-352.44"/>
<polygon fill="#63b8ff" stroke="#63b8ff" points="910.37,-359.28 901.05,-364.34 911.48,-366.19 910.37,-359.28"/>
</a>
</g>
</g>
<!-- Node10 -->
<g id="Node000010" class="node">
<title>Node10</title>
<g id="a_Node000010"><a xlink:href="classfr_1_1inria_1_1corese_1_1core_1_1Graph.html" target="_top" xlink:title="Graph Manager Edges are stored in an index An index is a table: predicate &#45;&gt; List&lt;Edge&gt; Edge List are...">
<polygon fill="white" stroke="#666666" points="706.5,-244 660.5,-244 660.5,-225 706.5,-225 706.5,-244"/>
<text text-anchor="middle" x="683.5" y="-232" font-family="Helvetica,sans-Serif" font-size="10.00">Graph</text>
</a>
</g>
</g>
<!-- Node10&#45;&gt;Node1 -->
<g id="edge34_Node000001_Node000010" class="edge">
<title>Node10&#45;&gt;Node1</title>
<g id="a_edge34_Node000001_Node000010"><a xlink:title=" ">
<path fill="none" stroke="#9a32cd" stroke-dasharray="5,2" d="M690.04,-215.12C697.65,-191.76 713.51,-152.75 740,-129.5 783.12,-91.65 803.62,-84.5 861,-84.5 861,-84.5 861,-84.5 1175.5,-84.5 1215.08,-84.5 1260.54,-84.5 1290.94,-84.5"/>
<polygon fill="#9a32cd" stroke="#9a32cd" points="686.62,-214.33 687.03,-224.92 693.31,-216.39 686.62,-214.33"/>
</a>
</g>
<text text-anchor="middle" x="1006" y="-87.5" font-family="Helvetica,sans-Serif" font-size="10.00" fill="grey"> graph</text>
</g>
<!-- Node10&#45;&gt;Node2 -->
<g id="edge32_Node000002_Node000010" class="edge">
<title>Node10&#45;&gt;Node2</title>
<g id="a_edge32_Node000002_Node000010"><a xlink:title=" ">
<path fill="none" stroke="#9a32cd" stroke-dasharray="5,2" d="M690.23,-215.32C697.77,-193.9 713.3,-160.31 740,-145.5 765.53,-131.33 799.01,-132.84 824.28,-137.19"/>
<polygon fill="#9a32cd" stroke="#9a32cd" points="686.85,-214.39 687.07,-224.98 693.5,-216.56 686.85,-214.39"/>
</a>
</g>
<text text-anchor="middle" x="765.5" y="-148.5" font-family="Helvetica,sans-Serif" font-size="10.00" fill="grey"> graph</text>
</g>
<!-- Node10&#45;&gt;Node6 -->
<g id="edge10_Node000006_Node000010" class="edge">
<title>Node10&#45;&gt;Node6</title>
<g id="a_edge10_Node000006_Node000010"><a xlink:title=" ">
<path fill="none" stroke="#9a32cd" stroke-dasharray="5,2" d="M710.07,-248.96C719.3,-253.76 729.92,-258.81 740,-262.5 815.1,-290.03 839.61,-277.78 915,-304.5 941.28,-313.81 970.1,-328.42 987.87,-337.98"/>
<polygon fill="#9a32cd" stroke="#9a32cd" points="711.52,-245.76 701.05,-244.12 708.21,-251.93 711.52,-245.76"/>
</a>
</g>
<text text-anchor="middle" x="862" y="-307.5" font-family="Helvetica,sans-Serif" font-size="10.00" fill="grey"> graph</text>
</g>
<!-- Node21 -->
<g id="Node000021" class="node">
<title>Node21</title>
<g id="a_Node000021"><a xlink:href="classfr_1_1inria_1_1corese_1_1core_1_1Workflow.html" target="_top" xlink:title="Manage a set of inference engines Loop until no inference is performed It is automatically called whe...">
<polygon fill="white" stroke="#666666" points="893,-343 831,-343 831,-324 893,-324 893,-343"/>
<text text-anchor="middle" x="862" y="-331" font-family="Helvetica,sans-Serif" font-size="10.00">Workflow</text>
</a>
</g>
</g>
<!-- Node10&#45;&gt;Node21 -->
<g id="edge23_Node000021_Node000010" class="edge">
<title>Node10&#45;&gt;Node21</title>
<g id="a_edge23_Node000021_Node000010"><a xlink:title=" ">
<path fill="none" stroke="#9a32cd" stroke-dasharray="5,2" d="M694.23,-253.16C703.72,-269.48 719.68,-292.55 740,-305.5 767.55,-323.06 804.87,-329.64 830.75,-332.09"/>
<polygon fill="#9a32cd" stroke="#9a32cd" points="697.08,-251.07 689.17,-244.01 690.95,-254.46 697.08,-251.07"/>
</a>
</g>
<text text-anchor="middle" x="765.5" y="-327.5" font-family="Helvetica,sans-Serif" font-size="10.00" fill="grey"> graph</text>
</g>
<!-- Node26 -->
<g id="Node000026" class="node">
<title>Node26</title>
<g id="a_Node000026"><a xlink:href="classfr_1_1inria_1_1corese_1_1core_1_1EdgeFactory.html" target="_top" xlink:title=" ">
<polygon fill="white" stroke="#bfbfbf" points="900,-249 824,-249 824,-230 900,-230 900,-249"/>
<text text-anchor="middle" x="862" y="-237" font-family="Helvetica,sans-Serif" font-size="10.00">EdgeFactory</text>
</a>
</g>
</g>
<!-- Node10&#45;&gt;Node26 -->
<g id="edge29_Node000026_Node000010" class="edge">
<title>Node10&#45;&gt;Node26</title>
<g id="a_edge29_Node000026_Node000010"><a xlink:title=" ">
<path fill="none" stroke="#9a32cd" stroke-dasharray="5,2" d="M716.67,-233.82C724.32,-233.69 732.45,-233.57 740,-233.5 762.67,-233.3 768.35,-232.53 791,-233.5 801.72,-233.96 813.35,-234.81 823.98,-235.73"/>
<polygon fill="#9a32cd" stroke="#9a32cd" points="716.58,-230.32 706.64,-234.01 716.71,-237.32 716.58,-230.32"/>
</a>
</g>
<text text-anchor="middle" x="765.5" y="-236.5" font-family="Helvetica,sans-Serif" font-size="10.00" fill="grey"> graph</text>
</g>
<!-- Node27 -->
<g id="Node000027" class="node">
<title>Node27</title>
<g id="a_Node000027"><a xlink:href="classfr_1_1inria_1_1corese_1_1core_1_1DataStore.html" target="_top" xlink:title="Simple DataStore to define what is the default graph By default it is the union of named graphs It ca...">
<polygon fill="white" stroke="#666666" points="894.5,-205 829.5,-205 829.5,-186 894.5,-186 894.5,-205"/>
<text text-anchor="middle" x="862" y="-193" font-family="Helvetica,sans-Serif" font-size="10.00">DataStore</text>
</a>
</g>
</g>
<!-- Node10&#45;&gt;Node27 -->
<g id="edge31_Node000027_Node000010" class="edge">
<title>Node10&#45;&gt;Node27</title>
<g id="a_edge31_Node000027_Node000010"><a xlink:title=" ">
<path fill="none" stroke="#9a32cd" stroke-dasharray="5,2" d="M716.44,-224.02C724.11,-221.69 732.31,-219.37 740,-217.5 770.08,-210.18 804.91,-204.1 829.45,-200.2"/>
<polygon fill="#9a32cd" stroke="#9a32cd" points="715.26,-220.72 706.75,-227.03 717.34,-227.4 715.26,-220.72"/>
</a>
</g>
<text text-anchor="middle" x="765.5" y="-220.5" font-family="Helvetica,sans-Serif" font-size="10.00" fill="grey"> graph</text>
</g>
<!-- Node11 -->
<g id="Node000011" class="node">
<title>Node11</title>
<g id="a_Node000011"><a xlink:href="classfr_1_1inria_1_1corese_1_1core_1_1GraphObject.html" target="_top" xlink:title=" ">
<polygon fill="white" stroke="#666666" points="513,-281 436,-281 436,-262 513,-262 513,-281"/>
<text text-anchor="middle" x="474.5" y="-269" font-family="Helvetica,sans-Serif" font-size="10.00">GraphObject</text>
</a>
</g>
</g>
<!-- Node11&#45;&gt;Node10 -->
<g id="edge11_Node000010_Node000011" class="edge">
<title>Node11&#45;&gt;Node10</title>
<g id="a_edge11_Node000010_Node000011"><a xlink:title=" ">
<path fill="none" stroke="#63b8ff" d="M523.21,-265.46C553.14,-261.37 592.47,-255.46 627,-248.5 638.11,-246.26 650.33,-243.24 660.47,-240.58"/>
<polygon fill="#63b8ff" stroke="#63b8ff" points="522.48,-262.02 513.03,-266.83 523.41,-268.96 522.48,-262.02"/>
</a>
</g>
</g>
<!-- Node12 -->
<g id="Node000012" class="node">
<title>Node12</title>
<g id="a_Node000012"><a xlink:title=" ">
<polygon fill="white" stroke="#bfbfbf" points="323.5,-281 240.5,-281 240.5,-262 323.5,-262 323.5,-281"/>
<text text-anchor="middle" x="282" y="-269" font-family="Helvetica,sans-Serif" font-size="10.00">PointerObject</text>
</a>
</g>
</g>
<!-- Node12&#45;&gt;Node11 -->
<g id="edge12_Node000011_Node000012" class="edge">
<title>Node12&#45;&gt;Node11</title>
<g id="a_edge12_Node000011_Node000012"><a xlink:title=" ">
<path fill="none" stroke="#63b8ff" d="M333.96,-271.5C366.05,-271.5 406.78,-271.5 435.93,-271.5"/>
<polygon fill="#63b8ff" stroke="#63b8ff" points="333.87,-268 323.87,-271.5 333.87,-275 333.87,-268"/>
</a>
</g>
</g>
<!-- Node13 -->
<g id="Node000013" class="node">
<title>Node13</title>
<g id="a_Node000013"><a xlink:title=" ">
<polygon fill="white" stroke="#bfbfbf" points="525,-244 424,-244 424,-225 525,-225 525,-244"/>
<text text-anchor="middle" x="474.5" y="-232" font-family="Helvetica,sans-Serif" font-size="10.00">Iterable&lt; Edge &gt;</text>
</a>
</g>
</g>
<!-- Node13&#45;&gt;Node10 -->
<g id="edge13_Node000010_Node000013" class="edge">
<title>Node13&#45;&gt;Node10</title>
<g id="a_edge13_Node000010_Node000013"><a xlink:title=" ">
<path fill="none" stroke="#63b8ff" d="M535.17,-234.5C577.02,-234.5 630.58,-234.5 660.23,-234.5"/>
<polygon fill="#63b8ff" stroke="#63b8ff" points="535.08,-231 525.08,-234.5 535.08,-238 535.08,-231"/>
</a>
</g>
</g>
<!-- Node14 -->
<g id="Node000014" class="node">
<title>Node14</title>
<g id="a_Node000014"><a xlink:href="interfacefr_1_1inria_1_1corese_1_1core_1_1sparql_1_1api_1_1Graph.html" target="_top" xlink:title=" ">
<polygon fill="white" stroke="#666666" points="497.5,-207 451.5,-207 451.5,-188 497.5,-188 497.5,-207"/>
<text text-anchor="middle" x="474.5" y="-195" font-family="Helvetica,sans-Serif" font-size="10.00">Graph</text>
</a>
</g>
</g>
<!-- Node14&#45;&gt;Node10 -->
<g id="edge14_Node000010_Node000014" class="edge">
<title>Node14&#45;&gt;Node10</title>
<g id="a_edge14_Node000010_Node000014"><a xlink:title=" ">
<path fill="none" stroke="#63b8ff" d="M507.72,-203.26C550.09,-210.83 623.46,-223.95 660.19,-230.51"/>
<polygon fill="#63b8ff" stroke="#63b8ff" points="508.11,-199.77 497.65,-201.46 506.88,-206.66 508.11,-199.77"/>
</a>
</g>
</g>
<!-- Node15 -->
<g id="Node000015" class="node">
<title>Node15</title>
<g id="a_Node000015"><a xlink:href="interfacefr_1_1inria_1_1corese_1_1core_1_1kgram_1_1api_1_1core_1_1Graph.html" target="_top" xlink:title=" ">
<polygon fill="white" stroke="#bfbfbf" points="305,-207 259,-207 259,-188 305,-188 305,-207"/>
<text text-anchor="middle" x="282" y="-195" font-family="Helvetica,sans-Serif" font-size="10.00">Graph</text>
</a>
</g>
</g>
<!-- Node15&#45;&gt;Node14 -->
<g id="edge15_Node000014_Node000015" class="edge">
<title>Node15&#45;&gt;Node14</title>
<g id="a_edge15_Node000014_Node000015"><a xlink:title=" ">
<path fill="none" stroke="#63b8ff" d="M315.44,-197.5C354.19,-197.5 417.95,-197.5 451.42,-197.5"/>
<polygon fill="#63b8ff" stroke="#63b8ff" points="315.23,-194 305.23,-197.5 315.23,-201 315.23,-194"/>
</a>
</g>
</g>
<!-- Node16 -->
<g id="Node000016" class="node">
<title>Node16</title>
<g id="a_Node000016"><a xlink:title=" ">
<polygon fill="white" stroke="#bfbfbf" points="508,-170 441,-170 441,-151 508,-151 508,-170"/>
<text text-anchor="middle" x="474.5" y="-158" font-family="Helvetica,sans-Serif" font-size="10.00">Graphable</text>
</a>
</g>
</g>
<!-- Node16&#45;&gt;Node10 -->
<g id="edge16_Node000010_Node000016" class="edge">
<title>Node16&#45;&gt;Node10</title>
<g id="a_edge16_Node000010_Node000016"><a xlink:title=" ">
<path fill="none" stroke="#63b8ff" d="M518.23,-171.35C548.95,-179.67 591.12,-192.13 627,-206.5 640.22,-211.8 654.57,-219.08 665.36,-224.88"/>
<polygon fill="#63b8ff" stroke="#63b8ff" points="518.84,-167.89 508.27,-168.7 517.03,-174.66 518.84,-167.89"/>
</a>
</g>
</g>
<!-- Node17 -->
<g id="Node000017" class="node">
<title>Node17</title>
<g id="a_Node000017"><a xlink:title=" ">
<polygon fill="white" stroke="#bfbfbf" points="508.5,-355 440.5,-355 440.5,-336 508.5,-336 508.5,-355"/>
<text text-anchor="middle" x="474.5" y="-343" font-family="Helvetica,sans-Serif" font-size="10.00">TripleStore</text>
</a>
</g>
</g>
<!-- Node17&#45;&gt;Node10 -->
<g id="edge17_Node000010_Node000017" class="edge">
<title>Node17&#45;&gt;Node10</title>
<g id="a_edge17_Node000010_Node000017"><a xlink:title=" ">
<path fill="none" stroke="#63b8ff" d="M518.79,-342.74C550.91,-338.93 594.58,-329.9 627,-308.5 652.06,-291.96 670.12,-260.1 678.04,-244.12"/>
<polygon fill="#63b8ff" stroke="#63b8ff" points="518.37,-339.27 508.79,-343.8 519.11,-346.23 518.37,-339.27"/>
</a>
</g>
</g>
<!-- Node18 -->
<g id="Node000018" class="node">
<title>Node18</title>
<g id="a_Node000018"><a xlink:href="classfr_1_1inria_1_1corese_1_1core_1_1NodeGraphIndex.html" target="_top" xlink:title="Manage Nodes of a graph, for each graph name.">
<polygon fill="white" stroke="#666666" points="523.5,-318 425.5,-318 425.5,-299 523.5,-299 523.5,-318"/>
<text text-anchor="middle" x="474.5" y="-306" font-family="Helvetica,sans-Serif" font-size="10.00">NodeGraphIndex</text>
</a>
</g>
</g>
<!-- Node18&#45;&gt;Node10 -->
<g id="edge18_Node000010_Node000018" class="edge">
<title>Node18&#45;&gt;Node10</title>
<g id="a_edge18_Node000010_Node000018"><a xlink:title=" ">
<path fill="none" stroke="#9a32cd" stroke-dasharray="5,2" d="M533.67,-297.32C562.42,-290.76 597.24,-281.22 627,-268.5 642.38,-261.93 658.52,-251.59 669.41,-244.04"/>
<polygon fill="#9a32cd" stroke="#9a32cd" points="532.78,-293.93 523.77,-299.52 534.29,-300.77 532.78,-293.93"/>
</a>
</g>
<text text-anchor="middle" x="585" y="-296.5" font-family="Helvetica,sans-Serif" font-size="10.00" fill="grey"> nodeGraphIndex</text>
</g>
<!-- Node19 -->
<g id="Node000019" class="node">
<title>Node19</title>
<g id="a_Node000019"><a xlink:title=" ">
<polygon fill="white" stroke="#bfbfbf" points="360,-318 204,-318 204,-299 360,-299 360,-318"/>
<text text-anchor="middle" x="282" y="-306" font-family="Helvetica,sans-Serif" font-size="10.00">NodeGraphIndex.GraphTable</text>
</a>
</g>
</g>
<!-- Node19&#45;&gt;Node18 -->
<g id="edge19_Node000018_Node000019" class="edge">
<title>Node19&#45;&gt;Node18</title>
<g id="a_edge19_Node000018_Node000019"><a xlink:title=" ">
<path fill="none" stroke="#9a32cd" stroke-dasharray="5,2" d="M370.37,-308.5C389.33,-308.5 408.71,-308.5 425.47,-308.5"/>
<polygon fill="#9a32cd" stroke="#9a32cd" points="370.21,-305 360.21,-308.5 370.21,-312 370.21,-305"/>
</a>
</g>
<text text-anchor="middle" x="392" y="-311.5" font-family="Helvetica,sans-Serif" font-size="10.00" fill="grey"> table</text>
</g>
<!-- Node20 -->
<g id="Node000020" class="node">
<title>Node20</title>
<g id="a_Node000020"><a xlink:title=" ">
<polygon fill="white" stroke="#bfbfbf" points="167,-318 0,-318 0,-299 167,-299 167,-318"/>
<text text-anchor="middle" x="83.5" y="-306" font-family="Helvetica,sans-Serif" font-size="10.00">HashMap&lt; Node, NodeTable &gt;</text>
</a>
</g>
</g>
<!-- Node20&#45;&gt;Node19 -->
<g id="edge20_Node000019_Node000020" class="edge">
<title>Node20&#45;&gt;Node19</title>
<g id="a_edge20_Node000019_Node000020"><a xlink:title=" ">
<path fill="none" stroke="#63b8ff" d="M177.3,-308.5C186.23,-308.5 195.22,-308.5 203.97,-308.5"/>
<polygon fill="#63b8ff" stroke="#63b8ff" points="177.26,-305 167.26,-308.5 177.26,-312 177.26,-305"/>
</a>
</g>
</g>
<!-- Node21&#45;&gt;Node10 -->
<g id="edge21_Node000010_Node000021" class="edge">
<title>Node21&#45;&gt;Node10</title>
<g id="a_edge21_Node000010_Node000021"><a xlink:title=" ">
<path fill="none" stroke="#9a32cd" stroke-dasharray="5,2" d="M823.9,-345.59C798.5,-351.53 765.02,-354.57 740,-339.5 704.68,-318.22 690.67,-266.1 686.23,-244.32"/>
<polygon fill="#9a32cd" stroke="#9a32cd" points="825.09,-348.89 833.89,-343 823.34,-342.12 825.09,-348.89"/>
</a>
</g>
<text text-anchor="middle" x="765.5" y="-352.5" font-family="Helvetica,sans-Serif" font-size="10.00" fill="grey"> manager</text>
</g>
<!-- Node22 -->
<g id="Node000022" class="node">
<title>Node22</title>
<g id="a_Node000022"><a xlink:title=" ">
<polygon fill="white" stroke="#bfbfbf" points="708.5,-397 658.5,-397 658.5,-378 708.5,-378 708.5,-397"/>
<text text-anchor="middle" x="683.5" y="-385" font-family="Helvetica,sans-Serif" font-size="10.00">Engine</text>
</a>
</g>
</g>
<!-- Node22&#45;&gt;Node21 -->
<g id="edge22_Node000021_Node000022" class="edge">
<title>Node22&#45;&gt;Node21</title>
<g id="a_edge22_Node000021_Node000022"><a xlink:title=" ">
<path fill="none" stroke="#63b8ff" d="M719.01,-389.1C740.85,-388.68 769.02,-385.41 791,-373.5 801.81,-367.65 798.9,-359.5 809,-352.5 815.56,-347.95 823.33,-344.36 830.84,-341.58"/>
<polygon fill="#63b8ff" stroke="#63b8ff" points="718.85,-385.6 708.85,-389.1 718.85,-392.6 718.85,-385.6"/>
</a>
</g>
</g>
<!-- Node23 -->
<g id="Node000023" class="node">
<title>Node23</title>
<g id="a_Node000023"><a xlink:href="classfr_1_1inria_1_1corese_1_1core_1_1EventManager.html" target="_top" xlink:title="Event Manager for consistency and trace Update and Inference are tracked Debug mode traces events Sho...">
<polygon fill="white" stroke="#666666" points="518,-122 431,-122 431,-103 518,-103 518,-122"/>
<text text-anchor="middle" x="474.5" y="-110" font-family="Helvetica,sans-Serif" font-size="10.00">EventManager</text>
</a>
</g>
</g>
<!-- Node23&#45;&gt;Node10 -->
<g id="edge24_Node000010_Node000023" class="edge">
<title>Node23&#45;&gt;Node10</title>
<g id="a_edge24_Node000010_Node000023"><a xlink:title=" ">
<path fill="none" stroke="#9a32cd" stroke-dasharray="5,2" d="M527.8,-122.19C558.71,-129.75 597.47,-142.59 627,-163.5 650.5,-180.13 668.89,-209.53 677.37,-224.76"/>
<polygon fill="#9a32cd" stroke="#9a32cd" points="528.59,-118.78 518.06,-119.91 527,-125.59 528.59,-118.78"/>
</a>
</g>
<text text-anchor="middle" x="585" y="-166.5" font-family="Helvetica,sans-Serif" font-size="10.00" fill="grey"> eventManager</text>
</g>
<!-- Node25 -->
<g id="Node000025" class="node">
<title>Node25</title>
<g id="a_Node000025"><a xlink:href="classfr_1_1inria_1_1corese_1_1core_1_1EventLogger.html" target="_top" xlink:title=" ">
<polygon fill="white" stroke="#666666" points="722,-105 645,-105 645,-86 722,-86 722,-105"/>
<text text-anchor="middle" x="683.5" y="-93" font-family="Helvetica,sans-Serif" font-size="10.00">EventLogger</text>
</a>
</g>
</g>
<!-- Node23&#45;&gt;Node25 -->
<g id="edge27_Node000025_Node000023" class="edge">
<title>Node23&#45;&gt;Node25</title>
<g id="a_edge27_Node000025_Node000023"><a xlink:title=" ">
<path fill="none" stroke="#9a32cd" stroke-dasharray="5,2" d="M528.56,-108.14C564.91,-105.16 612.25,-101.27 644.78,-98.6"/>
<polygon fill="#9a32cd" stroke="#9a32cd" points="527.82,-104.69 518.14,-109 528.39,-111.67 527.82,-104.69"/>
</a>
</g>
<text text-anchor="middle" x="585" y="-109.5" font-family="Helvetica,sans-Serif" font-size="10.00" fill="grey"> mgr</text>
</g>
<!-- Node24 -->
<g id="Node000024" class="node">
<title>Node24</title>
<g id="a_Node000024"><a xlink:href="interfacefr_1_1inria_1_1corese_1_1core_1_1EventHandler.html" target="_top" xlink:title=" ">
<polygon fill="white" stroke="#bfbfbf" points="323.5,-122 240.5,-122 240.5,-103 323.5,-103 323.5,-122"/>
<text text-anchor="middle" x="282" y="-110" font-family="Helvetica,sans-Serif" font-size="10.00">EventHandler</text>
</a>
</g>
</g>
<!-- Node24&#45;&gt;Node23 -->
<g id="edge25_Node000023_Node000024" class="edge">
<title>Node24&#45;&gt;Node23</title>
<g id="a_edge25_Node000023_Node000024"><a xlink:title=" ">
<path fill="none" stroke="#63b8ff" d="M334.2,-112.5C364.38,-112.5 402.13,-112.5 430.72,-112.5"/>
<polygon fill="#63b8ff" stroke="#63b8ff" points="333.87,-109 323.87,-112.5 333.87,-116 333.87,-109"/>
</a>
</g>
</g>
<!-- Node25&#45;&gt;Node23 -->
<g id="edge26_Node000023_Node000025" class="edge">
<title>Node25&#45;&gt;Node23</title>
<g id="a_edge26_Node000023_Node000025"><a xlink:title=" ">
<path fill="none" stroke="#9a32cd" stroke-dasharray="5,2" d="M645.26,-83.22C639.22,-81.68 632.98,-80.34 627,-79.5 590.03,-74.28 579.37,-71.08 543,-79.5 523.56,-84 503.24,-94.91 490.05,-102.96"/>
<polygon fill="#9a32cd" stroke="#9a32cd" points="644.59,-86.67 655.17,-85.97 646.47,-79.92 644.59,-86.67"/>
</a>
</g>
<text text-anchor="middle" x="585" y="-82.5" font-family="Helvetica,sans-Serif" font-size="10.00" fill="grey"> log</text>
</g>
<!-- Node26&#45;&gt;Node10 -->
<g id="edge28_Node000010_Node000026" class="edge">
<title>Node26&#45;&gt;Node10</title>
<g id="a_edge28_Node000010_Node000026"><a xlink:title=" ">
<path fill="none" stroke="#9a32cd" stroke-dasharray="5,2" d="M813.61,-245.84C791.24,-247.91 764.2,-249.09 740,-246.5 728.92,-245.32 716.81,-242.84 706.74,-240.44"/>
<polygon fill="#9a32cd" stroke="#9a32cd" points="814.26,-249.29 823.85,-244.8 813.55,-242.32 814.26,-249.29"/>
</a>
</g>
<text text-anchor="middle" x="765.5" y="-250.5" font-family="Helvetica,sans-Serif" font-size="10.00" fill="grey"> fac</text>
</g>
<!-- Node27&#45;&gt;Node10 -->
<g id="edge30_Node000010_Node000027" class="edge">
<title>Node27&#45;&gt;Node10</title>
<g id="a_edge30_Node000010_Node000027"><a xlink:title=" ">
<path fill="none" stroke="#9a32cd" stroke-dasharray="5,2" d="M836.95,-181C811.8,-167.85 771.66,-152.61 740,-167.5 714.58,-179.45 696.8,-209.41 688.98,-224.89"/>
<polygon fill="#9a32cd" stroke="#9a32cd" points="835.36,-184.12 845.81,-185.87 838.73,-177.99 835.36,-184.12"/>
</a>
</g>
<text text-anchor="middle" x="765.5" y="-170.5" font-family="Helvetica,sans-Serif" font-size="10.00" fill="grey"> dataStore</text>
</g>
<!-- Node28 -->
<g id="Node000028" class="node">
<title>Node28</title>
<g id="a_Node000028"><a xlink:title=" ">
<polygon fill="white" stroke="#bfbfbf" points="1201,-56 1148,-56 1148,-37 1201,-37 1201,-56"/>
<text text-anchor="middle" x="1174.5" y="-44" font-family="Helvetica,sans-Serif" font-size="10.00">Creator</text>
</a>
</g>
</g>
<!-- Node28&#45;&gt;Node1 -->
<g id="edge33_Node000001_Node000028" class="edge">
<title>Node28&#45;&gt;Node1</title>
<g id="a_edge33_Node000001_Node000028"><a xlink:title=" ">
<path fill="none" stroke="#63b8ff" d="M1210.97,-55.06C1229.48,-59.57 1252.48,-65.24 1273,-70.5 1278.76,-71.98 1284.86,-73.57 1290.79,-75.14"/>
<polygon fill="#63b8ff" stroke="#63b8ff" points="1211.74,-51.64 1201.19,-52.68 1210.09,-58.44 1211.74,-51.64"/>
</a>
</g>
</g>
<!-- Node29 -->
<g id="Node000029" class="node">
<title>Node29</title>
<g id="a_Node000029"><a xlink:title=" ">
<polygon fill="white" stroke="#bfbfbf" points="1225,-19 1124,-19 1124,0 1225,0 1225,-19"/>
<text text-anchor="middle" x="1174.5" y="-7" font-family="Helvetica,sans-Serif" font-size="10.00">CreateImpl.Stack</text>
</a>
</g>
</g>
<!-- Node29&#45;&gt;Node1 -->
<g id="edge35_Node000001_Node000029" class="edge">
<title>Node29&#45;&gt;Node1</title>
<g id="a_edge35_Node000001_Node000029"><a xlink:title=" ">
<path fill="none" stroke="#9a32cd" stroke-dasharray="5,2" d="M1212.03,-22.57C1216.41,-24.2 1220.81,-25.87 1225,-27.5 1246.53,-35.9 1252.77,-36.33 1273,-47.5 1287.64,-55.58 1303.15,-66.9 1313.48,-74.88"/>
<polygon fill="#9a32cd" stroke="#9a32cd" points="1213.15,-19.25 1202.56,-19.09 1210.74,-25.82 1213.15,-19.25"/>
</a>
</g>
<text text-anchor="middle" x="1258" y="-50.5" font-family="Helvetica,sans-Serif" font-size="10.00" fill="grey"> stack</text>
</g>
<!-- Node30 -->
<g id="Node000030" class="node">
<title>Node30</title>
<g id="a_Node000030"><a xlink:title=" ">
<polygon fill="white" stroke="#bfbfbf" points="1060,-19 952,-19 952,0 1060,0 1060,-19"/>
<text text-anchor="middle" x="1006" y="-7" font-family="Helvetica,sans-Serif" font-size="10.00">ArrayList&lt; Node &gt;</text>
</a>
</g>
</g>
<!-- Node30&#45;&gt;Node29 -->
<g id="edge36_Node000029_Node000030" class="edge">
<title>Node30&#45;&gt;Node29</title>
<g id="a_edge36_Node000029_Node000030"><a xlink:title=" ">
<path fill="none" stroke="#63b8ff" d="M1070.41,-9.5C1088.15,-9.5 1107.17,-9.5 1123.98,-9.5"/>
<polygon fill="#63b8ff" stroke="#63b8ff" points="1070.14,-6 1060.14,-9.5 1070.14,-13 1070.14,-6"/>
</a>
</g>
</g>
</g>
</svg>
