<?xml version="1.0" encoding="UTF-8" standalone="no"?>
<!DOCTYPE svg PUBLIC "-//W3C//DTD SVG 1.1//EN"
 "http://www.w3.org/Graphics/SVG/1.1/DTD/svg11.dtd">
<!-- Generated by graphviz version 2.43.0 (0)
 -->
<!-- Title: BuildImpl Pages: 1 -->
<svg width="1140pt" height="518pt"
 viewBox="0.00 0.00 1140.00 517.50" xmlns="http://www.w3.org/2000/svg" xmlns:xlink="http://www.w3.org/1999/xlink">
<g id="graph0" class="graph" transform="scale(1 1) rotate(0) translate(4 513.5)">
<title>BuildImpl</title>
<!-- Node1 -->
<g id="Node000001" class="node">
<title>Node1</title>
<g id="a_Node000001"><a xlink:title="Graph creation Methods are public, Design to be refined.">
<polygon fill="#999999" stroke="#666666" points="1021.5,-464 958.5,-464 958.5,-445 1021.5,-445 1021.5,-464"/>
<text text-anchor="middle" x="990" y="-452" font-family="Helvetica,sans-Serif" font-size="10.00">BuildImpl</text>
</a>
</g>
</g>
<!-- Node2 -->
<g id="Node000002" class="node">
<title>Node2</title>
<g id="a_Node000002"><a xlink:href="classfr_1_1inria_1_1corese_1_1core_1_1load_1_1CreateTriple.html" target="_top" xlink:title=" ">
<polygon fill="white" stroke="#666666" points="899.5,-479 824.5,-479 824.5,-460 899.5,-460 899.5,-479"/>
<text text-anchor="middle" x="862" y="-467" font-family="Helvetica,sans-Serif" font-size="10.00">CreateTriple</text>
</a>
</g>
</g>
<!-- Node2&#45;&gt;Node1 -->
<g id="edge1_Node000001_Node000002" class="edge">
<title>Node2&#45;&gt;Node1</title>
<g id="a_edge1_Node000001_Node000002"><a xlink:title=" ">
<path fill="none" stroke="#63b8ff" d="M909.88,-464.31C917.93,-463.4 926.21,-462.44 934,-461.5 941.93,-460.55 950.5,-459.48 958.46,-458.47"/>
<polygon fill="#63b8ff" stroke="#63b8ff" points="909.4,-460.85 899.86,-465.45 910.19,-467.8 909.4,-460.85"/>
</a>
</g>
</g>
<!-- Node6 -->
<g id="Node000006" class="node">
<title>Node6</title>
<g id="a_Node000006"><a xlink:href="classfr_1_1inria_1_1corese_1_1core_1_1load_1_1BuildImpl.html" target="_top" xlink:title="Graph creation Methods are public, Design to be refined.">
<polygon fill="white" stroke="#666666" points="1021.5,-353 958.5,-353 958.5,-334 1021.5,-334 1021.5,-353"/>
<text text-anchor="middle" x="990" y="-341" font-family="Helvetica,sans-Serif" font-size="10.00">BuildImpl</text>
</a>
</g>
</g>
<!-- Node2&#45;&gt;Node6 -->
<g id="edge6_Node000006_Node000002" class="edge">
<title>Node2&#45;&gt;Node6</title>
<g id="a_edge6_Node000006_Node000002"><a xlink:title=" ">
<path fill="none" stroke="#63b8ff" d="M891.38,-454.71C899.7,-449.44 908.34,-442.93 915,-435.5 939.27,-408.41 926.35,-388.29 952,-362.5 955.67,-358.81 960.2,-355.7 964.82,-353.12"/>
<polygon fill="#63b8ff" stroke="#63b8ff" points="889.4,-451.82 882.59,-459.93 892.98,-457.83 889.4,-451.82"/>
</a>
</g>
</g>
<!-- Node3 -->
<g id="Node000003" class="node">
<title>Node3</title>
<g id="a_Node000003"><a xlink:href="classfr_1_1inria_1_1corese_1_1core_1_1load_1_1Load.html" target="_top" xlink:title="Translate an RDF/XML document into a Graph use ARP.">
<polygon fill="white" stroke="#666666" points="1132,-408 1092,-408 1092,-389 1132,-389 1132,-408"/>
<text text-anchor="middle" x="1112" y="-396" font-family="Helvetica,sans-Serif" font-size="10.00">Load</text>
</a>
</g>
</g>
<!-- Node3&#45;&gt;Node2 -->
<g id="edge2_Node000002_Node000003" class="edge">
<title>Node3&#45;&gt;Node2</title>
<g id="a_edge2_Node000002_Node000003"><a xlink:title=" ">
<path fill="none" stroke="#9a32cd" stroke-dasharray="5,2" d="M1097.82,-416.28C1083.11,-434.51 1057.47,-461.8 1028,-473.5 986.32,-490.05 933.94,-484.87 899.51,-478.34"/>
<polygon fill="#9a32cd" stroke="#9a32cd" points="1100.76,-418.21 1104.13,-408.17 1095.23,-413.91 1100.76,-418.21"/>
</a>
</g>
<text text-anchor="middle" x="990" y="-487.5" font-family="Helvetica,sans-Serif" font-size="10.00" fill="grey"> load</text>
</g>
<!-- Node4 -->
<g id="Node000004" class="node">
<title>Node4</title>
<g id="a_Node000004"><a xlink:title=" ">
<polygon fill="white" stroke="#bfbfbf" points="1028,-427 952,-427 952,-408 1028,-408 1028,-427"/>
<text text-anchor="middle" x="990" y="-415" font-family="Helvetica,sans-Serif" font-size="10.00">RDFListener</text>
</a>
</g>
</g>
<!-- Node4&#45;&gt;Node3 -->
<g id="edge3_Node000003_Node000004" class="edge">
<title>Node4&#45;&gt;Node3</title>
<g id="a_edge3_Node000003_Node000004"><a xlink:title=" ">
<path fill="none" stroke="#63b8ff" d="M1038.19,-410.03C1056.92,-407.06 1077.39,-403.82 1091.84,-401.53"/>
<polygon fill="#63b8ff" stroke="#63b8ff" points="1037.64,-406.57 1028.31,-411.59 1038.74,-413.49 1037.64,-406.57"/>
</a>
</g>
</g>
<!-- Node5 -->
<g id="Node000005" class="node">
<title>Node5</title>
<g id="a_Node000005"><a xlink:title=" ">
<polygon fill="white" stroke="#bfbfbf" points="1015,-390 965,-390 965,-371 1015,-371 1015,-390"/>
<text text-anchor="middle" x="990" y="-378" font-family="Helvetica,sans-Serif" font-size="10.00">Loader</text>
</a>
</g>
</g>
<!-- Node5&#45;&gt;Node3 -->
<g id="edge4_Node000003_Node000005" class="edge">
<title>Node5&#45;&gt;Node3</title>
<g id="a_edge4_Node000003_Node000005"><a xlink:title=" ">
<path fill="none" stroke="#63b8ff" d="M1025.38,-385.66C1046.98,-388.9 1074.03,-392.96 1091.88,-395.63"/>
<polygon fill="#63b8ff" stroke="#63b8ff" points="1025.69,-382.16 1015.28,-384.14 1024.65,-389.09 1025.69,-382.16"/>
</a>
</g>
</g>
<!-- Node6&#45;&gt;Node3 -->
<g id="edge5_Node000003_Node000006" class="edge">
<title>Node6&#45;&gt;Node3</title>
<g id="a_edge5_Node000003_Node000006"><a xlink:title=" ">
<path fill="none" stroke="#9a32cd" stroke-dasharray="5,2" d="M1031.46,-355.87C1045.26,-360.68 1060.59,-366.68 1074,-373.5 1082.57,-377.86 1091.52,-383.86 1098.47,-388.89"/>
<polygon fill="#9a32cd" stroke="#9a32cd" points="1032.31,-352.47 1021.72,-352.59 1030.08,-359.1 1032.31,-352.47"/>
</a>
</g>
<text text-anchor="middle" x="1060" y="-376.5" font-family="Helvetica,sans-Serif" font-size="10.00" fill="grey"> build</text>
</g>
<!-- Node7 -->
<g id="Node000007" class="node">
<title>Node7</title>
<g id="a_Node000007"><a xlink:href="interfacefr_1_1inria_1_1corese_1_1core_1_1load_1_1Build.html" target="_top" xlink:title="Translate an RDF/XML document into a Graph.">
<polygon fill="white" stroke="#666666" points="882.5,-379 841.5,-379 841.5,-360 882.5,-360 882.5,-379"/>
<text text-anchor="middle" x="862" y="-367" font-family="Helvetica,sans-Serif" font-size="10.00">Build</text>
</a>
</g>
</g>
<!-- Node7&#45;&gt;Node1 -->
<g id="edge33_Node000001_Node000007" class="edge">
<title>Node7&#45;&gt;Node1</title>
<g id="a_edge33_Node000001_Node000007"><a xlink:title=" ">
<path fill="none" stroke="#63b8ff" d="M891.55,-383.48C899.44,-387.85 907.8,-392.99 915,-398.5 933.71,-412.84 932.89,-422.69 952,-436.5 956.28,-439.6 961.18,-442.41 965.98,-444.84"/>
<polygon fill="#63b8ff" stroke="#63b8ff" points="893.07,-380.32 882.6,-378.71 889.78,-386.5 893.07,-380.32"/>
</a>
</g>
</g>
<!-- Node7&#45;&gt;Node6 -->
<g id="edge7_Node000006_Node000007" class="edge">
<title>Node7&#45;&gt;Node6</title>
<g id="a_edge7_Node000006_Node000007"><a xlink:title=" ">
<path fill="none" stroke="#63b8ff" d="M892.66,-363.38C912.38,-359.31 938.22,-353.98 958.18,-349.86"/>
<polygon fill="#63b8ff" stroke="#63b8ff" points="891.77,-359.99 882.69,-365.44 893.19,-366.84 891.77,-359.99"/>
</a>
</g>
</g>
<!-- Node8 -->
<g id="Node000008" class="node">
<title>Node8</title>
<g id="a_Node000008"><a xlink:title=" ">
<polygon fill="white" stroke="#bfbfbf" points="915,-330 809,-330 809,-311 915,-311 915,-330"/>
<text text-anchor="middle" x="862" y="-318" font-family="Helvetica,sans-Serif" font-size="10.00">StatementHandler</text>
</a>
</g>
</g>
<!-- Node8&#45;&gt;Node1 -->
<g id="edge34_Node000001_Node000008" class="edge">
<title>Node8&#45;&gt;Node1</title>
<g id="a_edge34_Node000001_Node000008"><a xlink:title=" ">
<path fill="none" stroke="#63b8ff" d="M894.83,-335.22C902.13,-339.68 909.38,-345.12 915,-351.5 942.23,-382.42 923.49,-406.76 952,-436.5 955.16,-439.8 959.06,-442.58 963.12,-444.88"/>
<polygon fill="#63b8ff" stroke="#63b8ff" points="896.11,-331.93 885.68,-330.1 892.69,-338.04 896.11,-331.93"/>
</a>
</g>
</g>
<!-- Node8&#45;&gt;Node6 -->
<g id="edge8_Node000006_Node000008" class="edge">
<title>Node8&#45;&gt;Node6</title>
<g id="a_edge8_Node000006_Node000008"><a xlink:title=" ">
<path fill="none" stroke="#63b8ff" d="M925.36,-312.92C928.29,-313.28 931.19,-313.8 934,-314.5 949.09,-318.23 964.61,-326.94 975.29,-333.85"/>
<polygon fill="#63b8ff" stroke="#63b8ff" points="925.49,-309.42 915.27,-312.21 925,-316.4 925.49,-309.42"/>
</a>
</g>
</g>
<!-- Node9 -->
<g id="Node000009" class="node">
<title>Node9</title>
<g id="a_Node000009"><a xlink:title=" ">
<polygon fill="white" stroke="#bfbfbf" points="901,-426 823,-426 823,-407 901,-407 901,-426"/>
<text text-anchor="middle" x="862" y="-414" font-family="Helvetica,sans-Serif" font-size="10.00">ErrorHandler</text>
</a>
</g>
</g>
<!-- Node9&#45;&gt;Node1 -->
<g id="edge35_Node000001_Node000009" class="edge">
<title>Node9&#45;&gt;Node1</title>
<g id="a_edge35_Node000001_Node000009"><a xlink:title=" ">
<path fill="none" stroke="#63b8ff" d="M904.72,-429.08C922.14,-434.33 942.01,-440.33 958.09,-445.18"/>
<polygon fill="#63b8ff" stroke="#63b8ff" points="905.38,-425.63 894.8,-426.09 903.36,-432.33 905.38,-425.63"/>
</a>
</g>
</g>
<!-- Node9&#45;&gt;Node6 -->
<g id="edge9_Node000006_Node000009" class="edge">
<title>Node9&#45;&gt;Node6</title>
<g id="a_edge9_Node000006_Node000009"><a xlink:title=" ">
<path fill="none" stroke="#63b8ff" d="M890.96,-402.23C898.84,-398 907.35,-393.22 915,-388.5 932.1,-377.94 934.8,-372.89 952,-362.5 957.44,-359.21 963.51,-355.94 969.14,-353.06"/>
<polygon fill="#63b8ff" stroke="#63b8ff" points="889.29,-399.15 882.08,-406.92 892.56,-405.34 889.29,-399.15"/>
</a>
</g>
</g>
<!-- Node10 -->
<g id="Node000010" class="node">
<title>Node10</title>
<g id="a_Node000010"><a xlink:href="classfr_1_1inria_1_1corese_1_1core_1_1Graph.html" target="_top" xlink:title="Graph Manager Edges are stored in an index An index is a table: predicate &#45;&gt; List&lt;Edge&gt; Edge List are...">
<polygon fill="white" stroke="#666666" points="706.5,-206 660.5,-206 660.5,-187 706.5,-187 706.5,-206"/>
<text text-anchor="middle" x="683.5" y="-194" font-family="Helvetica,sans-Serif" font-size="10.00">Graph</text>
</a>
</g>
</g>
<!-- Node10&#45;&gt;Node1 -->
<g id="edge36_Node000001_Node000010" class="edge">
<title>Node10&#45;&gt;Node1</title>
<g id="a_edge36_Node000001_Node000010"><a xlink:title=" ">
<path fill="none" stroke="#9a32cd" stroke-dasharray="5,2" d="M684.6,-216.24C686.14,-275 700.04,-447.24 809,-488.5 853.06,-505.18 869.21,-499.57 915,-488.5 932.97,-484.16 935.2,-477.2 952,-469.5 956.03,-467.65 960.36,-465.79 964.59,-464.04"/>
<polygon fill="#9a32cd" stroke="#9a32cd" points="688.1,-216.01 684.43,-206.07 681.1,-216.13 688.1,-216.01"/>
</a>
</g>
<text text-anchor="middle" x="862" y="-501.5" font-family="Helvetica,sans-Serif" font-size="10.00" fill="grey"> graph</text>
</g>
<!-- Node10&#45;&gt;Node2 -->
<g id="edge32_Node000002_Node000010" class="edge">
<title>Node10&#45;&gt;Node2</title>
<g id="a_edge32_Node000002_Node000010"><a xlink:title=" ">
<path fill="none" stroke="#9a32cd" stroke-dasharray="5,2" d="M690.74,-215.82C705.51,-259.23 746.17,-366.13 809,-435.5 818.12,-445.57 830.86,-453.97 841.45,-459.89"/>
<polygon fill="#9a32cd" stroke="#9a32cd" points="694.02,-214.6 687.54,-206.21 687.38,-216.8 694.02,-214.6"/>
</a>
</g>
<text text-anchor="middle" x="765.5" y="-415.5" font-family="Helvetica,sans-Serif" font-size="10.00" fill="grey"> graph</text>
</g>
<!-- Node10&#45;&gt;Node6 -->
<g id="edge10_Node000006_Node000010" class="edge">
<title>Node10&#45;&gt;Node6</title>
<g id="a_edge10_Node000006_Node000010"><a xlink:title=" ">
<path fill="none" stroke="#9a32cd" stroke-dasharray="5,2" d="M699.15,-213.85C709.48,-225.02 724.25,-239 740,-247.5 810.58,-285.58 842.08,-258.11 915,-291.5 939.27,-302.61 963.94,-321.9 977.77,-333.6"/>
<polygon fill="#9a32cd" stroke="#9a32cd" points="701.72,-211.47 692.45,-206.32 696.49,-216.12 701.72,-211.47"/>
</a>
</g>
<text text-anchor="middle" x="862" y="-294.5" font-family="Helvetica,sans-Serif" font-size="10.00" fill="grey"> graph</text>
</g>
<!-- Node21 -->
<g id="Node000021" class="node">
<title>Node21</title>
<g id="a_Node000021"><a xlink:href="classfr_1_1inria_1_1corese_1_1core_1_1Workflow.html" target="_top" xlink:title="Manage a set of inference engines Loop until no inference is performed It is automatically called whe...">
<polygon fill="white" stroke="#666666" points="893,-89 831,-89 831,-70 893,-70 893,-89"/>
<text text-anchor="middle" x="862" y="-77" font-family="Helvetica,sans-Serif" font-size="10.00">Workflow</text>
</a>
</g>
</g>
<!-- Node10&#45;&gt;Node21 -->
<g id="edge23_Node000021_Node000010" class="edge">
<title>Node10&#45;&gt;Node21</title>
<g id="a_edge23_Node000021_Node000010"><a xlink:title=" ">
<path fill="none" stroke="#9a32cd" stroke-dasharray="5,2" d="M699.17,-178.96C709.7,-167.1 724.67,-151.64 740,-140.5 770.83,-118.1 811.1,-99.62 836.51,-89.07"/>
<polygon fill="#9a32cd" stroke="#9a32cd" points="696.25,-176.99 692.35,-186.84 701.54,-181.57 696.25,-176.99"/>
</a>
</g>
<text text-anchor="middle" x="765.5" y="-143.5" font-family="Helvetica,sans-Serif" font-size="10.00" fill="grey"> graph</text>
</g>
<!-- Node26 -->
<g id="Node000026" class="node">
<title>Node26</title>
<g id="a_Node000026"><a xlink:href="classfr_1_1inria_1_1corese_1_1core_1_1EdgeFactory.html" target="_top" xlink:title=" ">
<polygon fill="white" stroke="#bfbfbf" points="900,-234 824,-234 824,-215 900,-215 900,-234"/>
<text text-anchor="middle" x="862" y="-222" font-family="Helvetica,sans-Serif" font-size="10.00">EdgeFactory</text>
</a>
</g>
</g>
<!-- Node10&#45;&gt;Node26 -->
<g id="edge29_Node000026_Node000010" class="edge">
<title>Node10&#45;&gt;Node26</title>
<g id="a_edge29_Node000026_Node000010"><a xlink:title=" ">
<path fill="none" stroke="#9a32cd" stroke-dasharray="5,2" d="M705.73,-211.72C715.64,-217.91 727.9,-224.35 740,-227.5 767.45,-234.65 799.6,-233.42 823.86,-230.67"/>
<polygon fill="#9a32cd" stroke="#9a32cd" points="707.63,-208.78 697.36,-206.2 703.78,-214.63 707.63,-208.78"/>
</a>
</g>
<text text-anchor="middle" x="765.5" y="-235.5" font-family="Helvetica,sans-Serif" font-size="10.00" fill="grey"> graph</text>
</g>
<!-- Node27 -->
<g id="Node000027" class="node">
<title>Node27</title>
<g id="a_Node000027"><a xlink:href="classfr_1_1inria_1_1corese_1_1core_1_1DataStore.html" target="_top" xlink:title="Simple DataStore to define what is the default graph By default it is the union of named graphs It ca...">
<polygon fill="white" stroke="#666666" points="894.5,-174 829.5,-174 829.5,-155 894.5,-155 894.5,-174"/>
<text text-anchor="middle" x="862" y="-162" font-family="Helvetica,sans-Serif" font-size="10.00">DataStore</text>
</a>
</g>
</g>
<!-- Node10&#45;&gt;Node27 -->
<g id="edge31_Node000027_Node000010" class="edge">
<title>Node10&#45;&gt;Node27</title>
<g id="a_edge31_Node000027_Node000010"><a xlink:title=" ">
<path fill="none" stroke="#9a32cd" stroke-dasharray="5,2" d="M704.02,-180.86C714.13,-173.77 727.05,-166.15 740,-162.5 769.42,-154.2 804.49,-155.98 829.28,-159.07"/>
<polygon fill="#9a32cd" stroke="#9a32cd" points="701.89,-178.09 695.93,-186.86 706.05,-183.72 701.89,-178.09"/>
</a>
</g>
<text text-anchor="middle" x="765.5" y="-165.5" font-family="Helvetica,sans-Serif" font-size="10.00" fill="grey"> graph</text>
</g>
<!-- Node11 -->
<g id="Node000011" class="node">
<title>Node11</title>
<g id="a_Node000011"><a xlink:href="classfr_1_1inria_1_1corese_1_1core_1_1GraphObject.html" target="_top" xlink:title=" ">
<polygon fill="white" stroke="#666666" points="513,-185 436,-185 436,-166 513,-166 513,-185"/>
<text text-anchor="middle" x="474.5" y="-173" font-family="Helvetica,sans-Serif" font-size="10.00">GraphObject</text>
</a>
</g>
</g>
<!-- Node11&#45;&gt;Node10 -->
<g id="edge11_Node000010_Node000011" class="edge">
<title>Node11&#45;&gt;Node10</title>
<g id="a_edge11_Node000010_Node000011"><a xlink:title=" ">
<path fill="none" stroke="#63b8ff" d="M523.46,-180.37C566.56,-184.74 627.93,-190.96 660.39,-194.26"/>
<polygon fill="#63b8ff" stroke="#63b8ff" points="523.77,-176.88 513.47,-179.35 523.06,-183.84 523.77,-176.88"/>
</a>
</g>
</g>
<!-- Node12 -->
<g id="Node000012" class="node">
<title>Node12</title>
<g id="a_Node000012"><a xlink:title=" ">
<polygon fill="white" stroke="#bfbfbf" points="323.5,-185 240.5,-185 240.5,-166 323.5,-166 323.5,-185"/>
<text text-anchor="middle" x="282" y="-173" font-family="Helvetica,sans-Serif" font-size="10.00">PointerObject</text>
</a>
</g>
</g>
<!-- Node12&#45;&gt;Node11 -->
<g id="edge12_Node000011_Node000012" class="edge">
<title>Node12&#45;&gt;Node11</title>
<g id="a_edge12_Node000011_Node000012"><a xlink:title=" ">
<path fill="none" stroke="#63b8ff" d="M333.96,-175.5C366.05,-175.5 406.78,-175.5 435.93,-175.5"/>
<polygon fill="#63b8ff" stroke="#63b8ff" points="333.87,-172 323.87,-175.5 333.87,-179 333.87,-172"/>
</a>
</g>
</g>
<!-- Node13 -->
<g id="Node000013" class="node">
<title>Node13</title>
<g id="a_Node000013"><a xlink:title=" ">
<polygon fill="white" stroke="#bfbfbf" points="525,-148 424,-148 424,-129 525,-129 525,-148"/>
<text text-anchor="middle" x="474.5" y="-136" font-family="Helvetica,sans-Serif" font-size="10.00">Iterable&lt; Edge &gt;</text>
</a>
</g>
</g>
<!-- Node13&#45;&gt;Node10 -->
<g id="edge13_Node000010_Node000013" class="edge">
<title>Node13&#45;&gt;Node10</title>
<g id="a_edge13_Node000010_Node000013"><a xlink:title=" ">
<path fill="none" stroke="#63b8ff" d="M523.71,-150.5C553.57,-158.11 592.65,-168.4 627,-178.5 638.08,-181.76 650.3,-185.68 660.44,-189.04"/>
<polygon fill="#63b8ff" stroke="#63b8ff" points="524.51,-147.09 513.96,-148.03 522.79,-153.88 524.51,-147.09"/>
</a>
</g>
</g>
<!-- Node14 -->
<g id="Node000014" class="node">
<title>Node14</title>
<g id="a_Node000014"><a xlink:href="interfacefr_1_1inria_1_1corese_1_1core_1_1sparql_1_1api_1_1Graph.html" target="_top" xlink:title=" ">
<polygon fill="white" stroke="#666666" points="497.5,-111 451.5,-111 451.5,-92 497.5,-92 497.5,-111"/>
<text text-anchor="middle" x="474.5" y="-99" font-family="Helvetica,sans-Serif" font-size="10.00">Graph</text>
</a>
</g>
</g>
<!-- Node14&#45;&gt;Node10 -->
<g id="edge14_Node000010_Node000014" class="edge">
<title>Node14&#45;&gt;Node10</title>
<g id="a_edge14_Node000010_Node000014"><a xlink:title=" ">
<path fill="none" stroke="#63b8ff" d="M507.61,-108.5C539.26,-116.21 588.35,-130.38 627,-151.5 644.64,-161.14 662.18,-176.6 672.68,-186.65"/>
<polygon fill="#63b8ff" stroke="#63b8ff" points="508.12,-105.02 497.59,-106.13 506.51,-111.84 508.12,-105.02"/>
</a>
</g>
</g>
<!-- Node15 -->
<g id="Node000015" class="node">
<title>Node15</title>
<g id="a_Node000015"><a xlink:href="interfacefr_1_1inria_1_1corese_1_1core_1_1kgram_1_1api_1_1core_1_1Graph.html" target="_top" xlink:title=" ">
<polygon fill="white" stroke="#bfbfbf" points="305,-111 259,-111 259,-92 305,-92 305,-111"/>
<text text-anchor="middle" x="282" y="-99" font-family="Helvetica,sans-Serif" font-size="10.00">Graph</text>
</a>
</g>
</g>
<!-- Node15&#45;&gt;Node14 -->
<g id="edge15_Node000014_Node000015" class="edge">
<title>Node15&#45;&gt;Node14</title>
<g id="a_edge15_Node000014_Node000015"><a xlink:title=" ">
<path fill="none" stroke="#63b8ff" d="M315.44,-101.5C354.19,-101.5 417.95,-101.5 451.42,-101.5"/>
<polygon fill="#63b8ff" stroke="#63b8ff" points="315.23,-98 305.23,-101.5 315.23,-105 315.23,-98"/>
</a>
</g>
</g>
<!-- Node16 -->
<g id="Node000016" class="node">
<title>Node16</title>
<g id="a_Node000016"><a xlink:title=" ">
<polygon fill="white" stroke="#bfbfbf" points="508,-296 441,-296 441,-277 508,-277 508,-296"/>
<text text-anchor="middle" x="474.5" y="-284" font-family="Helvetica,sans-Serif" font-size="10.00">Graphable</text>
</a>
</g>
</g>
<!-- Node16&#45;&gt;Node10 -->
<g id="edge16_Node000010_Node000016" class="edge">
<title>Node16&#45;&gt;Node10</title>
<g id="a_edge16_Node000010_Node000016"><a xlink:title=" ">
<path fill="none" stroke="#63b8ff" d="M518.28,-279.87C549.72,-273.78 592.74,-262.85 627,-244.5 645.87,-234.39 663.87,-216.88 674.02,-206.03"/>
<polygon fill="#63b8ff" stroke="#63b8ff" points="517.29,-276.49 508.09,-281.75 518.56,-283.38 517.29,-276.49"/>
</a>
</g>
</g>
<!-- Node17 -->
<g id="Node000017" class="node">
<title>Node17</title>
<g id="a_Node000017"><a xlink:title=" ">
<polygon fill="white" stroke="#bfbfbf" points="508.5,-259 440.5,-259 440.5,-240 508.5,-240 508.5,-259"/>
<text text-anchor="middle" x="474.5" y="-247" font-family="Helvetica,sans-Serif" font-size="10.00">TripleStore</text>
</a>
</g>
</g>
<!-- Node17&#45;&gt;Node10 -->
<g id="edge17_Node000010_Node000017" class="edge">
<title>Node17&#45;&gt;Node10</title>
<g id="a_edge17_Node000010_Node000017"><a xlink:title=" ">
<path fill="none" stroke="#63b8ff" d="M518.51,-244.36C549.21,-240.02 591.22,-232.69 627,-221.5 639.81,-217.5 653.57,-211.31 664.18,-206.1"/>
<polygon fill="#63b8ff" stroke="#63b8ff" points="517.99,-240.9 508.56,-245.72 518.94,-247.83 517.99,-240.9"/>
</a>
</g>
</g>
<!-- Node18 -->
<g id="Node000018" class="node">
<title>Node18</title>
<g id="a_Node000018"><a xlink:href="classfr_1_1inria_1_1corese_1_1core_1_1NodeGraphIndex.html" target="_top" xlink:title="Manage Nodes of a graph, for each graph name.">
<polygon fill="white" stroke="#666666" points="523.5,-222 425.5,-222 425.5,-203 523.5,-203 523.5,-222"/>
<text text-anchor="middle" x="474.5" y="-210" font-family="Helvetica,sans-Serif" font-size="10.00">NodeGraphIndex</text>
</a>
</g>
</g>
<!-- Node18&#45;&gt;Node10 -->
<g id="edge18_Node000010_Node000018" class="edge">
<title>Node18&#45;&gt;Node10</title>
<g id="a_edge18_Node000010_Node000018"><a xlink:title=" ">
<path fill="none" stroke="#9a32cd" stroke-dasharray="5,2" d="M533.66,-208C575.81,-204.75 630.45,-200.52 660.42,-198.21"/>
<polygon fill="#9a32cd" stroke="#9a32cd" points="533.21,-204.53 523.51,-208.79 533.75,-211.51 533.21,-204.53"/>
</a>
</g>
<text text-anchor="middle" x="585" y="-209.5" font-family="Helvetica,sans-Serif" font-size="10.00" fill="grey"> nodeGraphIndex</text>
</g>
<!-- Node19 -->
<g id="Node000019" class="node">
<title>Node19</title>
<g id="a_Node000019"><a xlink:title=" ">
<polygon fill="white" stroke="#bfbfbf" points="360,-222 204,-222 204,-203 360,-203 360,-222"/>
<text text-anchor="middle" x="282" y="-210" font-family="Helvetica,sans-Serif" font-size="10.00">NodeGraphIndex.GraphTable</text>
</a>
</g>
</g>
<!-- Node19&#45;&gt;Node18 -->
<g id="edge19_Node000018_Node000019" class="edge">
<title>Node19&#45;&gt;Node18</title>
<g id="a_edge19_Node000018_Node000019"><a xlink:title=" ">
<path fill="none" stroke="#9a32cd" stroke-dasharray="5,2" d="M370.37,-212.5C389.33,-212.5 408.71,-212.5 425.47,-212.5"/>
<polygon fill="#9a32cd" stroke="#9a32cd" points="370.21,-209 360.21,-212.5 370.21,-216 370.21,-209"/>
</a>
</g>
<text text-anchor="middle" x="392" y="-215.5" font-family="Helvetica,sans-Serif" font-size="10.00" fill="grey"> table</text>
</g>
<!-- Node20 -->
<g id="Node000020" class="node">
<title>Node20</title>
<g id="a_Node000020"><a xlink:title=" ">
<polygon fill="white" stroke="#bfbfbf" points="167,-222 0,-222 0,-203 167,-203 167,-222"/>
<text text-anchor="middle" x="83.5" y="-210" font-family="Helvetica,sans-Serif" font-size="10.00">HashMap&lt; Node, NodeTable &gt;</text>
</a>
</g>
</g>
<!-- Node20&#45;&gt;Node19 -->
<g id="edge20_Node000019_Node000020" class="edge">
<title>Node20&#45;&gt;Node19</title>
<g id="a_edge20_Node000019_Node000020"><a xlink:title=" ">
<path fill="none" stroke="#63b8ff" d="M177.3,-212.5C186.23,-212.5 195.22,-212.5 203.97,-212.5"/>
<polygon fill="#63b8ff" stroke="#63b8ff" points="177.26,-209 167.26,-212.5 177.26,-216 177.26,-209"/>
</a>
</g>
</g>
<!-- Node21&#45;&gt;Node10 -->
<g id="edge21_Node000010_Node000021" class="edge">
<title>Node21&#45;&gt;Node10</title>
<g id="a_edge21_Node000010_Node000021"><a xlink:title=" ">
<path fill="none" stroke="#9a32cd" stroke-dasharray="5,2" d="M820.95,-69.68C795.81,-65.83 763.76,-65.39 740,-80.5 701.76,-104.82 689.27,-163.51 685.73,-186.77"/>
<polygon fill="#9a32cd" stroke="#9a32cd" points="820.46,-73.14 830.91,-71.43 821.67,-66.25 820.46,-73.14"/>
</a>
</g>
<text text-anchor="middle" x="765.5" y="-83.5" font-family="Helvetica,sans-Serif" font-size="10.00" fill="grey"> manager</text>
</g>
<!-- Node22 -->
<g id="Node000022" class="node">
<title>Node22</title>
<g id="a_Node000022"><a xlink:title=" ">
<polygon fill="white" stroke="#bfbfbf" points="708.5,-56 658.5,-56 658.5,-37 708.5,-37 708.5,-56"/>
<text text-anchor="middle" x="683.5" y="-44" font-family="Helvetica,sans-Serif" font-size="10.00">Engine</text>
</a>
</g>
</g>
<!-- Node22&#45;&gt;Node21 -->
<g id="edge22_Node000021_Node000022" class="edge">
<title>Node22&#45;&gt;Node21</title>
<g id="a_edge22_Node000021_Node000022"><a xlink:title=" ">
<path fill="none" stroke="#63b8ff" d="M718.8,-49.82C739.77,-52.15 767.07,-55.7 791,-60.5 804.21,-63.15 818.61,-66.9 830.89,-70.37"/>
<polygon fill="#63b8ff" stroke="#63b8ff" points="719.08,-46.33 708.76,-48.75 718.33,-53.3 719.08,-46.33"/>
</a>
</g>
</g>
<!-- Node23 -->
<g id="Node000023" class="node">
<title>Node23</title>
<g id="a_Node000023"><a xlink:href="classfr_1_1inria_1_1corese_1_1core_1_1EventManager.html" target="_top" xlink:title="Event Manager for consistency and trace Update and Inference are tracked Debug mode traces events Sho...">
<polygon fill="white" stroke="#666666" points="518,-53 431,-53 431,-34 518,-34 518,-53"/>
<text text-anchor="middle" x="474.5" y="-41" font-family="Helvetica,sans-Serif" font-size="10.00">EventManager</text>
</a>
</g>
</g>
<!-- Node23&#45;&gt;Node10 -->
<g id="edge24_Node000010_Node000023" class="edge">
<title>Node23&#45;&gt;Node10</title>
<g id="a_edge24_Node000010_Node000023"><a xlink:title=" ">
<path fill="none" stroke="#9a32cd" stroke-dasharray="5,2" d="M528.19,-55.21C559.59,-64.27 598.71,-79.43 627,-103.5 654.78,-127.14 672.33,-168.36 679.2,-186.94"/>
<polygon fill="#9a32cd" stroke="#9a32cd" points="528.86,-51.76 518.29,-52.48 527,-58.51 528.86,-51.76"/>
</a>
</g>
<text text-anchor="middle" x="585" y="-106.5" font-family="Helvetica,sans-Serif" font-size="10.00" fill="grey"> eventManager</text>
</g>
<!-- Node25 -->
<g id="Node000025" class="node">
<title>Node25</title>
<g id="a_Node000025"><a xlink:href="classfr_1_1inria_1_1corese_1_1core_1_1EventLogger.html" target="_top" xlink:title=" ">
<polygon fill="white" stroke="#666666" points="722,-19 645,-19 645,0 722,0 722,-19"/>
<text text-anchor="middle" x="683.5" y="-7" font-family="Helvetica,sans-Serif" font-size="10.00">EventLogger</text>
</a>
</g>
</g>
<!-- Node23&#45;&gt;Node25 -->
<g id="edge27_Node000025_Node000023" class="edge">
<title>Node23&#45;&gt;Node25</title>
<g id="a_edge27_Node000025_Node000023"><a xlink:title=" ">
<path fill="none" stroke="#9a32cd" stroke-dasharray="5,2" d="M497.68,-28.55C510.36,-20.92 526.9,-12.43 543,-8.5 576.77,-0.27 616.51,-1.58 644.92,-4.32"/>
<polygon fill="#9a32cd" stroke="#9a32cd" points="495.8,-25.6 489.19,-33.88 499.52,-31.53 495.8,-25.6"/>
</a>
</g>
<text text-anchor="middle" x="585" y="-11.5" font-family="Helvetica,sans-Serif" font-size="10.00" fill="grey"> mgr</text>
</g>
<!-- Node24 -->
<g id="Node000024" class="node">
<title>Node24</title>
<g id="a_Node000024"><a xlink:href="interfacefr_1_1inria_1_1corese_1_1core_1_1EventHandler.html" target="_top" xlink:title=" ">
<polygon fill="white" stroke="#bfbfbf" points="323.5,-53 240.5,-53 240.5,-34 323.5,-34 323.5,-53"/>
<text text-anchor="middle" x="282" y="-41" font-family="Helvetica,sans-Serif" font-size="10.00">EventHandler</text>
</a>
</g>
</g>
<!-- Node24&#45;&gt;Node23 -->
<g id="edge25_Node000023_Node000024" class="edge">
<title>Node24&#45;&gt;Node23</title>
<g id="a_edge25_Node000023_Node000024"><a xlink:title=" ">
<path fill="none" stroke="#63b8ff" d="M334.2,-43.5C364.38,-43.5 402.13,-43.5 430.72,-43.5"/>
<polygon fill="#63b8ff" stroke="#63b8ff" points="333.87,-40 323.87,-43.5 333.87,-47 333.87,-40"/>
</a>
</g>
</g>
<!-- Node25&#45;&gt;Node23 -->
<g id="edge26_Node000023_Node000025" class="edge">
<title>Node25&#45;&gt;Node23</title>
<g id="a_edge26_Node000023_Node000025"><a xlink:title=" ">
<path fill="none" stroke="#9a32cd" stroke-dasharray="5,2" d="M635.07,-19.98C632.34,-20.51 629.64,-21.02 627,-21.5 590.38,-28.11 548.51,-34.07 518.07,-38.11"/>
<polygon fill="#9a32cd" stroke="#9a32cd" points="635.84,-23.4 644.95,-17.98 634.46,-16.53 635.84,-23.4"/>
</a>
</g>
<text text-anchor="middle" x="585" y="-37.5" font-family="Helvetica,sans-Serif" font-size="10.00" fill="grey"> log</text>
</g>
<!-- Node26&#45;&gt;Node10 -->
<g id="edge28_Node000010_Node000026" class="edge">
<title>Node26&#45;&gt;Node10</title>
<g id="a_edge28_Node000010_Node000026"><a xlink:title=" ">
<path fill="none" stroke="#9a32cd" stroke-dasharray="5,2" d="M813.83,-217.02C779.17,-211.52 733.62,-204.29 706.85,-200.05"/>
<polygon fill="#9a32cd" stroke="#9a32cd" points="813.32,-220.48 823.75,-218.59 814.42,-213.57 813.32,-220.48"/>
</a>
</g>
<text text-anchor="middle" x="765.5" y="-215.5" font-family="Helvetica,sans-Serif" font-size="10.00" fill="grey"> fac</text>
</g>
<!-- Node27&#45;&gt;Node10 -->
<g id="edge30_Node000010_Node000027" class="edge">
<title>Node27&#45;&gt;Node10</title>
<g id="a_edge30_Node000010_Node000027"><a xlink:title=" ">
<path fill="none" stroke="#9a32cd" stroke-dasharray="5,2" d="M819.31,-172.06C784.11,-178.44 735.05,-187.33 706.85,-192.45"/>
<polygon fill="#9a32cd" stroke="#9a32cd" points="820.08,-175.48 829.3,-170.25 818.83,-168.59 820.08,-175.48"/>
</a>
</g>
<text text-anchor="middle" x="765.5" y="-188.5" font-family="Helvetica,sans-Serif" font-size="10.00" fill="grey"> dataStore</text>
</g>
</g>
</svg>
