<?xml version="1.0" encoding="UTF-8" standalone="no"?>
<!DOCTYPE svg PUBLIC "-//W3C//DTD SVG 1.1//EN"
 "http://www.w3.org/Graphics/SVG/1.1/DTD/svg11.dtd">
<!-- Generated by graphviz version 2.43.0 (0)
 -->
<!-- Title: Graphical Class Hierarchy Pages: 1 -->
<svg width="167pt" height="175pt"
 viewBox="0.00 0.00 167.00 175.00" xmlns="http://www.w3.org/2000/svg" xmlns:xlink="http://www.w3.org/1999/xlink">
<g id="graph0" class="graph" transform="scale(1 1) rotate(0) translate(4 171)">
<title>Graphical Class Hierarchy</title>
<!-- Node0 -->
<g id="Node000000" class="node">
<title>Node0</title>
<g id="a_Node000000"><a xlink:title=" ">
<polygon fill="#e0e0e0" stroke="#999999" points="61.5,-167 15.5,-167 15.5,-148 61.5,-148 61.5,-167"/>
<text text-anchor="middle" x="38.5" y="-155" font-family="Helvetica,sans-Serif" font-size="10.00">Graph</text>
</a>
</g>
</g>
<!-- Node1 -->
<g id="Node000001" class="node">
<title>Node1</title>
<g id="a_Node000001"><a xlink:href="classfr_1_1inria_1_1corese_1_1core_1_1Graph.html" target="_top" xlink:title="Graph Manager Edges are stored in an index An index is a table: predicate &#45;&gt; List&lt;Edge&gt; Edge List are...">
<polygon fill="white" stroke="#666666" points="159,-93 113,-93 113,-74 159,-74 159,-93"/>
<text text-anchor="middle" x="136" y="-81" font-family="Helvetica,sans-Serif" font-size="10.00">Graph</text>
</a>
</g>
</g>
<!-- Node0&#45;&gt;Node1 -->
<g id="edge1_Node000000_Node000001" class="edge">
<title>Node0&#45;&gt;Node1</title>
<g id="a_edge1_Node000000_Node000001"><a xlink:title=" ">
<path fill="none" stroke="#63b8ff" d="M70.45,-143.64C72.72,-142.33 74.92,-140.94 77,-139.5 96.76,-125.75 116.15,-105.2 126.75,-93.19"/>
<polygon fill="#63b8ff" stroke="#63b8ff" points="68.77,-140.57 61.58,-148.35 72.05,-146.76 68.77,-140.57"/>
</a>
</g>
</g>
<!-- Node2 -->
<g id="Node000002" class="node">
<title>Node2</title>
<g id="a_Node000002"><a xlink:title=" ">
<polygon fill="#e0e0e0" stroke="#999999" points="72,-130 5,-130 5,-111 72,-111 72,-130"/>
<text text-anchor="middle" x="38.5" y="-118" font-family="Helvetica,sans-Serif" font-size="10.00">Graphable</text>
</a>
</g>
</g>
<!-- Node2&#45;&gt;Node1 -->
<g id="edge2_Node000002_Node000001" class="edge">
<title>Node2&#45;&gt;Node1</title>
<g id="a_edge2_Node000002_Node000001"><a xlink:title=" ">
<path fill="none" stroke="#63b8ff" d="M73.68,-107.26C86.69,-102.22 101.16,-96.61 112.78,-92.11"/>
<polygon fill="#63b8ff" stroke="#63b8ff" points="72.15,-104.1 64.09,-110.97 74.68,-110.62 72.15,-104.1"/>
</a>
</g>
</g>
<!-- Node3 -->
<g id="Node000003" class="node">
<title>Node3</title>
<g id="a_Node000003"><a xlink:title=" ">
<polygon fill="#e0e0e0" stroke="#999999" points="77,-93 0,-93 0,-74 77,-74 77,-93"/>
<text text-anchor="middle" x="38.5" y="-81" font-family="Helvetica,sans-Serif" font-size="10.00">GraphObject</text>
</a>
</g>
</g>
<!-- Node3&#45;&gt;Node1 -->
<g id="edge3_Node000003_Node000001" class="edge">
<title>Node3&#45;&gt;Node1</title>
<g id="a_edge3_Node000003_Node000001"><a xlink:title=" ">
<path fill="none" stroke="#63b8ff" d="M87.3,-83.5C96.27,-83.5 105.23,-83.5 112.93,-83.5"/>
<polygon fill="#63b8ff" stroke="#63b8ff" points="87.24,-80 77.24,-83.5 87.24,-87 87.24,-80"/>
</a>
</g>
</g>
<!-- Node4 -->
<g id="Node000004" class="node">
<title>Node4</title>
<g id="a_Node000004"><a xlink:title=" ">
<polygon fill="#e0e0e0" stroke="#999999" points="65.5,-56 11.5,-56 11.5,-37 65.5,-37 65.5,-56"/>
<text text-anchor="middle" x="38.5" y="-44" font-family="Helvetica,sans-Serif" font-size="10.00">Iterable</text>
</a>
</g>
</g>
<!-- Node4&#45;&gt;Node1 -->
<g id="edge4_Node000004_Node000001" class="edge">
<title>Node4&#45;&gt;Node1</title>
<g id="a_edge4_Node000004_Node000001"><a xlink:title=" ">
<path fill="none" stroke="#63b8ff" d="M73.68,-59.74C86.69,-64.78 101.16,-70.39 112.78,-74.89"/>
<polygon fill="#63b8ff" stroke="#63b8ff" points="74.68,-56.38 64.09,-56.03 72.15,-62.9 74.68,-56.38"/>
</a>
</g>
</g>
<!-- Node5 -->
<g id="Node000005" class="node">
<title>Node5</title>
<g id="a_Node000005"><a xlink:title=" ">
<polygon fill="#e0e0e0" stroke="#999999" points="72.5,-19 4.5,-19 4.5,0 72.5,0 72.5,-19"/>
<text text-anchor="middle" x="38.5" y="-7" font-family="Helvetica,sans-Serif" font-size="10.00">TripleStore</text>
</a>
</g>
</g>
<!-- Node5&#45;&gt;Node1 -->
<g id="edge5_Node000005_Node000001" class="edge">
<title>Node5&#45;&gt;Node1</title>
<g id="a_edge5_Node000005_Node000001"><a xlink:title=" ">
<path fill="none" stroke="#63b8ff" d="M70,-23.99C72.42,-25.43 74.78,-26.94 77,-28.5 96.28,-42.09 115.53,-61.88 126.29,-73.65"/>
<polygon fill="#63b8ff" stroke="#63b8ff" points="71.59,-20.87 61.14,-19.12 68.22,-27.01 71.59,-20.87"/>
</a>
</g>
</g>
</g>
</svg>
