<?xml version="1.0" encoding="UTF-8" standalone="no"?>
<svg
   height="128px"
   viewBox="0 0 128 128"
   width="128px"
   version="1.1"
   id="svg7"
   sodipodi:docname="fr.inria.corese.CoreseCoreLight.svg"
   inkscape:version="1.4 (e7c3feb100, 2024-10-09)"
   xmlns:inkscape="http://www.inkscape.org/namespaces/inkscape"
   xmlns:sodipodi="http://sodipodi.sourceforge.net/DTD/sodipodi-0.dtd"
   xmlns="http://www.w3.org/2000/svg"
   xmlns:svg="http://www.w3.org/2000/svg">
  <defs
     id="defs7" />
  <sodipodi:namedview
     id="namedview7"
     pagecolor="#ffffff"
     bordercolor="#666666"
     borderopacity="1.0"
     inkscape:showpageshadow="2"
     inkscape:pageopacity="0.0"
     inkscape:pagecheckerboard="0"
     inkscape:deskcolor="#d1d1d1"
     inkscape:zoom="11.484375"
     inkscape:cx="64.043537"
     inkscape:cy="64"
     inkscape:window-width="3072"
     inkscape:window-height="1659"
     inkscape:window-x="0"
     inkscape:window-y="0"
     inkscape:window-maximized="1"
     inkscape:current-layer="svg7" />
  <g
     id="g7"
     transform="matrix(1.9279196,0,0,1.9279196,-59.388667,-59.386854)">
    <g
       stroke-width="4.73063"
       id="g6">
      <path
         d="m 55.308592,51.859373 19.425782,-2.92578"
         fill="#ff0000"
         stroke="#000000"
         id="path1" />
      <path
         d="M 83.597655,68.296874 V 55.253906"
         fill="none"
         stroke="#000000"
         id="path2" />
      <path
         d="m 53.652342,59.628904 22.234375,12.32422"
         fill="none"
         stroke="#000000"
         id="path3" />
      <path
         d="m 55.636718,53.414061 c 0,6.203125 -5.03125,11.234375 -11.234376,11.234375 -6.203124,0 -11.230469,-5.03125 -11.230469,-11.234375 0,-6.203124 5.027345,-11.230469 11.230469,-11.230469 6.203126,0 11.234376,5.027345 11.234376,11.230469 z m 0,0"
         fill="none"
         stroke="#009ccd"
         id="path4" />
      <path
         d="m 92.58203,46.320311 c 0,4.960939 -4.023436,8.984376 -8.984375,8.984376 -4.964844,0 -8.988281,-4.023437 -8.988281,-8.984376 0,-4.964844 4.023437,-8.988281 8.988281,-8.988281 4.960939,0 8.984375,4.023437 8.984375,8.988281 z m 0,0"
         fill="none"
         stroke="#89e777"
         id="path5" />
      <path
         d="m 94.83203,79.433593 c 0,6.203124 -5.03125,11.234374 -11.234376,11.234374 -6.203123,0 -11.234373,-5.03125 -11.234373,-11.234374 0,-6.203126 5.03125,-11.234376 11.234373,-11.234376 6.203126,0 11.234376,5.03125 11.234376,11.234376 z m 0,0"
         fill="none"
         stroke="#fc7474"
         id="path6" />
    </g>
    <path
       d="m 85.960936,79.433593 c 0,1.304686 -1.058593,2.367187 -2.363282,2.367187 -1.304686,0 -2.367187,-1.062501 -2.367187,-2.367187 0,-1.304688 1.062501,-2.363282 2.367187,-2.363282 1.304689,0 2.363282,1.058594 2.363282,2.363282 z m 0,0"
       stroke="#000000"
       stroke-width="2.36531"
       id="path7" />
  </g>
</svg>
